RangeenFColr0.ttf.ufo
<glyph name="quotedbl" format="2">
  <advance width="246"/>
  <unicode hex="0022"/>
  <outline>
    <contour>
      <point x="86" y="759"/>
      <point x="68" y="759"/>
      <point x="55" y="746"/>
      <point x="55" y="737" type="qcurve"/>
      <point x="55" y="736" type="line"/>
      <point x="57" y="670" type="line"/>
      <point x="57" y="661"/>
      <point x="70" y="649"/>
      <point x="88" y="649"/>
      <point x="101" y="662"/>
      <point x="101" y="671" type="qcurve"/>
      <point x="101" y="672" type="line"/>
      <point x="99" y="738" type="line"/>
      <point x="99" y="747"/>
    </contour>
    <contour>
      <point x="106" y="671" type="line"/>
      <point x="106" y="660"/>
      <point x="90" y="644"/>
      <point x="68" y="644"/>
      <point x="52" y="659"/>
      <point x="52" y="670" type="qcurve"/>
      <point x="50" y="736" type="line"/>
      <point x="50" y="737" type="line"/>
      <point x="50" y="748"/>
      <point x="66" y="764"/>
      <point x="88" y="764"/>
      <point x="104" y="749"/>
      <point x="104" y="738" type="qcurve"/>
      <point x="106" y="672" type="line"/>
    </contour>
    <contour>
      <point x="176" y="762"/>
      <point x="158" y="762"/>
      <point x="145" y="749"/>
      <point x="145" y="740" type="qcurve"/>
      <point x="145" y="739" type="line"/>
      <point x="147" y="673" type="line"/>
      <point x="147" y="664"/>
      <point x="160" y="652"/>
      <point x="178" y="652"/>
      <point x="191" y="665"/>
      <point x="191" y="674" type="qcurve"/>
      <point x="191" y="675" type="line"/>
      <point x="189" y="741" type="line"/>
      <point x="189" y="750"/>
    </contour>
    <contour>
      <point x="196" y="674" type="line"/>
      <point x="196" y="663"/>
      <point x="180" y="647"/>
      <point x="158" y="647"/>
      <point x="142" y="662"/>
      <point x="142" y="673" type="qcurve"/>
      <point x="140" y="739" type="line"/>
      <point x="140" y="740" type="line"/>
      <point x="140" y="751"/>
      <point x="156" y="767"/>
      <point x="178" y="767"/>
      <point x="194" y="752"/>
      <point x="194" y="741" type="qcurve"/>
      <point x="196" y="675" type="line"/>
    </contour>
  </outline>
</glyph>
<glyph name="numbersign" format="2">
  <advance width="565"/>
  <unicode hex="0023"/>
  <outline>
    <contour>
      <point x="334" y="288" type="line"/>
      <point x="357" y="434" type="line"/>
      <point x="211" y="430" type="line"/>
      <point x="188" y="285" type="line"/>
    </contour>
    <contour>
      <point x="183" y="282" type="qcurve"/>
      <point x="183" y="283" type="line"/>
      <point x="206" y="433" type="line"/>
      <point x="206" y="435"/>
      <point x="208" y="435" type="qcurve"/>
      <point x="359" y="439" type="line"/>
      <point x="362" y="439"/>
      <point x="362" y="436" type="qcurve"/>
      <point x="339" y="285" type="line"/>
      <point x="339" y="283"/>
      <point x="336" y="283" type="qcurve"/>
      <point x="185" y="280" type="line"/>
      <point x="183" y="280"/>
    </contour>
    <contour>
      <point x="488" y="286" type="qcurve"/>
      <point x="387" y="284" type="line"/>
      <point x="385" y="284"/>
      <point x="385" y="287" type="qcurve"/>
      <point x="408" y="438" type="line"/>
      <point x="408" y="440"/>
      <point x="410" y="440" type="qcurve"/>
      <point x="488" y="442" type="line"/>
      <point x="497" y="442"/>
      <point x="510" y="455"/>
      <point x="510" y="473"/>
      <point x="497" y="486"/>
      <point x="488" y="486" type="qcurve"/>
      <point x="441" y="486"/>
      <point x="418" y="485" type="qcurve"/>
      <point x="415" y="485"/>
      <point x="415" y="487" type="qcurve"/>
      <point x="415" y="488" type="line"/>
      <point x="423" y="539" type="line"/>
      <point x="423" y="542" type="line"/>
      <point x="423" y="551"/>
      <point x="410" y="564"/>
      <point x="401" y="564" type="qcurve"/>
      <point x="383" y="564"/>
      <point x="379" y="545" type="qcurve"/>
      <point x="370" y="486" type="line"/>
      <point x="369" y="481"/>
      <point x="216" y="481" type="qcurve"/>
      <point x="214" y="481"/>
      <point x="214" y="483" type="qcurve"/>
      <point x="222" y="539" type="line"/>
      <point x="222" y="542" type="line"/>
      <point x="222" y="551"/>
      <point x="209" y="564"/>
      <point x="200" y="564" type="qcurve"/>
      <point x="182" y="564"/>
      <point x="178" y="545" type="qcurve"/>
      <point x="168" y="482" type="line"/>
      <point x="168" y="479"/>
      <point x="166" y="479" type="qcurve"/>
      <point x="77" y="477" type="line"/>
      <point x="68" y="477"/>
      <point x="55" y="464"/>
      <point x="55" y="446"/>
      <point x="68" y="433"/>
      <point x="77" y="433" type="qcurve"/>
      <point x="158" y="434" type="line"/>
      <point x="160" y="434"/>
      <point x="160" y="432" type="qcurve"/>
      <point x="160" y="431" type="line"/>
      <point x="137" y="281" type="line"/>
      <point x="137" y="279"/>
      <point x="135" y="279" type="qcurve"/>
      <point x="77" y="277" type="line"/>
      <point x="68" y="277"/>
      <point x="55" y="264"/>
      <point x="55" y="246"/>
      <point x="68" y="233"/>
      <point x="86" y="233"/>
      <point x="118" y="234"/>
      <point x="127" y="234" type="qcurve"/>
      <point x="129" y="234"/>
      <point x="129" y="231" type="qcurve"/>
      <point x="124" y="194" type="line"/>
      <point x="124" y="191" type="line"/>
      <point x="124" y="182"/>
      <point x="137" y="169"/>
      <point x="146" y="169" type="qcurve"/>
      <point x="164" y="169"/>
      <point x="168" y="188" type="qcurve"/>
      <point x="175" y="233" type="line"/>
      <point x="176" y="238"/>
      <point x="329" y="238" type="qcurve"/>
      <point x="331" y="238"/>
      <point x="331" y="236" type="qcurve"/>
      <point x="331" y="235" type="line"/>
      <point x="325" y="194" type="line"/>
      <point x="325" y="191" type="line"/>
      <point x="325" y="182"/>
      <point x="338" y="169"/>
      <point x="347" y="169" type="qcurve"/>
      <point x="365" y="169"/>
      <point x="369" y="188" type="qcurve"/>
      <point x="377" y="237" type="line"/>
      <point x="377" y="239"/>
      <point x="379" y="239" type="qcurve"/>
      <point x="488" y="242" type="line"/>
      <point x="497" y="242"/>
      <point x="510" y="255"/>
      <point x="510" y="273"/>
      <point x="497" y="286"/>
    </contour>
    <contour>
      <point x="146" y="164" type="qcurve"/>
      <point x="135" y="164"/>
      <point x="119" y="180"/>
      <point x="119" y="191" type="qcurve"/>
      <point x="119" y="195" type="line"/>
      <point x="124" y="229" type="line"/>
      <point x="116" y="229"/>
      <point x="85" y="228"/>
      <point x="77" y="228" type="qcurve"/>
      <point x="66" y="228"/>
      <point x="50" y="244"/>
      <point x="50" y="266"/>
      <point x="65" y="282"/>
      <point x="76" y="282" type="qcurve"/>
      <point x="132" y="284" type="line"/>
      <point x="155" y="429" type="line"/>
      <point x="129" y="428"/>
      <point x="77" y="428" type="qcurve"/>
      <point x="66" y="428"/>
      <point x="50" y="444"/>
      <point x="50" y="466"/>
      <point x="65" y="482"/>
      <point x="76" y="482" type="qcurve"/>
      <point x="163" y="484" type="line"/>
      <point x="173" y="546" type="line"/>
      <point x="177" y="569"/>
      <point x="200" y="569" type="qcurve"/>
      <point x="211" y="569"/>
      <point x="227" y="553"/>
      <point x="227" y="542" type="qcurve"/>
      <point x="227" y="538" type="line"/>
      <point x="219" y="486" type="line"/>
      <point x="365" y="489" type="line"/>
      <point x="374" y="546" type="line"/>
      <point x="378" y="569"/>
      <point x="401" y="569" type="qcurve"/>
      <point x="412" y="569"/>
      <point x="428" y="553"/>
      <point x="428" y="542" type="qcurve"/>
      <point x="428" y="538" type="line"/>
      <point x="421" y="490" type="line"/>
      <point x="443" y="491"/>
      <point x="488" y="491" type="qcurve"/>
      <point x="499" y="491"/>
      <point x="515" y="475"/>
      <point x="515" y="453"/>
      <point x="500" y="437"/>
      <point x="489" y="437" type="qcurve"/>
      <point x="412" y="435" type="line"/>
      <point x="390" y="289" type="line"/>
      <point x="487" y="291" type="line"/>
      <point x="488" y="291" type="line"/>
      <point x="499" y="291"/>
      <point x="515" y="275"/>
      <point x="515" y="253"/>
      <point x="500" y="237"/>
      <point x="489" y="237" type="qcurve"/>
      <point x="381" y="234" type="line"/>
      <point x="374" y="187" type="line"/>
      <point x="370" y="164"/>
      <point x="347" y="164" type="qcurve"/>
      <point x="336" y="164"/>
      <point x="320" y="180"/>
      <point x="320" y="191" type="qcurve"/>
      <point x="320" y="195" type="line"/>
      <point x="326" y="233" type="line"/>
      <point x="180" y="230" type="line"/>
      <point x="173" y="187" type="line"/>
      <point x="169" y="164"/>
    </contour>
  </outline>
</glyph>
<glyph name="quotesingle" format="2">
  <advance width="157"/>
  <unicode hex="0027"/>
  <outline>
    <contour>
      <point x="102" y="728" type="line"/>
      <point x="102" y="737"/>
      <point x="89" y="750"/>
      <point x="71" y="750"/>
      <point x="58" y="738"/>
      <point x="58" y="729" type="qcurve"/>
      <point x="55" y="618" type="line"/>
      <point x="55" y="617" type="line"/>
      <point x="55" y="608"/>
      <point x="68" y="595"/>
      <point x="86" y="595"/>
      <point x="99" y="607"/>
      <point x="99" y="616" type="qcurve"/>
      <point x="102" y="727" type="line"/>
    </contour>
    <contour>
      <point x="88" y="590"/>
      <point x="66" y="590"/>
      <point x="50" y="606"/>
      <point x="50" y="617" type="qcurve"/>
      <point x="50" y="618" type="line"/>
      <point x="53" y="729" type="line"/>
      <point x="53" y="740"/>
      <point x="69" y="755"/>
      <point x="91" y="755"/>
      <point x="107" y="739"/>
      <point x="107" y="728" type="qcurve"/>
      <point x="107" y="727" type="line"/>
      <point x="104" y="616" type="line"/>
      <point x="104" y="605"/>
    </contour>
  </outline>
</glyph>
<glyph name="parenleft" format="2">
  <advance width="208"/>
  <unicode hex="0028"/>
  <outline>
    <contour>
      <point x="55" y="476"/>
      <point x="55" y="458"/>
      <point x="55" y="367"/>
      <point x="55" y="316"/>
      <point x="56" y="216"/>
      <point x="61" y="152"/>
      <point x="67" y="64"/>
      <point x="79" y="9"/>
      <point x="94" y="-45"/>
      <point x="117" y="-71"/>
      <point x="131" y="-71" type="qcurve"/>
      <point x="140" y="-71"/>
      <point x="153" y="-58"/>
      <point x="153" y="-49" type="qcurve"/>
      <point x="153" y="-41"/>
      <point x="138" y="-25"/>
      <point x="137" y="-22" type="qcurve"/>
      <point x="130" y="-4"/>
      <point x="119" y="39"/>
      <point x="111" y="92"/>
      <point x="105" y="137"/>
      <point x="102" y="205"/>
      <point x="100" y="247"/>
      <point x="99" y="327"/>
      <point x="99" y="364"/>
      <point x="99" y="452"/>
      <point x="99" y="467" type="qcurve"/>
      <point x="99" y="499"/>
      <point x="97" y="658"/>
      <point x="98" y="731"/>
      <point x="105" y="845"/>
      <point x="124" y="927"/>
      <point x="140" y="962" type="qcurve"/>
      <point x="141" y="964"/>
      <point x="153" y="976"/>
      <point x="153" y="983" type="qcurve"/>
      <point x="153" y="992"/>
      <point x="140" y="1005"/>
      <point x="131" y="1005" type="qcurve"/>
      <point x="117" y="1005"/>
      <point x="94" y="979"/>
      <point x="79" y="925"/>
      <point x="67" y="870"/>
      <point x="61" y="782"/>
      <point x="56" y="718"/>
      <point x="55" y="618"/>
      <point x="55" y="567"/>
    </contour>
    <contour>
      <point x="131" y="1010" type="qcurve"/>
      <point x="142" y="1010"/>
      <point x="158" y="994"/>
      <point x="158" y="972"/>
      <point x="140" y="946"/>
      <point x="137" y="936" type="qcurve"/>
      <point x="115" y="848"/>
      <point x="104" y="644"/>
      <point x="104" y="467" type="qcurve"/>
      <point x="104" y="446"/>
      <point x="103" y="336"/>
      <point x="104" y="283"/>
      <point x="105" y="187"/>
      <point x="111" y="128"/>
      <point x="119" y="54"/>
      <point x="134" y="-2"/>
      <point x="144" y="-25" type="qcurve"/>
      <point x="158" y="-32"/>
      <point x="158" y="-49" type="qcurve"/>
      <point x="158" y="-60"/>
      <point x="142" y="-76"/>
      <point x="131" y="-76" type="qcurve"/>
      <point x="116" y="-76"/>
      <point x="92" y="-50"/>
      <point x="75" y="3"/>
      <point x="62" y="60"/>
      <point x="55" y="147"/>
      <point x="51" y="214"/>
      <point x="50" y="312"/>
      <point x="49" y="367"/>
      <point x="50" y="455"/>
      <point x="50" y="479"/>
      <point x="49" y="567"/>
      <point x="50" y="622"/>
      <point x="51" y="720"/>
      <point x="55" y="787"/>
      <point x="62" y="874"/>
      <point x="75" y="931"/>
      <point x="92" y="984"/>
      <point x="116" y="1010"/>
    </contour>
  </outline>
</glyph>
<glyph name="semicolon" format="2">
  <advance width="190"/>
  <unicode hex="003B"/>
  <outline>
    <contour>
      <point x="135" y="-7" type="qcurve"/>
      <point x="135" y="13"/>
      <point x="118" y="48"/>
      <point x="103" y="48" type="qcurve"/>
      <point x="94" y="48"/>
      <point x="81" y="35"/>
      <point x="81" y="26" type="qcurve"/>
      <point x="81" y="22"/>
      <point x="91" y="-1"/>
      <point x="91" y="-7" type="qcurve"/>
      <point x="91" y="-20"/>
      <point x="55" y="-53"/>
      <point x="55" y="-64" type="qcurve"/>
      <point x="55" y="-73"/>
      <point x="68" y="-86"/>
      <point x="77" y="-86" type="qcurve"/>
      <point x="96" y="-86"/>
      <point x="135" y="-31"/>
    </contour>
    <contour>
      <point x="85" y="-7" type="qcurve"/>
      <point x="84" y="-1"/>
      <point x="76" y="20"/>
      <point x="76" y="26" type="qcurve"/>
      <point x="76" y="37"/>
      <point x="92" y="53"/>
      <point x="103" y="53" type="qcurve"/>
      <point x="120" y="53"/>
      <point x="140" y="16"/>
      <point x="140" y="-7" type="qcurve"/>
      <point x="140" y="-33"/>
      <point x="98" y="-91"/>
      <point x="77" y="-91" type="qcurve"/>
      <point x="66" y="-91"/>
      <point x="50" y="-75"/>
      <point x="50" y="-64" type="qcurve"/>
      <point x="50" y="-51"/>
      <point x="83" y="-18"/>
    </contour>
    <contour>
      <point x="87" y="410"/>
      <point x="69" y="410"/>
      <point x="56" y="397"/>
      <point x="56" y="379"/>
      <point x="69" y="366"/>
      <point x="87" y="366"/>
      <point x="100" y="379"/>
      <point x="100" y="397"/>
    </contour>
    <contour>
      <point x="89" y="361"/>
      <point x="67" y="361"/>
      <point x="51" y="377"/>
      <point x="51" y="399"/>
      <point x="67" y="415"/>
      <point x="89" y="415"/>
      <point x="105" y="399"/>
      <point x="105" y="377"/>
    </contour>
  </outline>
</glyph>
<glyph name="question" format="2">
  <advance width="360"/>
  <unicode hex="003F"/>
  <outline>
    <contour>
      <point x="261" y="508" type="qcurve"/>
      <point x="261" y="504"/>
      <point x="256" y="467"/>
      <point x="241" y="422"/>
      <point x="231" y="422" type="qcurve"/>
      <point x="151" y="422" type="line"/>
      <point x="142" y="422"/>
      <point x="128" y="409"/>
      <point x="128" y="400" type="qcurve"/>
      <point x="128" y="212" type="line"/>
      <point x="128" y="203"/>
      <point x="142" y="190"/>
      <point x="160" y="190"/>
      <point x="173" y="203"/>
      <point x="173" y="212" type="qcurve"/>
      <point x="173" y="375" type="line"/>
      <point x="173" y="378"/>
      <point x="176" y="378" type="qcurve"/>
      <point x="245" y="378" type="line"/>
      <point x="273" y="378"/>
      <point x="306" y="479"/>
      <point x="306" y="508" type="qcurve"/>
      <point x="306" y="570"/>
      <point x="222" y="660"/>
      <point x="163" y="660" type="qcurve"/>
      <point x="134" y="660"/>
      <point x="54" y="629"/>
      <point x="54" y="604" type="qcurve"/>
      <point x="54" y="570" type="line"/>
      <point x="54" y="561"/>
      <point x="68" y="548"/>
      <point x="86" y="548"/>
      <point x="99" y="561"/>
      <point x="99" y="570" type="qcurve"/>
      <point x="99" y="591" type="line"/>
      <point x="99" y="601"/>
      <point x="151" y="616"/>
      <point x="163" y="616" type="qcurve"/>
      <point x="202" y="616"/>
      <point x="261" y="550"/>
    </contour>
    <contour>
      <point x="164" y="174"/>
      <point x="146" y="174"/>
      <point x="132" y="161"/>
      <point x="132" y="152" type="qcurve"/>
      <point x="132" y="108" type="line"/>
      <point x="132" y="99"/>
      <point x="146" y="86"/>
      <point x="164" y="86"/>
      <point x="177" y="99"/>
      <point x="177" y="108" type="qcurve"/>
      <point x="177" y="152" type="line"/>
      <point x="177" y="161"/>
    </contour>
    <contour>
      <point x="166" y="81"/>
      <point x="144" y="81"/>
      <point x="128" y="97"/>
      <point x="128" y="108" type="qcurve"/>
      <point x="128" y="152" type="line"/>
      <point x="128" y="163"/>
      <point x="144" y="179"/>
      <point x="166" y="179"/>
      <point x="182" y="163"/>
      <point x="182" y="152" type="qcurve"/>
      <point x="182" y="108" type="line"/>
      <point x="182" y="97"/>
    </contour>
    <contour>
      <point x="163" y="611" type="qcurve"/>
      <point x="136" y="611"/>
      <point x="104" y="590" type="qcurve"/>
      <point x="104" y="570" type="line"/>
      <point x="104" y="559"/>
      <point x="88" y="543"/>
      <point x="66" y="543"/>
      <point x="50" y="559"/>
      <point x="50" y="570" type="qcurve"/>
      <point x="50" y="604" type="line"/>
      <point x="50" y="631"/>
      <point x="131" y="665"/>
      <point x="163" y="665" type="qcurve"/>
      <point x="224" y="665"/>
      <point x="310" y="573"/>
      <point x="310" y="508" type="qcurve"/>
      <point x="310" y="476"/>
      <point x="275" y="373"/>
      <point x="245" y="373" type="qcurve"/>
      <point x="178" y="373" type="line"/>
      <point x="178" y="212" type="line"/>
      <point x="178" y="201"/>
      <point x="162" y="185"/>
      <point x="140" y="185"/>
      <point x="124" y="201"/>
      <point x="124" y="212" type="qcurve"/>
      <point x="124" y="400" type="line"/>
      <point x="124" y="411"/>
      <point x="140" y="427"/>
      <point x="151" y="427" type="qcurve"/>
      <point x="230" y="427" type="line"/>
      <point x="237" y="438"/>
      <point x="247" y="467"/>
      <point x="252" y="487"/>
      <point x="256" y="507"/>
      <point x="256" y="508" type="qcurve"/>
      <point x="256" y="531"/>
      <point x="241" y="566"/>
      <point x="207" y="590"/>
      <point x="185" y="602"/>
    </contour>
  </outline>
</glyph>
<glyph name="I" format="2">
  <advance width="330"/>
  <unicode hex="0049"/>
  <outline>
    <contour>
      <point x="156" y="23" type="qcurve"/>
      <point x="185" y="23"/>
      <point x="225" y="106"/>
      <point x="225" y="144" type="qcurve"/>
      <point x="225" y="197"/>
      <point x="217" y="324"/>
      <point x="210" y="404"/>
      <point x="194" y="559"/>
      <point x="191" y="585" type="qcurve"/>
      <point x="108" y="585" type="line"/>
      <point x="83" y="585"/>
      <point x="50" y="646"/>
      <point x="50" y="676" type="qcurve"/>
      <point x="50" y="737"/>
      <point x="150" y="851"/>
      <point x="206" y="851" type="qcurve"/>
      <point x="217" y="851"/>
      <point x="233" y="835"/>
      <point x="233" y="824" type="qcurve"/>
      <point x="233" y="817" type="line"/>
      <point x="233" y="704"/>
      <point x="280" y="260"/>
      <point x="280" y="144" type="qcurve"/>
      <point x="280" y="81"/>
      <point x="212" y="-32"/>
      <point x="157" y="-32" type="qcurve"/>
      <point x="129" y="-32"/>
      <point x="79" y="12"/>
      <point x="72" y="40" type="qcurve"/>
      <point x="60" y="90" type="line"/>
      <point x="59" y="92"/>
      <point x="59" y="96" type="qcurve"/>
      <point x="59" y="107"/>
      <point x="76" y="123"/>
      <point x="87" y="123" type="qcurve"/>
      <point x="108" y="123"/>
      <point x="113" y="102" type="qcurve"/>
      <point x="125" y="55" type="line"/>
      <point x="140" y="23"/>
    </contour>
    <contour>
      <point x="275" y="144" type="qcurve"/>
      <point x="275" y="260"/>
      <point x="228" y="704"/>
      <point x="228" y="817" type="qcurve"/>
      <point x="228" y="824" type="line"/>
      <point x="228" y="833"/>
      <point x="215" y="846"/>
      <point x="206" y="846" type="qcurve"/>
      <point x="152" y="846"/>
      <point x="55" y="735"/>
      <point x="55" y="676" type="qcurve"/>
      <point x="55" y="648"/>
      <point x="85" y="590"/>
      <point x="108" y="590" type="qcurve"/>
      <point x="193" y="590" type="line"/>
      <point x="204" y="590"/>
      <point x="230" y="204"/>
      <point x="230" y="144" type="qcurve"/>
      <point x="230" y="104"/>
      <point x="188" y="18"/>
      <point x="156" y="18" type="qcurve"/>
      <point x="146" y="18"/>
      <point x="123" y="41"/>
      <point x="120" y="54" type="qcurve"/>
      <point x="108" y="101" type="line"/>
      <point x="104" y="118"/>
      <point x="87" y="118" type="qcurve"/>
      <point x="78" y="118"/>
      <point x="64" y="105"/>
      <point x="64" y="96" type="qcurve"/>
      <point x="64" y="95"/>
      <point x="65" y="92"/>
      <point x="65" y="91" type="qcurve"/>
      <point x="77" y="41" type="line"/>
      <point x="83" y="14"/>
      <point x="130" y="-27"/>
      <point x="157" y="-27" type="qcurve"/>
      <point x="210" y="-27"/>
      <point x="275" y="84"/>
    </contour>
    <contour>
      <point x="94" y="688" type="qcurve"/>
      <point x="94" y="721"/>
      <point x="140" y="790"/>
      <point x="156" y="790" type="qcurve"/>
      <point x="170" y="790"/>
      <point x="188" y="739"/>
      <point x="188" y="669"/>
      <point x="170" y="618"/>
      <point x="156" y="618" type="qcurve"/>
      <point x="138" y="618"/>
      <point x="94" y="656"/>
    </contour>
    <contour>
      <point x="98" y="688" type="qcurve"/>
      <point x="98" y="659"/>
      <point x="140" y="622"/>
      <point x="156" y="622" type="qcurve"/>
      <point x="167" y="622"/>
      <point x="184" y="670"/>
      <point x="184" y="738"/>
      <point x="167" y="786"/>
      <point x="156" y="786" type="qcurve"/>
      <point x="143" y="786"/>
      <point x="98" y="719"/>
    </contour>
  </outline>
</glyph>
<glyph name="L" format="2">
  <advance width="663"/>
  <unicode hex="004C"/>
  <outline>
    <contour>
      <point x="342" y="750" type="qcurve"/>
      <point x="342" y="776"/>
      <point x="329" y="803"/>
      <point x="307" y="803" type="qcurve"/>
      <point x="241" y="803"/>
      <point x="177" y="722"/>
      <point x="176" y="653" type="qcurve"/>
      <point x="176" y="650"/>
      <point x="147" y="647"/>
      <point x="145" y="649" type="qcurve"/>
      <point x="134" y="657"/>
      <point x="92" y="804"/>
      <point x="77" y="804" type="qcurve"/>
      <point x="68" y="804"/>
      <point x="55" y="791"/>
      <point x="55" y="782" type="qcurve"/>
      <point x="55" y="746"/>
      <point x="71" y="669"/>
      <point x="115" y="603"/>
      <point x="146" y="603" type="qcurve"/>
      <point x="151" y="603"/>
      <point x="171" y="605"/>
      <point x="176" y="605" type="qcurve"/>
      <point x="182" y="605"/>
      <point x="223" y="281"/>
      <point x="223" y="253" type="qcurve"/>
      <point x="223" y="151"/>
      <point x="203" y="151"/>
      <point x="150" y="177"/>
      <point x="133" y="177" type="qcurve"/>
      <point x="131" y="177" type="line"/>
      <point x="127" y="177"/>
      <point x="112" y="179"/>
      <point x="108" y="179" type="qcurve"/>
      <point x="89" y="179"/>
      <point x="63" y="158"/>
      <point x="63" y="139" type="qcurve"/>
      <point x="63" y="93"/>
      <point x="126" y="-4"/>
      <point x="169" y="-4" type="qcurve"/>
      <point x="187" y="-4"/>
      <point x="217" y="29"/>
      <point x="236" y="62"/>
      <point x="242" y="62" type="qcurve"/>
      <point x="244" y="61" type="line"/>
      <point x="268" y="37"/>
      <point x="295" y="12"/>
      <point x="351" y="-15"/>
      <point x="380" y="-15" type="qcurve"/>
      <point x="482" y="-15"/>
      <point x="608" y="63"/>
      <point x="608" y="151" type="qcurve"/>
      <point x="608" y="167"/>
      <point x="601" y="174" type="qcurve"/>
      <point x="573" y="202" type="line"/>
      <point x="567" y="208"/>
      <point x="557" y="208" type="qcurve"/>
      <point x="548" y="208"/>
      <point x="535" y="195"/>
      <point x="535" y="177"/>
      <point x="542" y="170" type="qcurve"/>
      <point x="562" y="149" type="line"/>
      <point x="563" y="149"/>
      <point x="563" y="148" type="qcurve"/>
      <point x="561" y="30"/>
      <point x="380" y="30" type="qcurve"/>
      <point x="355" y="30"/>
      <point x="255" y="92"/>
      <point x="255" y="116" type="qcurve"/>
      <point x="255" y="147"/>
      <point x="268" y="244"/>
      <point x="268" y="253" type="qcurve"/>
      <point x="268" y="316"/>
      <point x="223" y="553"/>
      <point x="223" y="614" type="qcurve"/>
      <point x="223" y="617"/>
      <point x="225" y="617" type="qcurve"/>
      <point x="274" y="633"/>
      <point x="342" y="700"/>
    </contour>
    <contour>
      <point x="58" y="139" type="qcurve"/>
      <point x="58" y="159"/>
      <point x="88" y="184"/>
      <point x="108" y="184" type="qcurve"/>
      <point x="116" y="184"/>
      <point x="132" y="182" type="qcurve"/>
      <point x="133" y="182" type="line"/>
      <point x="173" y="182"/>
      <point x="211" y="158" type="qcurve"/>
      <point x="218" y="207"/>
      <point x="218" y="253" type="qcurve"/>
      <point x="218" y="320"/>
      <point x="178" y="561"/>
      <point x="174" y="600" type="qcurve"/>
      <point x="156" y="598"/>
      <point x="146" y="598" type="qcurve"/>
      <point x="113" y="598"/>
      <point x="67" y="665"/>
      <point x="50" y="745"/>
      <point x="50" y="782" type="qcurve"/>
      <point x="50" y="793"/>
      <point x="66" y="809"/>
      <point x="77" y="809" type="qcurve"/>
      <point x="97" y="809"/>
      <point x="136" y="662"/>
      <point x="148" y="653" type="qcurve"/>
      <point x="155" y="653"/>
      <point x="171" y="655" type="qcurve"/>
      <point x="172" y="725"/>
      <point x="239" y="808"/>
      <point x="307" y="808" type="qcurve"/>
      <point x="347" y="808"/>
      <point x="347" y="750" type="qcurve"/>
      <point x="347" y="699"/>
      <point x="278" y="629"/>
      <point x="228" y="612" type="qcurve"/>
      <point x="232" y="569"/>
      <point x="273" y="323"/>
      <point x="273" y="253" type="qcurve"/>
      <point x="273" y="187"/>
      <point x="260" y="117" type="qcurve"/>
      <point x="262" y="114"/>
      <point x="289" y="86"/>
      <point x="300" y="76"/>
      <point x="326" y="53"/>
      <point x="343" y="44"/>
      <point x="368" y="35"/>
      <point x="380" y="35" type="qcurve"/>
      <point x="556" y="35"/>
      <point x="558" y="147" type="qcurve"/>
      <point x="538" y="167" type="line"/>
      <point x="530" y="175"/>
      <point x="530" y="197"/>
      <point x="546" y="213"/>
      <point x="557" y="213" type="qcurve"/>
      <point x="569" y="213"/>
      <point x="577" y="205" type="qcurve"/>
      <point x="605" y="177" type="line"/>
      <point x="613" y="169"/>
      <point x="613" y="151" type="qcurve"/>
      <point x="613" y="61"/>
      <point x="484" y="-20"/>
      <point x="380" y="-20" type="qcurve"/>
      <point x="351" y="-20"/>
      <point x="295" y="6"/>
      <point x="265" y="32"/>
      <point x="243" y="55" type="qcurve"/>
      <point x="217" y="-9"/>
      <point x="169" y="-9" type="qcurve"/>
      <point x="123" y="-9"/>
      <point x="58" y="91"/>
    </contour>
  </outline>
</glyph>
<glyph name="N" format="2">
  <advance width="660"/>
  <unicode hex="004E"/>
  <outline>
    <contour>
      <point x="111" y="-30" type="qcurve"/>
      <point x="206" y="-30"/>
      <point x="206" y="121" type="qcurve"/>
      <point x="206" y="130"/>
      <point x="205" y="164"/>
      <point x="205" y="172" type="qcurve"/>
      <point x="205" y="213"/>
      <point x="192" y="388"/>
      <point x="192" y="428" type="qcurve"/>
      <point x="192" y="619"/>
      <point x="271" y="719" type="qcurve"/>
      <point x="271" y="720"/>
      <point x="273" y="720" type="qcurve"/>
      <point x="276" y="720"/>
      <point x="276" y="718" type="qcurve"/>
      <point x="276" y="710"/>
      <point x="271" y="678"/>
      <point x="271" y="669" type="qcurve"/>
      <point x="271" y="649"/>
      <point x="285" y="562"/>
      <point x="285" y="538" type="qcurve"/>
      <point x="285" y="502"/>
      <point x="276" y="354"/>
      <point x="276" y="318" type="qcurve"/>
      <point x="276" y="286"/>
      <point x="283" y="226"/>
      <point x="302" y="162"/>
      <point x="314" y="126"/>
      <point x="343" y="51"/>
      <point x="347" y="40" type="qcurve"/>
      <point x="348" y="37"/>
      <point x="356" y="6"/>
      <point x="366" y="-4"/>
      <point x="377" y="-4" type="qcurve"/>
      <point x="385" y="-4"/>
      <point x="398" y="8"/>
      <point x="399" y="16" type="qcurve"/>
      <point x="405" y="81"/>
      <point x="430" y="219"/>
      <point x="452" y="319"/>
      <point x="497" y="471"/>
      <point x="519" y="541"/>
      <point x="577" y="712"/>
      <point x="585" y="737" type="qcurve"/>
      <point x="585" y="738" type="line"/>
      <point x="601" y="759" type="line"/>
      <point x="605" y="764"/>
      <point x="605" y="772" type="qcurve"/>
      <point x="605" y="781"/>
      <point x="592" y="794"/>
      <point x="583" y="794" type="qcurve"/>
      <point x="572" y="794"/>
      <point x="565" y="785" type="qcurve"/>
      <point x="547" y="761" type="line"/>
      <point x="544" y="755" type="line"/>
      <point x="536" y="732"/>
      <point x="473" y="546"/>
      <point x="449" y="468"/>
      <point x="405" y="317"/>
      <point x="377" y="189"/>
      <point x="367" y="123" type="qcurve"/>
      <point x="367" y="121"/>
      <point x="365" y="121" type="qcurve"/>
      <point x="344" y="121"/>
      <point x="321" y="272"/>
      <point x="321" y="320" type="qcurve"/>
      <point x="321" y="356"/>
      <point x="330" y="503"/>
      <point x="330" y="539" type="qcurve"/>
      <point x="330" y="561"/>
      <point x="316" y="648"/>
      <point x="316" y="669" type="qcurve"/>
      <point x="316" y="679"/>
      <point x="323" y="739"/>
      <point x="323" y="749" type="qcurve"/>
      <point x="323" y="792"/>
      <point x="292" y="792" type="qcurve"/>
      <point x="275" y="792"/>
      <point x="254" y="769" type="qcurve"/>
      <point x="193" y="703"/>
      <point x="147" y="537"/>
      <point x="147" y="430" type="qcurve"/>
      <point x="147" y="379"/>
      <point x="161" y="174"/>
      <point x="161" y="122" type="qcurve"/>
      <point x="161" y="15"/>
      <point x="115" y="15" type="qcurve"/>
      <point x="108" y="15"/>
      <point x="96" y="82"/>
      <point x="77" y="82" type="qcurve"/>
      <point x="68" y="82"/>
      <point x="55" y="69"/>
      <point x="55" y="60" type="qcurve"/>
      <point x="55" y="29"/>
      <point x="85" y="-30"/>
    </contour>
    <contour>
      <point x="583" y="799" type="qcurve"/>
      <point x="594" y="799"/>
      <point x="610" y="783"/>
      <point x="610" y="772" type="qcurve"/>
      <point x="610" y="762"/>
      <point x="605" y="756" type="qcurve"/>
      <point x="590" y="735" type="line"/>
      <point x="582" y="709"/>
      <point x="524" y="539"/>
      <point x="502" y="469"/>
      <point x="457" y="318"/>
      <point x="434" y="217"/>
      <point x="410" y="80"/>
      <point x="404" y="15" type="qcurve"/>
      <point x="403" y="5"/>
      <point x="388" y="-9"/>
      <point x="377" y="-9" type="qcurve"/>
      <point x="334" y="-9"/>
      <point x="271" y="241"/>
      <point x="271" y="318" type="qcurve"/>
      <point x="271" y="354"/>
      <point x="280" y="502"/>
      <point x="280" y="538" type="qcurve"/>
      <point x="280" y="562"/>
      <point x="266" y="649"/>
      <point x="266" y="669" type="qcurve"/>
      <point x="266" y="683"/>
      <point x="270" y="709" type="qcurve"/>
      <point x="197" y="610"/>
      <point x="197" y="428" type="qcurve"/>
      <point x="197" y="388"/>
      <point x="210" y="213"/>
      <point x="210" y="172" type="qcurve"/>
      <point x="210" y="164"/>
      <point x="211" y="130"/>
      <point x="211" y="121" type="qcurve"/>
      <point x="211" y="-35"/>
      <point x="111" y="-35" type="qcurve"/>
      <point x="83" y="-35"/>
      <point x="50" y="27"/>
      <point x="50" y="60" type="qcurve"/>
      <point x="50" y="71"/>
      <point x="66" y="87"/>
      <point x="77" y="87" type="qcurve"/>
      <point x="93" y="87"/>
      <point x="106" y="65"/>
      <point x="112" y="27"/>
      <point x="116" y="20" type="qcurve"/>
      <point x="156" y="23"/>
      <point x="156" y="122" type="qcurve"/>
      <point x="156" y="174"/>
      <point x="142" y="379"/>
      <point x="142" y="430" type="qcurve"/>
      <point x="142" y="480"/>
      <point x="153" y="577"/>
      <point x="179" y="686"/>
      <point x="235" y="772"/>
      <point x="274" y="792" type="qcurve"/>
      <point x="284" y="797"/>
      <point x="292" y="797" type="qcurve"/>
      <point x="328" y="797"/>
      <point x="328" y="749" type="qcurve"/>
      <point x="328" y="738"/>
      <point x="321" y="679"/>
      <point x="321" y="669" type="qcurve"/>
      <point x="321" y="648"/>
      <point x="335" y="561"/>
      <point x="335" y="539" type="qcurve"/>
      <point x="335" y="503"/>
      <point x="326" y="356"/>
      <point x="326" y="320" type="qcurve"/>
      <point x="326" y="223"/>
      <point x="364" y="132" type="qcurve"/>
      <point x="374" y="198"/>
      <point x="401" y="323"/>
      <point x="446" y="475"/>
      <point x="468" y="547"/>
      <point x="533" y="739"/>
      <point x="539" y="757" type="qcurve"/>
      <point x="540" y="762"/>
      <point x="543" y="764" type="qcurve"/>
      <point x="561" y="788" type="line"/>
      <point x="569" y="799"/>
    </contour>
  </outline>
</glyph>
<glyph name="U" format="2">
  <advance width="827"/>
  <unicode hex="0055"/>
  <outline>
    <contour>
      <point x="276" y="736" type="qcurve"/>
      <point x="291" y="736"/>
      <point x="310" y="697"/>
      <point x="310" y="673" type="qcurve"/>
      <point x="310" y="624"/>
      <point x="288" y="434"/>
      <point x="288" y="385" type="qcurve"/>
      <point x="288" y="-23"/>
      <point x="430" y="-23" type="qcurve"/>
      <point x="527" y="-23"/>
      <point x="585" y="81" type="qcurve"/>
      <point x="585" y="82"/>
      <point x="587" y="82" type="qcurve"/>
      <point x="590" y="82"/>
      <point x="610" y="48"/>
      <point x="630" y="11"/>
      <point x="632" y="9" type="qcurve"/>
      <point x="658" y="-17"/>
      <point x="699" y="-17" type="qcurve"/>
      <point x="744" y="-17"/>
      <point x="754" y="0" type="qcurve"/>
      <point x="770" y="28" type="line"/>
      <point x="772" y="31"/>
      <point x="772" y="39" type="qcurve"/>
      <point x="772" y="48"/>
      <point x="759" y="61"/>
      <point x="750" y="61" type="qcurve"/>
      <point x="737" y="61"/>
      <point x="730" y="50" type="qcurve"/>
      <point x="720" y="31" type="line"/>
      <point x="718" y="28"/>
      <point x="698" y="28" type="qcurve"/>
      <point x="668" y="28"/>
      <point x="614" y="112"/>
      <point x="614" y="146" type="qcurve"/>
      <point x="614" y="186"/>
      <point x="655" y="388"/>
      <point x="655" y="447" type="qcurve"/>
      <point x="655" y="563"/>
      <point x="622" y="803"/>
      <point x="585" y="803" type="qcurve"/>
      <point x="568" y="803"/>
      <point x="545" y="712"/>
      <point x="535" y="571"/>
      <point x="532" y="473"/>
      <point x="532" y="431" type="qcurve"/>
      <point x="532" y="265"/>
      <point x="566" y="148" type="qcurve"/>
      <point x="566" y="147" type="line"/>
      <point x="566" y="102"/>
      <point x="475" y="21"/>
      <point x="430" y="21" type="qcurve"/>
      <point x="400" y="21"/>
      <point x="357" y="108"/>
      <point x="340" y="241"/>
      <point x="333" y="342"/>
      <point x="333" y="385" type="qcurve"/>
      <point x="333" y="434"/>
      <point x="354" y="624"/>
      <point x="354" y="673" type="qcurve"/>
      <point x="354" y="716"/>
      <point x="314" y="781"/>
      <point x="277" y="781" type="qcurve"/>
      <point x="259" y="781"/>
      <point x="233" y="758"/>
      <point x="220" y="731"/>
      <point x="198" y="708"/>
      <point x="183" y="708" type="qcurve"/>
      <point x="158" y="708"/>
      <point x="102" y="749"/>
      <point x="99" y="774" type="qcurve"/>
      <point x="97" y="793"/>
      <point x="77" y="793" type="qcurve"/>
      <point x="68" y="793"/>
      <point x="55" y="780"/>
      <point x="55" y="771" type="qcurve"/>
      <point x="55" y="728"/>
      <point x="139" y="663"/>
      <point x="182" y="663" type="qcurve"/>
      <point x="203" y="663"/>
      <point x="231" y="686"/>
      <point x="243" y="713"/>
      <point x="263" y="736"/>
    </contour>
    <contour>
      <point x="277" y="786" type="qcurve"/>
      <point x="316" y="786"/>
      <point x="359" y="718"/>
      <point x="359" y="673" type="qcurve"/>
      <point x="359" y="624"/>
      <point x="338" y="434"/>
      <point x="338" y="385" type="qcurve"/>
      <point x="338" y="355"/>
      <point x="341" y="280"/>
      <point x="353" y="172"/>
      <point x="371" y="87"/>
      <point x="407" y="26"/>
      <point x="430" y="26" type="qcurve"/>
      <point x="515" y="26"/>
      <point x="561" y="147" type="qcurve"/>
      <point x="527" y="264"/>
      <point x="527" y="431" type="qcurve"/>
      <point x="527" y="478"/>
      <point x="530" y="574"/>
      <point x="540" y="718"/>
      <point x="566" y="808"/>
      <point x="585" y="808" type="qcurve"/>
      <point x="607" y="808"/>
      <point x="639" y="727"/>
      <point x="654" y="603"/>
      <point x="660" y="495"/>
      <point x="660" y="447" type="qcurve"/>
      <point x="660" y="268"/>
      <point x="619" y="146" type="qcurve"/>
      <point x="619" y="145"/>
      <point x="627" y="120"/>
      <point x="630" y="112"/>
      <point x="638" y="88"/>
      <point x="644" y="77"/>
      <point x="654" y="58"/>
      <point x="663" y="49"/>
      <point x="676" y="38"/>
      <point x="690" y="33"/>
      <point x="698" y="33" type="qcurve"/>
      <point x="704" y="33"/>
      <point x="716" y="35" type="qcurve"/>
      <point x="726" y="53" type="line"/>
      <point x="734" y="66"/>
      <point x="750" y="66" type="qcurve"/>
      <point x="761" y="66"/>
      <point x="777" y="50"/>
      <point x="777" y="39" type="qcurve"/>
      <point x="777" y="31"/>
      <point x="774" y="25" type="qcurve"/>
      <point x="758" y="-3" type="line"/>
      <point x="747" y="-22"/>
      <point x="699" y="-22" type="qcurve"/>
      <point x="657" y="-22"/>
      <point x="607" y="29"/>
      <point x="587" y="74" type="qcurve"/>
      <point x="527" y="-28"/>
      <point x="430" y="-28" type="qcurve"/>
      <point x="283" y="-28"/>
      <point x="283" y="385" type="qcurve"/>
      <point x="283" y="434"/>
      <point x="305" y="624"/>
      <point x="305" y="673" type="qcurve"/>
      <point x="305" y="695"/>
      <point x="289" y="731"/>
      <point x="276" y="731" type="qcurve"/>
      <point x="270" y="731"/>
      <point x="257" y="710"/>
      <point x="243" y="683"/>
      <point x="240" y="680" type="qcurve"/>
      <point x="218" y="658"/>
      <point x="182" y="658" type="qcurve"/>
      <point x="136" y="658"/>
      <point x="50" y="726"/>
      <point x="50" y="771" type="qcurve"/>
      <point x="50" y="782"/>
      <point x="66" y="798"/>
      <point x="77" y="798" type="qcurve"/>
      <point x="95" y="798"/>
      <point x="119" y="744"/>
      <point x="123" y="740" type="qcurve"/>
      <point x="150" y="713"/>
      <point x="183" y="713" type="qcurve"/>
      <point x="196" y="713"/>
      <point x="218" y="736"/>
      <point x="231" y="763"/>
      <point x="259" y="786"/>
    </contour>
  </outline>
</glyph>
<glyph name="bracketright" format="2">
  <advance width="256"/>
  <unicode hex="005D"/>
  <outline>
    <contour>
      <point x="55" y="-193"/>
      <point x="55" y="-211"/>
      <point x="68" y="-224"/>
      <point x="77" y="-224" type="qcurve"/>
      <point x="179" y="-224" type="line"/>
      <point x="188" y="-224"/>
      <point x="201" y="-211"/>
      <point x="201" y="-202" type="qcurve"/>
      <point x="201" y="818" type="line"/>
      <point x="201" y="827"/>
      <point x="188" y="840"/>
      <point x="179" y="840" type="qcurve"/>
      <point x="77" y="840" type="line"/>
      <point x="68" y="840"/>
      <point x="55" y="827"/>
      <point x="55" y="809"/>
      <point x="68" y="796"/>
      <point x="77" y="796" type="qcurve"/>
      <point x="154" y="796" type="line"/>
      <point x="157" y="796"/>
      <point x="157" y="793" type="qcurve"/>
      <point x="157" y="-177" type="line"/>
      <point x="157" y="-180"/>
      <point x="154" y="-180" type="qcurve"/>
      <point x="77" y="-180" type="line"/>
      <point x="68" y="-180"/>
    </contour>
    <contour>
      <point x="206" y="-202" type="line"/>
      <point x="206" y="-213"/>
      <point x="190" y="-229"/>
      <point x="179" y="-229" type="qcurve"/>
      <point x="77" y="-229" type="line"/>
      <point x="66" y="-229"/>
      <point x="50" y="-213"/>
      <point x="50" y="-191"/>
      <point x="66" y="-175"/>
      <point x="77" y="-175" type="qcurve"/>
      <point x="152" y="-175" type="line"/>
      <point x="152" y="791" type="line"/>
      <point x="77" y="791" type="line"/>
      <point x="66" y="791"/>
      <point x="50" y="807"/>
      <point x="50" y="829"/>
      <point x="66" y="845"/>
      <point x="77" y="845" type="qcurve"/>
      <point x="179" y="845" type="line"/>
      <point x="190" y="845"/>
      <point x="206" y="829"/>
      <point x="206" y="818" type="qcurve"/>
    </contour>
  </outline>
</glyph>
<glyph name="f" format="2">
  <advance width="446"/>
  <unicode hex="0066"/>
  <outline>
    <contour>
      <point x="160" y="236" type="qcurve"/>
      <point x="164" y="232"/>
      <point x="177" y="216"/>
      <point x="184" y="209"/>
      <point x="201" y="202"/>
      <point x="212" y="202" type="qcurve"/>
      <point x="237" y="202"/>
      <point x="246" y="216" type="qcurve"/>
      <point x="246" y="234"/>
      <point x="218" y="265"/>
      <point x="203" y="265" type="qcurve"/>
      <point x="193" y="265"/>
      <point x="177" y="255"/>
      <point x="162" y="238"/>
    </contour>
    <contour>
      <point x="154" y="236" type="qcurve"/>
      <point x="154" y="244"/>
      <point x="192" y="270"/>
      <point x="203" y="270" type="qcurve"/>
      <point x="220" y="270"/>
      <point x="251" y="236"/>
      <point x="251" y="216" type="qcurve"/>
      <point x="251" y="197"/>
      <point x="212" y="197" type="qcurve"/>
      <point x="195" y="197"/>
      <point x="158" y="226"/>
      <point x="160" y="236" type="qcurve"/>
      <point x="154" y="235"/>
    </contour>
    <contour>
      <point x="128" y="290" type="line"/>
      <point x="128" y="299"/>
      <point x="130" y="340"/>
      <point x="130" y="350" type="qcurve"/>
      <point x="130" y="370"/>
      <point x="129" y="452"/>
      <point x="129" y="472" type="qcurve"/>
      <point x="129" y="561"/>
      <point x="140" y="622" type="qcurve"/>
      <point x="140" y="626"/>
      <point x="139" y="644"/>
      <point x="139" y="648" type="qcurve"/>
      <point x="139" y="675"/>
      <point x="146" y="730"/>
      <point x="172" y="783"/>
      <point x="193" y="783" type="qcurve"/>
      <point x="255" y="783"/>
      <point x="255" y="684" type="qcurve"/>
      <point x="255" y="674"/>
      <point x="252" y="630"/>
      <point x="252" y="619" type="qcurve"/>
      <point x="252" y="607"/>
      <point x="255" y="559"/>
      <point x="255" y="547" type="qcurve"/>
      <point x="255" y="419"/>
      <point x="212" y="314" type="qcurve"/>
      <point x="244" y="303"/>
      <point x="287" y="236"/>
      <point x="295" y="198" type="qcurve"/>
      <point x="359" y="183" type="line"/>
      <point x="420" y="173" type="line"/>
      <point x="443" y="169"/>
      <point x="443" y="146" type="qcurve"/>
      <point x="443" y="135"/>
      <point x="426" y="118"/>
      <point x="415" y="118" type="qcurve"/>
      <point x="411" y="118" type="line"/>
      <point x="349" y="128" type="line"/>
      <point x="348" y="128"/>
      <point x="348" y="128" type="qcurve"/>
      <point x="346" y="129" type="line"/>
      <point x="298" y="141" type="line"/>
      <point x="298" y="137" type="line"/>
      <point x="298" y="128" type="line"/>
      <point x="298" y="81"/>
      <point x="255" y="-4"/>
      <point x="215" y="-4" type="qcurve"/>
      <point x="199" y="-4"/>
      <point x="174" y="14"/>
      <point x="157" y="53"/>
      <point x="146" y="83"/>
      <point x="137" y="142"/>
      <point x="135" y="159"/>
      <point x="132" y="186" type="qcurve"/>
      <point x="131" y="185"/>
      <point x="115" y="167"/>
      <point x="108" y="159"/>
      <point x="90" y="141"/>
      <point x="78" y="131"/>
      <point x="60" y="117"/>
      <point x="46" y="110"/>
      <point x="30" y="104"/>
      <point x="23" y="104" type="qcurve"/>
      <point x="12" y="104"/>
      <point x="-4" y="121"/>
      <point x="-4" y="132" type="qcurve"/>
      <point x="-4" y="150"/>
      <point x="37" y="187"/>
      <point x="87" y="213"/>
      <point x="128" y="253"/>
      <point x="128" y="275" type="qcurve"/>
      <point x="128" y="286" type="line"/>
    </contour>
    <contour>
      <point x="250" y="547" type="qcurve"/>
      <point x="250" y="559"/>
      <point x="247" y="607"/>
      <point x="247" y="619" type="qcurve"/>
      <point x="247" y="630"/>
      <point x="250" y="674"/>
      <point x="250" y="684" type="qcurve"/>
      <point x="250" y="778"/>
      <point x="193" y="778" type="qcurve"/>
      <point x="167" y="778"/>
      <point x="144" y="692"/>
      <point x="144" y="648" type="qcurve"/>
      <point x="144" y="644"/>
      <point x="145" y="626"/>
      <point x="145" y="622" type="qcurve"/>
      <point x="145" y="597"/>
      <point x="134" y="497"/>
      <point x="134" y="472" type="qcurve"/>
      <point x="134" y="452"/>
      <point x="135" y="370"/>
      <point x="135" y="350" type="qcurve"/>
      <point x="135" y="340"/>
      <point x="133" y="299"/>
      <point x="133" y="290" type="qcurve"/>
      <point x="133" y="286" type="line"/>
      <point x="133" y="275" type="line"/>
      <point x="133" y="250"/>
      <point x="67" y="196"/>
      <point x="1" y="149"/>
      <point x="1" y="132" type="qcurve"/>
      <point x="1" y="123"/>
      <point x="14" y="109"/>
      <point x="23" y="109" type="qcurve"/>
      <point x="45" y="109"/>
      <point x="125" y="194"/>
      <point x="134" y="194" type="qcurve"/>
      <point x="141" y="194"/>
      <point x="152" y="98"/>
      <point x="184" y="1"/>
      <point x="215" y="1" type="qcurve"/>
      <point x="252" y="1"/>
      <point x="293" y="83"/>
      <point x="293" y="128" type="qcurve"/>
      <point x="293" y="137" type="line"/>
      <point x="293" y="144" type="line"/>
      <point x="293" y="147"/>
      <point x="296" y="147" type="qcurve"/>
      <point x="348" y="134" type="line"/>
      <point x="349" y="134" type="line"/>
      <point x="350" y="133" type="line"/>
      <point x="412" y="123" type="line"/>
      <point x="415" y="123" type="line"/>
      <point x="424" y="123"/>
      <point x="438" y="137"/>
      <point x="438" y="146" type="qcurve"/>
      <point x="438" y="164"/>
      <point x="419" y="168" type="qcurve"/>
      <point x="358" y="178" type="line"/>
      <point x="292" y="194" type="line"/>
      <point x="290" y="194"/>
      <point x="283" y="217"/>
      <point x="275" y="243"/>
      <point x="274" y="245" type="qcurve"/>
      <point x="241" y="300"/>
      <point x="208" y="310" type="qcurve"/>
      <point x="206" y="310"/>
      <point x="206" y="312" type="qcurve"/>
      <point x="207" y="313" type="line"/>
      <point x="250" y="414"/>
    </contour>
    <contour>
      <point x="199" y="703" type="qcurve"/>
      <point x="217" y="703"/>
      <point x="217" y="624" type="qcurve"/>
      <point x="217" y="595" type="line"/>
      <point x="217" y="580" type="line"/>
      <point x="217" y="555"/>
      <point x="195" y="455"/>
      <point x="195" y="431" type="qcurve"/>
      <point x="195" y="416"/>
      <point x="184" y="378"/>
      <point x="175" y="378" type="qcurve"/>
      <point x="163" y="378"/>
      <point x="163" y="397" type="qcurve"/>
      <point x="163" y="403"/>
      <point x="170" y="429"/>
      <point x="170" y="435" type="qcurve"/>
      <point x="170" y="451"/>
      <point x="163" y="516"/>
      <point x="163" y="533" type="qcurve"/>
      <point x="163" y="545"/>
      <point x="168" y="590"/>
      <point x="168" y="601" type="qcurve"/>
      <point x="168" y="621"/>
      <point x="187" y="703"/>
    </contour>
    <contour>
      <point x="168" y="533" type="qcurve"/>
      <point x="168" y="516"/>
      <point x="175" y="451"/>
      <point x="175" y="435" type="qcurve"/>
      <point x="175" y="428"/>
      <point x="168" y="403"/>
      <point x="168" y="397" type="qcurve"/>
      <point x="168" y="383"/>
      <point x="175" y="383" type="qcurve"/>
      <point x="181" y="383"/>
      <point x="190" y="420"/>
      <point x="190" y="431" type="qcurve"/>
      <point x="190" y="455"/>
      <point x="212" y="555"/>
      <point x="212" y="580" type="qcurve"/>
      <point x="212" y="595" type="line"/>
      <point x="212" y="624" type="line"/>
      <point x="212" y="672"/>
      <point x="198" y="697" type="qcurve"/>
      <point x="168" y="661"/>
    </contour>
    <contour>
      <point x="211" y="29" type="qcurve"/>
      <point x="194" y="29"/>
      <point x="166" y="109"/>
      <point x="166" y="135" type="qcurve"/>
      <point x="166" y="138" type="line"/>
      <point x="166" y="145"/>
      <point x="158" y="165"/>
      <point x="158" y="172" type="qcurve"/>
      <point x="158" y="174"/>
      <point x="161" y="174" type="qcurve"/>
      <point x="170" y="174"/>
      <point x="227" y="140"/>
      <point x="241" y="138" type="qcurve"/>
      <point x="247" y="138" type="line"/>
      <point x="250" y="138"/>
      <point x="271" y="150"/>
      <point x="279" y="150"/>
      <point x="279" y="136" type="qcurve"/>
      <point x="279" y="134"/>
      <point x="274" y="130"/>
      <point x="274" y="127" type="qcurve"/>
      <point x="274" y="109"/>
      <point x="229" y="29"/>
    </contour>
    <contour>
      <point x="211" y="34" type="qcurve"/>
      <point x="226" y="34"/>
      <point x="270" y="112"/>
      <point x="270" y="127" type="qcurve"/>
      <point x="270" y="131"/>
      <point x="272" y="135" type="qcurve"/>
      <point x="271" y="135" type="line"/>
      <point x="268" y="135"/>
      <point x="250" y="133"/>
      <point x="247" y="133" type="qcurve"/>
      <point x="241" y="133" type="line"/>
      <point x="213" y="133"/>
      <point x="164" y="166" type="qcurve"/>
      <point x="164" y="165"/>
      <point x="171" y="144"/>
      <point x="171" y="138" type="qcurve"/>
      <point x="171" y="135" type="line"/>
      <point x="171" y="113"/>
      <point x="197" y="34"/>
    </contour>
  </outline>
</glyph>
<glyph name="k" format="2">
  <advance width="478"/>
  <unicode hex="006B"/>
  <outline>
    <contour>
      <point x="29" y="61" type="qcurve"/>
      <point x="16" y="61"/>
      <point x="0" y="80"/>
      <point x="0" y="94" type="qcurve"/>
      <point x="0" y="100"/>
      <point x="3" y="106" type="qcurve"/>
      <point x="95" y="289"/>
      <point x="116" y="485" type="qcurve"/>
      <point x="87" y="637"/>
      <point x="87" y="685" type="qcurve"/>
      <point x="87" y="728"/>
      <point x="110" y="813"/>
      <point x="139" y="813" type="qcurve"/>
      <point x="152" y="813"/>
      <point x="169" y="798"/>
      <point x="175" y="767"/>
      <point x="176" y="746"/>
      <point x="176" y="726" type="qcurve"/>
      <point x="176" y="720"/>
      <point x="176" y="718" type="qcurve"/>
      <point x="176" y="706"/>
      <point x="175" y="676"/>
      <point x="175" y="670" type="qcurve"/>
      <point x="177" y="624"/>
      <point x="177" y="603" type="qcurve"/>
      <point x="177" y="545"/>
      <point x="171" y="488" type="qcurve"/>
      <point x="185" y="418"/>
      <point x="185" y="374" type="qcurve"/>
      <point x="185" y="344" type="line"/>
      <point x="245" y="429"/>
      <point x="317" y="429" type="qcurve"/>
      <point x="363" y="429"/>
      <point x="416" y="337"/>
      <point x="416" y="287" type="qcurve"/>
      <point x="416" y="284"/>
      <point x="415" y="273"/>
      <point x="415" y="271" type="qcurve"/>
      <point x="416" y="265"/>
      <point x="416" y="254" type="qcurve"/>
      <point x="416" y="200"/>
      <point x="343" y="124"/>
      <point x="290" y="124" type="qcurve"/>
      <point x="274" y="124"/>
      <point x="266" y="126" type="qcurve"/>
      <point x="253" y="126" type="line"/>
      <point x="249" y="126" type="line"/>
      <point x="252" y="120"/>
      <point x="268" y="84"/>
      <point x="273" y="75"/>
      <point x="289" y="51"/>
      <point x="301" y="44"/>
      <point x="323" y="32"/>
      <point x="351" y="29"/>
      <point x="369" y="29" type="qcurve"/>
      <point x="389" y="29"/>
      <point x="414" y="82" type="qcurve"/>
      <point x="427" y="108" type="line"/>
      <point x="434" y="123"/>
      <point x="451" y="123" type="qcurve"/>
      <point x="462" y="123"/>
      <point x="479" y="107"/>
      <point x="479" y="96" type="qcurve"/>
      <point x="479" y="90"/>
      <point x="476" y="84" type="qcurve"/>
      <point x="462" y="56" type="line"/>
      <point x="453" y="39"/>
      <point x="441" y="18"/>
      <point x="418" y="-11"/>
      <point x="387" y="-25"/>
      <point x="369" y="-25" type="qcurve"/>
      <point x="300" y="-25"/>
      <point x="230" y="36"/>
      <point x="199" y="102" type="qcurve"/>
      <point x="201" y="56"/>
      <point x="201" y="44" type="qcurve"/>
      <point x="201" y="17"/>
      <point x="200" y="9" type="qcurve"/>
      <point x="200" y="8" type="line"/>
      <point x="198" y="-28"/>
      <point x="170" y="-28" type="qcurve"/>
      <point x="162" y="-28"/>
      <point x="151" y="-23"/>
      <point x="144" y="-11"/>
      <point x="140" y="-1"/>
      <point x="139" y="19"/>
      <point x="139" y="30"/>
      <point x="139" y="55"/>
      <point x="139" y="59" type="qcurve"/>
      <point x="139" y="97"/>
      <point x="142" y="154" type="qcurve"/>
      <point x="142" y="159"/>
      <point x="138" y="189"/>
      <point x="138" y="196" type="qcurve"/>
      <point x="138" y="202"/>
      <point x="139" y="204" type="qcurve"/>
      <point x="138" y="218"/>
      <point x="134" y="275"/>
      <point x="133" y="289" type="qcurve"/>
      <point x="104" y="185"/>
      <point x="57" y="91" type="qcurve"/>
      <point x="57" y="88" type="line"/>
      <point x="57" y="77"/>
      <point x="40" y="61"/>
    </contour>
    <contour>
      <point x="411" y="254" type="qcurve"/>
      <point x="411" y="256"/>
      <point x="410" y="268"/>
      <point x="410" y="271" type="qcurve"/>
      <point x="410" y="273"/>
      <point x="411" y="284"/>
      <point x="411" y="287" type="qcurve"/>
      <point x="411" y="335"/>
      <point x="361" y="424"/>
      <point x="317" y="424" type="qcurve"/>
      <point x="244" y="424"/>
      <point x="185" y="335" type="qcurve"/>
      <point x="185" y="334"/>
      <point x="183" y="334" type="qcurve"/>
      <point x="180" y="334"/>
      <point x="180" y="374" type="qcurve"/>
      <point x="180" y="391"/>
      <point x="166" y="467"/>
      <point x="166" y="488" type="qcurve"/>
      <point x="166" y="507"/>
      <point x="172" y="583"/>
      <point x="172" y="603" type="qcurve"/>
      <point x="172" y="624"/>
      <point x="171" y="695"/>
      <point x="171" y="718" type="qcurve"/>
      <point x="171" y="721"/>
      <point x="171" y="740"/>
      <point x="171" y="748"/>
      <point x="170" y="766"/>
      <point x="169" y="775"/>
      <point x="166" y="789"/>
      <point x="161" y="797"/>
      <point x="154" y="805"/>
      <point x="145" y="808"/>
      <point x="139" y="808" type="qcurve"/>
      <point x="113" y="808"/>
      <point x="92" y="725"/>
      <point x="92" y="685" type="qcurve"/>
      <point x="92" y="652"/>
      <point x="121" y="516"/>
      <point x="121" y="485" type="qcurve"/>
      <point x="121" y="328"/>
      <point x="7" y="104" type="qcurve"/>
      <point x="5" y="101"/>
      <point x="5" y="94" type="qcurve"/>
      <point x="5" y="83"/>
      <point x="19" y="66"/>
      <point x="29" y="66" type="qcurve"/>
      <point x="38" y="66"/>
      <point x="52" y="79"/>
      <point x="52" y="88" type="qcurve"/>
      <point x="52" y="92" type="line"/>
      <point x="52" y="99"/>
      <point x="94" y="207"/>
      <point x="114" y="257" type="qcurve"/>
      <point x="135" y="307" type="line"/>
      <point x="138" y="307"/>
      <point x="144" y="218"/>
      <point x="144" y="204" type="qcurve"/>
      <point x="144" y="202"/>
      <point x="143" y="198"/>
      <point x="143" y="196" type="qcurve"/>
      <point x="143" y="190"/>
      <point x="147" y="161"/>
      <point x="147" y="154" type="qcurve"/>
      <point x="147" y="134"/>
      <point x="144" y="70"/>
      <point x="144" y="59" type="qcurve"/>
      <point x="144" y="54"/>
      <point x="143" y="33"/>
      <point x="144" y="21"/>
      <point x="145" y="3"/>
      <point x="148" y="-7"/>
      <point x="154" y="-18"/>
      <point x="163" y="-23"/>
      <point x="170" y="-23" type="qcurve"/>
      <point x="193" y="-23"/>
      <point x="195" y="9" type="qcurve"/>
      <point x="196" y="17"/>
      <point x="196" y="44" type="qcurve"/>
      <point x="196" y="56"/>
      <point x="194" y="114" type="qcurve"/>
      <point x="194" y="117"/>
      <point x="196" y="117" type="qcurve"/>
      <point x="200" y="117"/>
      <point x="226" y="71"/>
      <point x="250" y="21"/>
      <point x="253" y="18" type="qcurve"/>
      <point x="291" y="-20"/>
      <point x="369" y="-20" type="qcurve"/>
      <point x="391" y="-20"/>
      <point x="429" y="8"/>
      <point x="447" y="36"/>
      <point x="458" y="58" type="qcurve"/>
      <point x="472" y="86" type="line"/>
      <point x="474" y="89"/>
      <point x="474" y="96" type="qcurve"/>
      <point x="474" y="105"/>
      <point x="460" y="118"/>
      <point x="451" y="118" type="qcurve"/>
      <point x="436" y="118"/>
      <point x="431" y="106" type="qcurve"/>
      <point x="418" y="80" type="line"/>
      <point x="417" y="79"/>
      <point x="411" y="66"/>
      <point x="408" y="61"/>
      <point x="401" y="48"/>
      <point x="397" y="42"/>
      <point x="389" y="32"/>
      <point x="382" y="28"/>
      <point x="373" y="24"/>
      <point x="369" y="24" type="qcurve"/>
      <point x="318" y="24"/>
      <point x="243" y="83"/>
      <point x="243" y="129" type="qcurve"/>
      <point x="243" y="131"/>
      <point x="253" y="131" type="qcurve"/>
      <point x="266" y="131" type="line"/>
      <point x="270" y="131"/>
      <point x="286" y="129"/>
      <point x="290" y="129" type="qcurve"/>
      <point x="341" y="129"/>
      <point x="411" y="203"/>
    </contour>
    <contour>
      <point x="309" y="369" type="qcurve"/>
      <point x="320" y="369"/>
      <point x="333" y="338"/>
      <point x="333" y="324" type="qcurve"/>
      <point x="333" y="309"/>
      <point x="353" y="252"/>
      <point x="353" y="236" type="qcurve"/>
      <point x="353" y="226"/>
      <point x="352" y="221" type="qcurve"/>
      <point x="353" y="215"/>
      <point x="353" y="205" type="qcurve"/>
      <point x="353" y="164"/>
      <point x="306" y="164" type="qcurve"/>
      <point x="244" y="164"/>
      <point x="218" y="220" type="qcurve"/>
      <point x="203" y="253" type="line"/>
      <point x="202" y="254" type="line"/>
      <point x="203" y="255" type="line"/>
      <point x="209" y="274" type="line"/>
      <point x="219" y="305"/>
      <point x="278" y="369"/>
    </contour>
    <contour>
      <point x="346" y="218"/>
      <point x="346" y="224"/>
      <point x="348" y="234"/>
      <point x="348" y="236" type="qcurve"/>
      <point x="348" y="251"/>
      <point x="328" y="308"/>
      <point x="328" y="324" type="qcurve"/>
      <point x="328" y="325" type="line"/>
      <point x="326" y="329"/>
      <point x="322" y="351"/>
      <point x="316" y="364"/>
      <point x="309" y="364" type="qcurve"/>
      <point x="308" y="364"/>
      <point x="303" y="362"/>
      <point x="301" y="362" type="qcurve"/>
      <point x="260" y="362"/>
      <point x="213" y="272" type="qcurve"/>
      <point x="208" y="254" type="line"/>
      <point x="222" y="222" type="line"/>
      <point x="225" y="218"/>
      <point x="238" y="200"/>
      <point x="243" y="194"/>
      <point x="254" y="182"/>
      <point x="263" y="177"/>
      <point x="278" y="171"/>
      <point x="295" y="169"/>
      <point x="306" y="169" type="qcurve"/>
      <point x="348" y="169"/>
      <point x="348" y="205" type="qcurve"/>
      <point x="348" y="207"/>
    </contour>
  </outline>
</glyph>
<glyph name="l" format="2">
  <advance width="346"/>
  <unicode hex="006C"/>
  <outline>
    <contour>
      <point x="203" y="575" type="qcurve"/>
      <point x="203" y="586"/>
      <point x="201" y="629"/>
      <point x="201" y="651"/>
      <point x="202" y="694"/>
      <point x="202" y="706" type="qcurve"/>
      <point x="202" y="742"/>
      <point x="200" y="759" type="qcurve"/>
      <point x="171" y="606"/>
      <point x="171" y="438" type="qcurve"/>
      <point x="171" y="395"/>
      <point x="174" y="353" type="qcurve"/>
      <point x="203" y="450"/>
    </contour>
    <contour>
      <point x="201" y="776" type="qcurve"/>
      <point x="207" y="776"/>
      <point x="207" y="706" type="qcurve"/>
      <point x="207" y="694"/>
      <point x="206" y="651"/>
      <point x="206" y="629"/>
      <point x="208" y="586"/>
      <point x="208" y="575" type="qcurve"/>
      <point x="208" y="524"/>
      <point x="189" y="337"/>
      <point x="172" y="337" type="qcurve"/>
      <point x="166" y="337"/>
      <point x="166" y="438" type="qcurve"/>
      <point x="166" y="498"/>
      <point x="187" y="776"/>
    </contour>
    <contour>
      <point x="237" y="-31" type="qcurve"/>
      <point x="273" y="-31"/>
      <point x="342" y="59"/>
      <point x="342" y="92" type="qcurve"/>
      <point x="342" y="101"/>
      <point x="328" y="114"/>
      <point x="319" y="114" type="qcurve"/>
      <point x="305" y="114"/>
      <point x="285" y="83"/>
      <point x="275" y="45"/>
      <point x="254" y="14"/>
      <point x="240" y="14" type="qcurve"/>
      <point x="223" y="14"/>
      <point x="181" y="200"/>
      <point x="181" y="237" type="qcurve"/>
      <point x="182" y="238" type="line"/>
      <point x="253" y="373"/>
      <point x="253" y="573" type="qcurve"/>
      <point x="253" y="584"/>
      <point x="251" y="628"/>
      <point x="251" y="638" type="qcurve"/>
      <point x="251" y="649"/>
      <point x="253" y="694"/>
      <point x="253" y="706" type="qcurve"/>
      <point x="253" y="734"/>
      <point x="250" y="772"/>
      <point x="240" y="821"/>
      <point x="215" y="847"/>
      <point x="195" y="847" type="qcurve"/>
      <point x="170" y="847"/>
      <point x="137" y="748"/>
      <point x="125" y="590"/>
      <point x="121" y="488"/>
      <point x="121" y="438" type="qcurve"/>
      <point x="121" y="404"/>
      <point x="134" y="278"/>
      <point x="134" y="247" type="qcurve"/>
      <point x="134" y="228"/>
      <point x="94" y="184"/>
      <point x="45" y="150"/>
      <point x="5" y="112"/>
      <point x="5" y="99" type="qcurve"/>
      <point x="5" y="93" type="line"/>
      <point x="5" y="84"/>
      <point x="18" y="71"/>
      <point x="27" y="71" type="qcurve"/>
      <point x="42" y="71"/>
      <point x="91" y="123"/>
      <point x="135" y="176"/>
      <point x="151" y="176"/>
      <point x="165" y="111"/>
      <point x="177" y="34"/>
      <point x="211" y="-31"/>
    </contour>
    <contour>
      <point x="195" y="852" type="qcurve"/>
      <point x="216" y="852"/>
      <point x="244" y="825"/>
      <point x="255" y="775"/>
      <point x="258" y="735"/>
      <point x="258" y="706" type="qcurve"/>
      <point x="258" y="693"/>
      <point x="256" y="649"/>
      <point x="256" y="638" type="qcurve"/>
      <point x="256" y="628"/>
      <point x="258" y="584"/>
      <point x="258" y="573" type="qcurve"/>
      <point x="258" y="373"/>
      <point x="186" y="237" type="qcurve"/>
      <point x="187" y="232"/>
      <point x="194" y="182"/>
      <point x="197" y="161"/>
      <point x="205" y="115"/>
      <point x="212" y="88"/>
      <point x="222" y="54"/>
      <point x="234" y="28"/>
      <point x="241" y="19" type="qcurve"/>
      <point x="254" y="25"/>
      <point x="298" y="119"/>
      <point x="319" y="119" type="qcurve"/>
      <point x="330" y="119"/>
      <point x="347" y="103"/>
      <point x="347" y="92" type="qcurve"/>
      <point x="347" y="57"/>
      <point x="275" y="-36"/>
      <point x="237" y="-36" type="qcurve"/>
      <point x="223" y="-36"/>
      <point x="198" y="-22"/>
      <point x="180" y="10"/>
      <point x="168" y="36"/>
      <point x="156" y="86"/>
      <point x="151" y="109"/>
      <point x="143" y="164"/>
      <point x="142" y="167" type="qcurve"/>
      <point x="62" y="66"/>
      <point x="27" y="66" type="qcurve"/>
      <point x="16" y="66"/>
      <point x="0" y="82"/>
      <point x="0" y="93" type="qcurve"/>
      <point x="0" y="99" type="line"/>
      <point x="0" y="113"/>
      <point x="12" y="122" type="qcurve"/>
      <point x="84" y="169"/>
      <point x="129" y="248" type="qcurve"/>
      <point x="116" y="350"/>
      <point x="116" y="438" type="qcurve"/>
      <point x="116" y="492"/>
      <point x="120" y="592"/>
      <point x="133" y="754"/>
      <point x="168" y="852"/>
    </contour>
  </outline>
</glyph>
<glyph name="n" format="2">
  <advance width="532"/>
  <unicode hex="006E"/>
  <outline>
    <contour>
      <point x="427" y="-24" type="qcurve"/>
      <point x="460" y="-24"/>
      <point x="528" y="59"/>
      <point x="528" y="90" type="qcurve"/>
      <point x="528" y="99"/>
      <point x="514" y="112"/>
      <point x="505" y="112" type="qcurve"/>
      <point x="494" y="112"/>
      <point x="487" y="102" type="qcurve"/>
      <point x="469" y="74" type="line"/>
      <point x="466" y="69"/>
      <point x="453" y="37"/>
      <point x="439" y="20"/>
      <point x="427" y="20" type="qcurve"/>
      <point x="421" y="20"/>
      <point x="420" y="79"/>
      <point x="428" y="167"/>
      <point x="438" y="253"/>
      <point x="446" y="319"/>
      <point x="446" y="322" type="qcurve"/>
      <point x="446" y="325" type="line"/>
      <point x="438" y="381" type="line"/>
      <point x="436" y="398"/>
      <point x="393" y="436"/>
      <point x="373" y="436" type="qcurve"/>
      <point x="351" y="436"/>
      <point x="318" y="425"/>
      <point x="288" y="396"/>
      <point x="276" y="380"/>
      <point x="262" y="360" type="qcurve"/>
      <point x="262" y="359"/>
      <point x="260" y="359" type="qcurve"/>
      <point x="254" y="359"/>
      <point x="220" y="430"/>
      <point x="197" y="430" type="qcurve"/>
      <point x="189" y="430"/>
      <point x="175" y="426"/>
      <point x="163" y="415"/>
      <point x="157" y="409"/>
      <point x="145" y="393"/>
      <point x="144" y="392" type="qcurve"/>
      <point x="118" y="361"/>
      <point x="74" y="281"/>
      <point x="54" y="232"/>
      <point x="13" y="118"/>
      <point x="6" y="100" type="qcurve"/>
      <point x="5" y="97"/>
      <point x="5" y="92" type="qcurve"/>
      <point x="5" y="83"/>
      <point x="18" y="70"/>
      <point x="27" y="70" type="qcurve"/>
      <point x="35" y="70"/>
      <point x="48" y="82"/>
      <point x="58" y="103"/>
      <point x="64" y="121"/>
      <point x="71" y="146"/>
      <point x="72" y="149" type="qcurve"/>
      <point x="116" y="273"/>
      <point x="144" y="319" type="qcurve"/>
      <point x="166" y="357"/>
      <point x="194" y="382" type="qcurve"/>
      <point x="195" y="383"/>
      <point x="196" y="383" type="qcurve"/>
      <point x="200" y="383"/>
      <point x="219" y="341"/>
      <point x="220" y="334" type="qcurve"/>
      <point x="225" y="280" type="line"/>
      <point x="225" y="279" type="line"/>
      <point x="213" y="248" type="line"/>
      <point x="211" y="246"/>
      <point x="211" y="244" type="qcurve"/>
      <point x="204" y="200" type="line"/>
      <point x="203" y="191"/>
      <point x="179" y="105"/>
      <point x="179" y="76" type="qcurve"/>
      <point x="179" y="60" type="line"/>
      <point x="179" y="46" type="line"/>
      <point x="179" y="-26"/>
      <point x="211" y="-26" type="qcurve"/>
      <point x="248" y="-26"/>
      <point x="256" y="41" type="qcurve"/>
      <point x="266" y="123" type="line"/>
      <point x="266" y="125" type="line"/>
      <point x="270" y="270" type="line"/>
      <point x="271" y="308"/>
      <point x="336" y="390"/>
      <point x="372" y="391" type="qcurve"/>
      <point x="376" y="391"/>
      <point x="393" y="372"/>
      <point x="394" y="367" type="qcurve"/>
      <point x="401" y="322" type="line"/>
      <point x="401" y="302"/>
      <point x="386" y="225"/>
      <point x="385" y="209" type="qcurve"/>
      <point x="381" y="145" type="line"/>
      <point x="377" y="15" type="line"/>
      <point x="377" y="14" type="line"/>
      <point x="377" y="0"/>
      <point x="410" y="-24"/>
    </contour>
    <contour>
      <point x="260" y="367" type="qcurve"/>
      <point x="275" y="390"/>
      <point x="298" y="417"/>
      <point x="345" y="441"/>
      <point x="373" y="441" type="qcurve"/>
      <point x="395" y="441"/>
      <point x="441" y="401"/>
      <point x="443" y="382" type="qcurve"/>
      <point x="451" y="326" type="line"/>
      <point x="451" y="322" type="line"/>
      <point x="451" y="275"/>
      <point x="428" y="77"/>
      <point x="427" y="27" type="qcurve"/>
      <point x="428" y="26" type="line"/>
      <point x="437" y="26"/>
      <point x="450" y="43"/>
      <point x="460" y="72"/>
      <point x="464" y="77" type="qcurve"/>
      <point x="482" y="105" type="line"/>
      <point x="491" y="117"/>
      <point x="505" y="117" type="qcurve"/>
      <point x="516" y="117"/>
      <point x="533" y="101"/>
      <point x="533" y="90" type="qcurve"/>
      <point x="533" y="57"/>
      <point x="462" y="-29"/>
      <point x="427" y="-29" type="qcurve"/>
      <point x="407" y="-29"/>
      <point x="372" y="-3"/>
      <point x="372" y="14" type="qcurve"/>
      <point x="372" y="15" type="line"/>
      <point x="376" y="145" type="line"/>
      <point x="376" y="146" type="line"/>
      <point x="380" y="210" type="line"/>
      <point x="381" y="232"/>
      <point x="395" y="315"/>
      <point x="396" y="322" type="qcurve"/>
      <point x="389" y="366" type="line"/>
      <point x="374" y="383"/>
      <point x="371" y="386" type="qcurve"/>
      <point x="356" y="386"/>
      <point x="332" y="372"/>
      <point x="321" y="359"/>
      <point x="301" y="328"/>
      <point x="298" y="324" type="qcurve"/>
      <point x="282" y="288"/>
      <point x="275" y="269" type="qcurve"/>
      <point x="271" y="125" type="line"/>
      <point x="271" y="123" type="line"/>
      <point x="261" y="40" type="line"/>
      <point x="260" y="14"/>
      <point x="235" y="-31"/>
      <point x="211" y="-31" type="qcurve"/>
      <point x="174" y="-31"/>
      <point x="174" y="46" type="qcurve"/>
      <point x="174" y="60" type="line"/>
      <point x="174" y="76" type="line"/>
      <point x="174" y="140"/>
      <point x="199" y="202" type="qcurve"/>
      <point x="206" y="245" type="line"/>
      <point x="206" y="246"/>
      <point x="208" y="250" type="qcurve"/>
      <point x="220" y="280" type="line"/>
      <point x="215" y="334" type="line"/>
      <point x="212" y="339"/>
      <point x="200" y="370"/>
      <point x="196" y="377" type="qcurve"/>
      <point x="175" y="354"/>
      <point x="140" y="302"/>
      <point x="110" y="235"/>
      <point x="92" y="188"/>
      <point x="60" y="101"/>
      <point x="53" y="82" type="qcurve"/>
      <point x="46" y="65"/>
      <point x="27" y="65" type="qcurve"/>
      <point x="16" y="65"/>
      <point x="0" y="81"/>
      <point x="0" y="92" type="qcurve"/>
      <point x="0" y="96"/>
      <point x="2" y="102" type="qcurve"/>
      <point x="9" y="120"/>
      <point x="54" y="246"/>
      <point x="77" y="301"/>
      <point x="128" y="387"/>
      <point x="158" y="417" type="qcurve"/>
      <point x="176" y="435"/>
      <point x="197" y="435" type="qcurve"/>
      <point x="203" y="435"/>
      <point x="213" y="432"/>
      <point x="222" y="429"/>
      <point x="230" y="422"/>
      <point x="236" y="416"/>
      <point x="242" y="406"/>
      <point x="246" y="400"/>
      <point x="252" y="387"/>
      <point x="254" y="382"/>
      <point x="259" y="369"/>
    </contour>
  </outline>
</glyph>
<glyph name="q" format="2">
  <advance width="398"/>
  <unicode hex="0071"/>
  <outline>
    <contour>
      <point x="22" y="194" type="qcurve"/>
      <point x="22" y="236"/>
      <point x="33" y="309"/>
      <point x="60" y="380"/>
      <point x="113" y="421"/>
      <point x="151" y="421" type="qcurve"/>
      <point x="154" y="421"/>
      <point x="201" y="422"/>
      <point x="205" y="422" type="qcurve"/>
      <point x="208" y="422" type="line"/>
      <point x="215" y="423" type="line"/>
      <point x="241" y="423"/>
      <point x="277" y="303"/>
      <point x="277" y="256" type="qcurve"/>
      <point x="277" y="142"/>
      <point x="242" y="99" type="qcurve"/>
      <point x="243" y="58" type="line"/>
      <point x="255" y="-42" type="line"/>
      <point x="257" y="-53"/>
      <point x="265" y="-109" type="qcurve"/>
      <point x="278" y="-84"/>
      <point x="318" y="-29" type="qcurve"/>
      <point x="349" y="14" type="line"/>
      <point x="357" y="25"/>
      <point x="371" y="25" type="qcurve"/>
      <point x="382" y="25"/>
      <point x="399" y="9"/>
      <point x="399" y="-2" type="qcurve"/>
      <point x="399" y="-10"/>
      <point x="394" y="-18" type="qcurve"/>
      <point x="362" y="-62" type="line"/>
      <point x="354" y="-73"/>
      <point x="317" y="-165"/>
      <point x="275" y="-232"/>
      <point x="252" y="-232" type="qcurve"/>
      <point x="239" y="-232"/>
      <point x="220" y="-204"/>
      <point x="210" y="-154"/>
      <point x="205" y="-111"/>
      <point x="201" y="-56"/>
      <point x="200" y="-49" type="qcurve"/>
      <point x="188" y="53" type="line"/>
      <point x="188" y="62" type="line"/>
      <point x="188" y="64" type="line"/>
      <point x="188" y="65" type="line"/>
      <point x="173" y="61"/>
      <point x="153" y="61" type="qcurve"/>
      <point x="105" y="61"/>
      <point x="69" y="92" type="qcurve"/>
      <point x="63" y="59"/>
      <point x="39" y="59" type="qcurve"/>
      <point x="27" y="59" type="line"/>
      <point x="16" y="59"/>
      <point x="0" y="75"/>
      <point x="0" y="86" type="qcurve"/>
      <point x="0" y="95"/>
      <point x="24" y="147"/>
      <point x="26" y="162" type="qcurve"/>
      <point x="22" y="175"/>
    </contour>
    <contour>
      <point x="215" y="418" type="qcurve"/>
      <point x="213" y="418"/>
      <point x="209" y="417"/>
      <point x="208" y="417" type="qcurve"/>
      <point x="205" y="417" type="line"/>
      <point x="201" y="417"/>
      <point x="154" y="416"/>
      <point x="151" y="416" type="qcurve"/>
      <point x="115" y="416"/>
      <point x="63" y="375"/>
      <point x="38" y="306"/>
      <point x="27" y="235"/>
      <point x="27" y="194" type="qcurve"/>
      <point x="27" y="188"/>
      <point x="31" y="167"/>
      <point x="31" y="162" type="qcurve"/>
      <point x="31" y="144"/>
      <point x="5" y="94"/>
      <point x="5" y="86" type="qcurve"/>
      <point x="5" y="77"/>
      <point x="18" y="64"/>
      <point x="27" y="64" type="qcurve"/>
      <point x="39" y="64" type="line"/>
      <point x="51" y="64"/>
      <point x="66" y="99"/>
      <point x="67" y="99" type="qcurve"/>
      <point x="77" y="99"/>
      <point x="135" y="66"/>
      <point x="153" y="66" type="qcurve"/>
      <point x="160" y="66"/>
      <point x="185" y="71"/>
      <point x="190" y="71" type="qcurve"/>
      <point x="193" y="71"/>
      <point x="193" y="65" type="qcurve"/>
      <point x="193" y="62" type="line"/>
      <point x="193" y="53" type="line"/>
      <point x="205" y="-49" type="line"/>
      <point x="206" y="-57"/>
      <point x="208" y="-107"/>
      <point x="212" y="-151"/>
      <point x="220" y="-199"/>
      <point x="238" y="-227"/>
      <point x="252" y="-227" type="qcurve"/>
      <point x="267" y="-227"/>
      <point x="309" y="-157"/>
      <point x="352" y="-67"/>
      <point x="358" y="-59" type="qcurve"/>
      <point x="390" y="-15" type="line"/>
      <point x="394" y="-10"/>
      <point x="394" y="-2" type="qcurve"/>
      <point x="394" y="7"/>
      <point x="380" y="20"/>
      <point x="371" y="20" type="qcurve"/>
      <point x="360" y="20"/>
      <point x="353" y="11" type="qcurve"/>
      <point x="322" y="-32" type="line"/>
      <point x="320" y="-34"/>
      <point x="294" y="-79"/>
      <point x="267" y="-120"/>
      <point x="264" y="-120" type="qcurve"/>
      <point x="259" y="-120"/>
      <point x="250" y="-42" type="qcurve"/>
      <point x="238" y="57" type="line"/>
      <point x="237" y="100" type="line"/>
      <point x="237" y="108"/>
      <point x="263" y="155"/>
      <point x="265" y="163" type="qcurve"/>
      <point x="272" y="194"/>
      <point x="272" y="256" type="qcurve"/>
      <point x="272" y="299"/>
      <point x="238" y="418"/>
    </contour>
    <contour>
      <point x="78" y="188"/>
      <point x="78" y="288"/>
      <point x="119" y="360"/>
      <point x="179" y="360"/>
      <point x="220" y="288"/>
      <point x="220" y="188"/>
      <point x="179" y="116"/>
      <point x="119" y="116"/>
    </contour>
    <contour>
      <point x="82" y="287"/>
      <point x="82" y="189"/>
      <point x="122" y="120"/>
      <point x="176" y="120"/>
      <point x="216" y="189"/>
      <point x="216" y="287"/>
      <point x="176" y="356"/>
      <point x="122" y="356"/>
    </contour>
  </outline>
</glyph>
<glyph name="s" format="2">
  <advance width="402"/>
  <unicode hex="0073"/>
  <outline>
    <contour>
      <point x="156" y="326"/>
      <point x="156" y="266"/>
      <point x="188" y="222"/>
      <point x="207" y="222" type="qcurve"/>
      <point x="227" y="222"/>
      <point x="298" y="296"/>
      <point x="298" y="354"/>
      <point x="249" y="400"/>
      <point x="228" y="400" type="qcurve"/>
      <point x="209" y="400"/>
    </contour>
    <contour>
      <point x="152" y="264"/>
      <point x="152" y="328"/>
      <point x="207" y="406"/>
      <point x="228" y="406" type="qcurve"/>
      <point x="251" y="406"/>
      <point x="302" y="356"/>
      <point x="302" y="325" type="qcurve"/>
      <point x="302" y="293"/>
      <point x="230" y="218"/>
      <point x="207" y="218" type="qcurve"/>
      <point x="185" y="218"/>
    </contour>
    <contour>
      <point x="344" y="115" type="line"/>
      <point x="339" y="115"/>
      <point x="291" y="160"/>
      <point x="269" y="182" type="qcurve"/>
      <point x="247" y="204" type="line"/>
      <point x="247" y="215"/>
      <point x="312" y="258"/>
      <point x="313" y="261" type="qcurve"/>
      <point x="329" y="305" type="line"/>
      <point x="330" y="307"/>
      <point x="330" y="313" type="qcurve"/>
      <point x="330" y="314" type="line"/>
      <point x="328" y="372" type="line"/>
      <point x="328" y="382"/>
      <point x="320" y="388" type="qcurve"/>
      <point x="284" y="418" type="line"/>
      <point x="270" y="430"/>
      <point x="231" y="430" type="qcurve"/>
      <point x="226" y="430"/>
      <point x="208" y="429"/>
      <point x="203" y="429" type="qcurve"/>
      <point x="164" y="429"/>
      <point x="125" y="342"/>
      <point x="125" y="297" type="qcurve"/>
      <point x="125" y="244"/>
      <point x="170" y="203" type="qcurve"/>
      <point x="171" y="203"/>
      <point x="171" y="201" type="qcurve"/>
      <point x="171" y="183"/>
      <point x="50" y="119"/>
      <point x="31" y="119" type="qcurve"/>
      <point x="27" y="119" type="line"/>
      <point x="18" y="119"/>
      <point x="5" y="106"/>
      <point x="5" y="88"/>
      <point x="18" y="75"/>
      <point x="27" y="75" type="qcurve"/>
      <point x="31" y="75" type="line"/>
      <point x="41" y="75"/>
      <point x="62" y="79"/>
      <point x="80" y="84"/>
      <point x="102" y="95"/>
      <point x="117" y="102"/>
      <point x="140" y="118"/>
      <point x="152" y="126"/>
      <point x="176" y="145"/>
      <point x="183" y="151"/>
      <point x="206" y="171"/>
      <point x="208" y="172" type="qcurve"/>
      <point x="208" y="173"/>
      <point x="209" y="173" type="qcurve"/>
      <point x="224" y="173"/>
      <point x="300" y="110"/>
      <point x="300" y="98" type="qcurve"/>
      <point x="300" y="91"/>
      <point x="248" y="65"/>
      <point x="239" y="65" type="qcurve"/>
      <point x="234" y="65"/>
      <point x="216" y="83"/>
      <point x="205" y="83" type="qcurve"/>
      <point x="204" y="83"/>
      <point x="201" y="84"/>
      <point x="199" y="84" type="qcurve"/>
      <point x="186" y="84"/>
      <point x="169" y="65"/>
      <point x="169" y="53" type="qcurve"/>
      <point x="169" y="15"/>
      <point x="237" y="-23"/>
      <point x="283" y="-23" type="qcurve"/>
      <point x="313" y="-23"/>
      <point x="354" y="33"/>
      <point x="354" y="63" type="qcurve"/>
      <point x="354" y="69" type="line"/>
      <point x="354" y="72"/>
      <point x="356" y="72" type="qcurve"/>
      <point x="382" y="79" type="line"/>
      <point x="398" y="84"/>
      <point x="398" y="101" type="qcurve"/>
      <point x="398" y="110"/>
      <point x="384" y="123"/>
      <point x="375" y="123" type="qcurve"/>
      <point x="369" y="123" type="line"/>
    </contour>
    <contour>
      <point x="120" y="297" type="qcurve"/>
      <point x="120" y="344"/>
      <point x="162" y="434"/>
      <point x="203" y="434" type="qcurve"/>
      <point x="208" y="434"/>
      <point x="226" y="435"/>
      <point x="231" y="435" type="qcurve"/>
      <point x="272" y="435"/>
      <point x="287" y="422" type="qcurve"/>
      <point x="323" y="392" type="line"/>
      <point x="333" y="384"/>
      <point x="333" y="372" type="qcurve"/>
      <point x="335" y="314" type="line"/>
      <point x="335" y="313" type="line"/>
      <point x="335" y="310"/>
      <point x="333" y="304" type="qcurve"/>
      <point x="317" y="260" type="line"/>
      <point x="313" y="251"/>
      <point x="294" y="233"/>
      <point x="261" y="210"/>
      <point x="253" y="204" type="qcurve"/>
      <point x="279" y="187"/>
      <point x="300" y="173"/>
      <point x="336" y="139"/>
      <point x="345" y="121" type="qcurve"/>
      <point x="368" y="127" type="line"/>
      <point x="371" y="128"/>
      <point x="375" y="128" type="qcurve"/>
      <point x="386" y="128"/>
      <point x="403" y="112"/>
      <point x="403" y="101" type="qcurve"/>
      <point x="403" y="80"/>
      <point x="383" y="75" type="qcurve"/>
      <point x="359" y="67" type="line"/>
      <point x="359" y="63" type="line"/>
      <point x="359" y="30"/>
      <point x="315" y="-28"/>
      <point x="283" y="-28" type="qcurve"/>
      <point x="235" y="-28"/>
      <point x="164" y="12"/>
      <point x="164" y="53" type="qcurve"/>
      <point x="164" y="66"/>
      <point x="185" y="89"/>
      <point x="199" y="89" type="qcurve"/>
      <point x="201" y="89"/>
      <point x="204" y="88"/>
      <point x="205" y="88" type="qcurve"/>
      <point x="221" y="88"/>
      <point x="239" y="70" type="qcurve"/>
      <point x="246" y="70"/>
      <point x="262" y="77"/>
      <point x="273" y="84"/>
      <point x="291" y="97"/>
      <point x="294" y="99" type="qcurve"/>
      <point x="288" y="109"/>
      <point x="266" y="130"/>
      <point x="249" y="141"/>
      <point x="215" y="163"/>
      <point x="209" y="167" type="qcurve"/>
      <point x="207" y="166"/>
      <point x="181" y="143"/>
      <point x="172" y="136"/>
      <point x="146" y="116"/>
      <point x="132" y="107"/>
      <point x="107" y="91"/>
      <point x="89" y="83"/>
      <point x="65" y="74"/>
      <point x="42" y="70"/>
      <point x="31" y="70" type="qcurve"/>
      <point x="27" y="70" type="line"/>
      <point x="16" y="70"/>
      <point x="0" y="86"/>
      <point x="0" y="108"/>
      <point x="16" y="124"/>
      <point x="27" y="124" type="qcurve"/>
      <point x="31" y="124" type="line"/>
      <point x="69" y="124"/>
      <point x="164" y="201" type="qcurve"/>
      <point x="120" y="243"/>
    </contour>
    <contour>
      <point x="295" y="65" type="qcurve"/>
      <point x="323" y="65"/>
      <point x="323" y="42" type="qcurve"/>
      <point x="323" y="27"/>
      <point x="300" y="0"/>
      <point x="283" y="0" type="qcurve"/>
      <point x="242" y="0"/>
      <point x="242" y="36"/>
      <point x="275" y="65"/>
    </contour>
    <contour>
      <point x="318" y="42" type="qcurve"/>
      <point x="318" y="60"/>
      <point x="295" y="60" type="qcurve"/>
      <point x="277" y="60"/>
      <point x="246" y="34"/>
      <point x="246" y="18" type="qcurve"/>
      <point x="246" y="4"/>
      <point x="283" y="4" type="qcurve"/>
      <point x="298" y="4"/>
      <point x="318" y="29"/>
    </contour>
  </outline>
</glyph>
<glyph name="uni0965" format="2">
  <advance width="403"/>
  <unicode hex="0965"/>
  <outline>
    <contour>
      <point x="299" y="449"/>
      <point x="301" y="449"/>
      <point x="302" y="448" type="qcurve"/>
      <point x="337" y="413" type="line"/>
      <point x="338" y="412"/>
      <point x="338" y="411" type="qcurve"/>
      <point x="338" y="411"/>
      <point x="341" y="92" type="qcurve"/>
      <point x="341" y="91"/>
      <point x="340" y="90" type="qcurve"/>
      <point x="305" y="54" type="line"/>
      <point x="304" y="54"/>
      <point x="302" y="54"/>
      <point x="301" y="54" type="qcurve"/>
      <point x="266" y="90" type="line"/>
      <point x="265" y="91"/>
      <point x="265" y="92" type="qcurve"/>
      <point x="262" y="411" type="line"/>
      <point x="262" y="412"/>
      <point x="263" y="413" type="qcurve"/>
      <point x="298" y="448" type="line"/>
    </contour>
    <contour>
      <point x="300" y="443" type="line"/>
      <point x="267" y="410" type="line"/>
      <point x="270" y="93" type="line"/>
      <point x="303" y="60" type="line"/>
      <point x="336" y="93" type="line"/>
      <point x="333" y="410" type="line"/>
    </contour>
    <contour>
      <point x="99" y="449"/>
      <point x="101" y="449"/>
      <point x="102" y="448" type="qcurve"/>
      <point x="137" y="413" type="line"/>
      <point x="138" y="412"/>
      <point x="138" y="411" type="qcurve"/>
      <point x="141" y="92" type="line"/>
      <point x="141" y="91"/>
      <point x="140" y="90" type="qcurve"/>
      <point x="105" y="54" type="line"/>
      <point x="104" y="54"/>
      <point x="102" y="54"/>
      <point x="101" y="54" type="qcurve"/>
      <point x="66" y="90" type="line"/>
      <point x="65" y="91"/>
      <point x="65" y="92" type="qcurve"/>
      <point x="62" y="411" type="line"/>
      <point x="62" y="412"/>
      <point x="63" y="413" type="qcurve"/>
      <point x="98" y="448" type="line"/>
    </contour>
    <contour>
      <point x="100" y="443" type="line"/>
      <point x="67" y="410" type="line"/>
      <point x="70" y="93" type="line"/>
      <point x="103" y="60" type="line"/>
      <point x="136" y="93" type="line"/>
      <point x="133" y="410" type="line"/>
    </contour>
  </outline>
</glyph>
<glyph name="uni0981" format="2">
  <unicode hex="0981"/>
  <outline>
    <contour>
      <point x="-229" y="1042" type="qcurve"/>
      <point x="-216" y="1042"/>
      <point x="-209" y="1034" type="qcurve"/>
      <point x="-173" y="999" type="line"/>
      <point x="-164" y="990"/>
      <point x="-164" y="974" type="qcurve"/>
      <point x="-164" y="964"/>
      <point x="-168" y="959" type="qcurve"/>
      <point x="-204" y="924" type="line"/>
      <point x="-207" y="921"/>
      <point x="-211" y="921" type="qcurve"/>
      <point x="-211" y="921"/>
      <point x="-212" y="921" type="qcurve"/>
      <point x="-241" y="929"/>
      <point x="-248" y="936" type="qcurve"/>
      <point x="-252" y="939" type="line"/>
      <point x="-252" y="939"/>
      <point x="-253" y="939" type="qcurve"/>
      <point x="-254" y="939"/>
      <point x="-255" y="940" type="qcurve"/>
      <point x="-290" y="975" type="line"/>
      <point x="-291" y="976"/>
      <point x="-291" y="977" type="qcurve"/>
      <point x="-291" y="978"/>
      <point x="-291" y="978" type="qcurve"/>
      <point x="-279" y="1002" type="line"/>
      <point x="-278" y="1002"/>
      <point x="-278" y="1003" type="qcurve"/>
      <point x="-243" y="1038" type="line"/>
      <point x="-242" y="1039"/>
      <point x="-242" y="1039" type="qcurve"/>
      <point x="-238" y="1040"/>
      <point x="-236" y="1042"/>
      <point x="-234" y="1042" type="qcurve"/>
      <point x="-233" y="1042"/>
      <point x="-230" y="1042"/>
    </contour>
    <contour>
      <point x="-169" y="974" type="qcurve"/>
      <point x="-169" y="987"/>
      <point x="-177" y="995" type="qcurve"/>
      <point x="-212" y="1030" type="line"/>
      <point x="-219" y="1037"/>
      <point x="-229" y="1037" type="qcurve"/>
      <point x="-233" y="1037"/>
      <point x="-234" y="1037" type="qcurve"/>
      <point x="-236" y="1035"/>
      <point x="-240" y="1034" type="qcurve"/>
      <point x="-274" y="1000" type="line"/>
      <point x="-285" y="977" type="line"/>
      <point x="-253" y="945" type="line"/>
      <point x="-252" y="945"/>
      <point x="-252" y="945" type="qcurve"/>
      <point x="-251" y="945"/>
      <point x="-250" y="945" type="qcurve"/>
      <point x="-245" y="939" type="line"/>
      <point x="-239" y="933"/>
      <point x="-211" y="926" type="qcurve"/>
      <point x="-209" y="926"/>
      <point x="-207" y="928" type="qcurve"/>
      <point x="-172" y="963" type="line"/>
      <point x="-169" y="966"/>
    </contour>
    <contour>
      <point x="-452" y="970"/>
      <point x="-450" y="970"/>
      <point x="-449" y="969" type="qcurve"/>
      <point x="-411" y="930"/>
      <point x="-339" y="910" type="qcurve"/>
      <point x="-334" y="908"/>
      <point x="-303" y="897"/>
      <point x="-280" y="892"/>
      <point x="-268" y="892" type="qcurve"/>
      <point x="-222" y="893"/>
      <point x="-166" y="898"/>
      <point x="-90" y="919"/>
      <point x="-64" y="938" type="qcurve"/>
      <point x="-60" y="943"/>
      <point x="-56" y="948" type="qcurve"/>
      <point x="-56" y="949"/>
      <point x="-56" y="949" type="qcurve"/>
      <point x="-21" y="984" type="line"/>
      <point x="-20" y="985"/>
      <point x="-18" y="985"/>
      <point x="-17" y="984" type="qcurve"/>
      <point x="18" y="949" type="line"/>
      <point x="19" y="948"/>
      <point x="19" y="947" type="qcurve"/>
      <point x="19" y="946"/>
      <point x="18" y="946" type="qcurve"/>
      <point x="8" y="929"/>
      <point x="-6" y="915" type="qcurve"/>
      <point x="-41" y="880" type="line"/>
      <point x="-62" y="859"/>
      <point x="-115" y="833"/>
      <point x="-182" y="821"/>
      <point x="-229" y="817"/>
      <point x="-268" y="816" type="qcurve"/>
      <point x="-281" y="816"/>
      <point x="-304" y="822"/>
      <point x="-335" y="833"/>
      <point x="-341" y="834" type="qcurve"/>
      <point x="-413" y="855"/>
      <point x="-451" y="893" type="qcurve"/>
      <point x="-487" y="930"/>
      <point x="-489" y="931"/>
      <point x="-489" y="933"/>
      <point x="-488" y="934" type="qcurve"/>
      <point x="-453" y="969" type="line"/>
    </contour>
    <contour>
      <point x="-451" y="964" type="qcurve"/>
      <point x="-483" y="932" type="line"/>
      <point x="-478" y="927"/>
      <point x="-466" y="915"/>
      <point x="-452" y="901"/>
      <point x="-448" y="897" type="qcurve"/>
      <point x="-411" y="860"/>
      <point x="-339" y="839" type="qcurve"/>
      <point x="-334" y="837"/>
      <point x="-303" y="827"/>
      <point x="-280" y="821"/>
      <point x="-268" y="821" type="qcurve"/>
      <point x="-230" y="822"/>
      <point x="-182" y="826"/>
      <point x="-116" y="837"/>
      <point x="-65" y="863"/>
      <point x="-45" y="884" type="qcurve"/>
      <point x="-9" y="919" type="line"/>
      <point x="3" y="931"/>
      <point x="13" y="947" type="qcurve"/>
      <point x="-19" y="979" type="line"/>
      <point x="-52" y="945" type="line"/>
      <point x="-56" y="940"/>
      <point x="-60" y="935" type="qcurve"/>
      <point x="-60" y="934"/>
      <point x="-60" y="934" type="qcurve"/>
      <point x="-87" y="914"/>
      <point x="-165" y="893"/>
      <point x="-221" y="888"/>
      <point x="-268" y="887" type="qcurve"/>
      <point x="-281" y="887"/>
      <point x="-304" y="892"/>
      <point x="-335" y="903"/>
      <point x="-341" y="905" type="qcurve"/>
      <point x="-411" y="926"/>
    </contour>
  </outline>
</glyph>
<glyph name="uni0982" format="2">
  <advance width="334"/>
  <unicode hex="0982"/>
  <outline>
    <contour>
      <point x="144" y="496"/>
      <point x="146" y="496"/>
      <point x="147" y="495" type="qcurve"/>
      <point x="182" y="460" type="line"/>
      <point x="218" y="412"/>
      <point x="237" y="354" type="qcurve"/>
      <point x="237" y="353"/>
      <point x="237" y="353" type="qcurve"/>
      <point x="231" y="143" type="line"/>
      <point x="231" y="142" type="line"/>
      <point x="225" y="118" type="line"/>
      <point x="225" y="118"/>
      <point x="224" y="117" type="qcurve"/>
      <point x="189" y="82" type="line"/>
      <point x="188" y="81"/>
      <point x="186" y="81"/>
      <point x="185" y="82" type="qcurve"/>
      <point x="150" y="117" type="line"/>
      <point x="149" y="118"/>
      <point x="149" y="119" type="qcurve"/>
      <point x="149" y="119"/>
      <point x="149" y="120" type="qcurve"/>
      <point x="155" y="143" type="line"/>
      <point x="161" y="353" type="line"/>
      <point x="143" y="409"/>
      <point x="108" y="456" type="qcurve"/>
      <point x="107" y="457"/>
      <point x="107" y="459"/>
      <point x="108" y="460" type="qcurve"/>
      <point x="143" y="495" type="line"/>
    </contour>
    <contour>
      <point x="166" y="353" type="qcurve"/>
      <point x="160" y="143" type="line"/>
      <point x="160" y="142" type="line"/>
      <point x="154" y="120" type="line"/>
      <point x="187" y="87" type="line"/>
      <point x="220" y="120" type="line"/>
      <point x="226" y="143" type="line"/>
      <point x="232" y="353" type="line"/>
      <point x="214" y="409"/>
      <point x="178" y="456" type="qcurve"/>
      <point x="145" y="490" type="line"/>
      <point x="113" y="458" type="line"/>
      <point x="148" y="410"/>
      <point x="166" y="354" type="qcurve"/>
      <point x="166" y="353"/>
    </contour>
    <contour>
      <point x="169" y="628" type="qcurve"/>
      <point x="172" y="628"/>
      <point x="187" y="629"/>
      <point x="191" y="629" type="qcurve"/>
      <point x="209" y="629"/>
      <point x="217" y="621" type="qcurve"/>
      <point x="253" y="586" type="line"/>
      <point x="261" y="578"/>
      <point x="261" y="560" type="qcurve"/>
      <point x="261" y="547"/>
      <point x="247" y="533" type="qcurve"/>
      <point x="211" y="498" type="line"/>
      <point x="200" y="486"/>
      <point x="188" y="486" type="qcurve"/>
      <point x="172" y="486"/>
      <point x="162" y="496" type="qcurve"/>
      <point x="127" y="532" type="line"/>
      <point x="116" y="542"/>
      <point x="110" y="565" type="qcurve"/>
      <point x="110" y="566"/>
      <point x="110" y="566" type="qcurve"/>
      <point x="110" y="567"/>
      <point x="111" y="568" type="qcurve"/>
      <point x="126" y="582" type="line"/>
      <point x="117" y="591" type="line"/>
      <point x="116" y="592"/>
      <point x="116" y="594"/>
      <point x="117" y="595" type="qcurve"/>
      <point x="152" y="630" type="line"/>
      <point x="153" y="631"/>
      <point x="154" y="631" type="qcurve"/>
      <point x="155" y="631"/>
      <point x="155" y="631" type="qcurve"/>
      <point x="160" y="628"/>
    </contour>
    <contour>
      <point x="191" y="624" type="qcurve"/>
      <point x="187" y="624"/>
      <point x="172" y="623"/>
      <point x="169" y="623" type="qcurve"/>
      <point x="160" y="623"/>
      <point x="155" y="625" type="qcurve"/>
      <point x="122" y="593" type="line"/>
      <point x="131" y="584" type="line"/>
      <point x="132" y="584"/>
      <point x="132" y="581"/>
      <point x="131" y="581" type="qcurve"/>
      <point x="115" y="565" type="line"/>
      <point x="121" y="545"/>
      <point x="130" y="535" type="qcurve"/>
      <point x="166" y="500" type="line"/>
      <point x="174" y="491"/>
      <point x="188" y="491" type="qcurve"/>
      <point x="188" y="491"/>
      <point x="190" y="491"/>
      <point x="190" y="491" type="qcurve"/>
      <point x="198" y="491"/>
      <point x="208" y="501" type="qcurve"/>
      <point x="243" y="536" type="line"/>
      <point x="256" y="549"/>
      <point x="256" y="560" type="qcurve"/>
      <point x="256" y="576"/>
      <point x="249" y="582" type="qcurve"/>
      <point x="214" y="618" type="line"/>
      <point x="207" y="624"/>
    </contour>
  </outline>
</glyph>
<glyph name="uni0985" format="2">
  <advance width="1024"/>
  <unicode hex="0985"/>
  <outline>
    <contour>
      <point x="251" y="784"/>
      <point x="251" y="786"/>
      <point x="252" y="787" type="qcurve"/>
      <point x="287" y="822" type="line"/>
      <point x="288" y="823"/>
      <point x="289" y="823" type="qcurve"/>
      <point x="819" y="823" type="line"/>
      <point x="820" y="823"/>
      <point x="821" y="822" type="qcurve"/>
      <point x="856" y="787" type="line"/>
      <point x="857" y="786"/>
      <point x="857" y="784"/>
      <point x="856" y="783" type="qcurve"/>
      <point x="821" y="748" type="line"/>
      <point x="820" y="747"/>
      <point x="819" y="747" type="qcurve"/>
      <point x="289" y="747" type="line"/>
      <point x="288" y="747"/>
      <point x="287" y="748" type="qcurve"/>
      <point x="252" y="783" type="line"/>
    </contour>
    <contour>
      <point x="257" y="785" type="line"/>
      <point x="290" y="752" type="line"/>
      <point x="818" y="752" type="line"/>
      <point x="851" y="785" type="line"/>
      <point x="818" y="818" type="line"/>
      <point x="290" y="818" type="line"/>
    </contour>
    <contour>
      <point x="622" y="210" type="qcurve"/>
      <point x="622" y="214"/>
      <point x="622" y="229"/>
      <point x="622" y="233" type="qcurve"/>
      <point x="622" y="251"/>
      <point x="625" y="262" type="qcurve"/>
      <point x="601" y="282"/>
      <point x="579" y="290" type="qcurve"/>
      <point x="579" y="291"/>
      <point x="578" y="291" type="qcurve"/>
      <point x="543" y="326" type="line"/>
      <point x="542" y="327"/>
      <point x="542" y="329"/>
      <point x="543" y="330" type="qcurve"/>
      <point x="578" y="365" type="line"/>
      <point x="579" y="366"/>
      <point x="580" y="366" type="qcurve"/>
      <point x="580" y="366"/>
      <point x="581" y="366" type="qcurve"/>
      <point x="610" y="354"/>
      <point x="643" y="323" type="qcurve"/>
      <point x="648" y="350"/>
      <point x="665" y="454"/>
      <point x="670" y="481" type="qcurve"/>
      <point x="695" y="579"/>
      <point x="735" y="641" type="qcurve"/>
      <point x="741" y="652"/>
      <point x="757" y="673"/>
      <point x="768" y="687"/>
      <point x="790" y="710"/>
      <point x="797" y="718"/>
      <point x="824" y="744"/>
      <point x="826" y="747" type="qcurve"/>
      <point x="837" y="757"/>
      <point x="890" y="805" type="qcurve"/>
      <point x="891" y="806"/>
      <point x="892" y="806" type="qcurve"/>
      <point x="968" y="810" type="line"/>
      <point x="969" y="810"/>
      <point x="970" y="809" type="qcurve"/>
      <point x="1005" y="774" type="line"/>
      <point x="1006" y="773"/>
      <point x="1006" y="771"/>
      <point x="1005" y="770" type="qcurve"/>
      <point x="970" y="735" type="line"/>
      <point x="969" y="734"/>
      <point x="968" y="734" type="qcurve"/>
      <point x="893" y="730" type="line"/>
      <point x="891" y="729"/>
      <point x="857" y="699"/>
      <point x="849" y="691" type="qcurve"/>
      <point x="827" y="667"/>
      <point x="809" y="639" type="qcurve"/>
      <point x="770" y="577"/>
      <point x="746" y="479" type="qcurve"/>
      <point x="742" y="464"/>
      <point x="716" y="305"/>
      <point x="702" y="263" type="qcurve"/>
      <point x="757" y="198"/>
      <point x="762" y="136" type="qcurve"/>
      <point x="762" y="119"/>
      <point x="735" y="92" type="qcurve"/>
      <point x="723" y="80"/>
      <point x="720" y="75" type="qcurve"/>
      <point x="718" y="68"/>
      <point x="717" y="66" type="qcurve"/>
      <point x="682" y="31" type="line"/>
      <point x="681" y="30"/>
      <point x="679" y="30"/>
      <point x="678" y="31" type="qcurve"/>
      <point x="643" y="66" type="line"/>
      <point x="642" y="67"/>
      <point x="642" y="68" type="qcurve"/>
      <point x="642" y="72"/>
      <point x="645" y="77" type="qcurve"/>
      <point x="646" y="83"/>
      <point x="646" y="91" type="qcurve"/>
      <point x="646" y="117"/>
      <point x="630" y="151" type="qcurve"/>
      <point x="622" y="168"/>
      <point x="622" y="204" type="qcurve"/>
      <point x="622" y="208" type="line"/>
      <point x="622" y="209"/>
    </contour>
    <contour>
      <point x="627" y="233" type="qcurve"/>
      <point x="627" y="230"/>
      <point x="627" y="214"/>
      <point x="627" y="210" type="qcurve"/>
      <point x="627" y="209"/>
      <point x="627" y="208" type="qcurve"/>
      <point x="627" y="204" type="line"/>
      <point x="627" y="169"/>
      <point x="635" y="153" type="qcurve"/>
      <point x="651" y="119"/>
      <point x="651" y="91" type="qcurve"/>
      <point x="651" y="83"/>
      <point x="650" y="75" type="qcurve"/>
      <point x="649" y="75"/>
      <point x="648" y="70"/>
      <point x="647" y="69" type="qcurve"/>
      <point x="680" y="36" type="line"/>
      <point x="713" y="69" type="line"/>
      <point x="715" y="73"/>
      <point x="715" y="76" type="qcurve"/>
      <point x="716" y="77"/>
      <point x="716" y="77" type="qcurve"/>
      <point x="719" y="83"/>
      <point x="732" y="96" type="qcurve"/>
      <point x="757" y="121"/>
      <point x="757" y="136" type="qcurve"/>
      <point x="752" y="196"/>
      <point x="697" y="261" type="qcurve"/>
      <point x="696" y="262"/>
      <point x="696" y="262" type="qcurve"/>
      <point x="696" y="263"/>
      <point x="697" y="265" type="qcurve"/>
      <point x="712" y="306"/>
      <point x="737" y="464"/>
      <point x="741" y="481" type="qcurve"/>
      <point x="766" y="579"/>
      <point x="805" y="641" type="qcurve"/>
      <point x="823" y="670"/>
      <point x="845" y="694" type="qcurve"/>
      <point x="846" y="694"/>
      <point x="846" y="694" type="qcurve"/>
      <point x="854" y="702"/>
      <point x="888" y="732"/>
      <point x="890" y="735" type="qcurve"/>
      <point x="891" y="735"/>
      <point x="892" y="735" type="qcurve"/>
      <point x="967" y="739" type="line"/>
      <point x="1000" y="772" type="line"/>
      <point x="967" y="805" type="line"/>
      <point x="893" y="801" type="line"/>
      <point x="841" y="754"/>
      <point x="830" y="743" type="qcurve"/>
      <point x="827" y="741"/>
      <point x="801" y="714"/>
      <point x="793" y="707"/>
      <point x="772" y="684"/>
      <point x="761" y="670"/>
      <point x="745" y="649"/>
      <point x="739" y="639" type="qcurve"/>
      <point x="700" y="577"/>
      <point x="675" y="479" type="qcurve"/>
      <point x="669" y="453"/>
      <point x="653" y="346"/>
      <point x="647" y="318" type="qcurve"/>
      <point x="646" y="316"/>
      <point x="644" y="316" type="qcurve"/>
      <point x="643" y="316"/>
      <point x="642" y="317" type="qcurve"/>
      <point x="610" y="348"/>
      <point x="581" y="360" type="qcurve"/>
      <point x="548" y="328" type="line"/>
      <point x="581" y="295" type="line"/>
      <point x="604" y="286"/>
      <point x="630" y="264" type="qcurve"/>
      <point x="631" y="264"/>
      <point x="631" y="262" type="qcurve"/>
      <point x="631" y="262"/>
      <point x="630" y="262" type="qcurve"/>
      <point x="627" y="251"/>
    </contour>
    <contour>
      <point x="8" y="734" type="line"/>
      <point x="7" y="734"/>
      <point x="6" y="735" type="qcurve"/>
      <point x="-29" y="770" type="line"/>
      <point x="-30" y="771"/>
      <point x="-30" y="773"/>
      <point x="-29" y="774" type="qcurve"/>
      <point x="6" y="809" type="line"/>
      <point x="7" y="810"/>
      <point x="8" y="810" type="qcurve"/>
      <point x="28" y="810" type="line"/>
      <point x="44" y="810" type="line"/>
      <point x="84" y="810"/>
      <point x="140" y="807"/>
      <point x="223" y="797"/>
      <point x="289" y="770"/>
      <point x="311" y="749" type="qcurve"/>
      <point x="337" y="765"/>
      <point x="367" y="765" type="qcurve"/>
      <point x="386" y="765"/>
      <point x="404" y="758" type="qcurve"/>
      <point x="405" y="758"/>
      <point x="407" y="758" type="qcurve"/>
      <point x="466" y="758"/>
      <point x="513" y="711" type="qcurve"/>
      <point x="548" y="675" type="line"/>
      <point x="585" y="639"/>
      <point x="626" y="529"/>
      <point x="626" y="476" type="qcurve"/>
      <point x="626" y="466"/>
      <point x="626" y="464" type="qcurve"/>
      <point x="624" y="451"/>
      <point x="620" y="392"/>
      <point x="611" y="353"/>
      <point x="602" y="335" type="qcurve"/>
      <point x="586" y="256"/>
      <point x="534" y="205" type="qcurve"/>
      <point x="499" y="169" type="line"/>
      <point x="469" y="140"/>
      <point x="433" y="126" type="qcurve"/>
      <point x="420" y="122"/>
      <point x="346" y="88"/>
      <point x="288" y="70"/>
      <point x="260" y="70" type="qcurve"/>
      <point x="236" y="65"/>
      <point x="214" y="65" type="qcurve"/>
      <point x="155" y="65"/>
      <point x="115" y="104" type="qcurve"/>
      <point x="80" y="140" type="line"/>
      <point x="26" y="194"/>
      <point x="14" y="312" type="qcurve"/>
      <point x="13" y="325"/>
      <point x="-10" y="391" type="qcurve"/>
      <point x="-30" y="427" type="line"/>
      <point x="-30" y="427"/>
      <point x="-30" y="428" type="qcurve"/>
      <point x="-30" y="429"/>
      <point x="-29" y="430" type="qcurve"/>
      <point x="6" y="465" type="line"/>
      <point x="7" y="466"/>
      <point x="9" y="466"/>
      <point x="10" y="465" type="qcurve"/>
      <point x="45" y="430" type="line"/>
      <point x="45" y="430"/>
      <point x="46" y="429" type="qcurve"/>
      <point x="66" y="393" type="line"/>
      <point x="66" y="393"/>
      <point x="77" y="360"/>
      <point x="89" y="319"/>
      <point x="90" y="312" type="qcurve"/>
      <point x="100" y="216"/>
      <point x="138" y="163" type="qcurve"/>
      <point x="170" y="141"/>
      <point x="214" y="141" type="qcurve"/>
      <point x="236" y="141"/>
      <point x="259" y="146" type="qcurve"/>
      <point x="260" y="146" type="line"/>
      <point x="287" y="146"/>
      <point x="344" y="163"/>
      <point x="419" y="197"/>
      <point x="431" y="202" type="qcurve"/>
      <point x="456" y="211"/>
      <point x="477" y="227" type="qcurve"/>
      <point x="514" y="274"/>
      <point x="526" y="336" type="qcurve"/>
      <point x="526" y="337"/>
      <point x="526" y="337" type="qcurve"/>
      <point x="536" y="354"/>
      <point x="544" y="392"/>
      <point x="548" y="452"/>
      <point x="550" y="464" type="qcurve"/>
      <point x="550" y="470"/>
      <point x="550" y="476" type="qcurve"/>
      <point x="550" y="521"/>
      <point x="519" y="617"/>
      <point x="491" y="653" type="qcurve"/>
      <point x="452" y="682"/>
      <point x="407" y="682" type="qcurve"/>
      <point x="405" y="682"/>
      <point x="404" y="682" type="qcurve"/>
      <point x="404" y="682"/>
      <point x="403" y="682" type="qcurve"/>
      <point x="386" y="689"/>
      <point x="367" y="689" type="qcurve"/>
      <point x="367" y="689"/>
      <point x="366" y="689" type="qcurve"/>
      <point x="386" y="658"/>
      <point x="386" y="616" type="qcurve"/>
      <point x="386" y="592"/>
      <point x="371" y="577" type="qcurve"/>
      <point x="335" y="542" type="line"/>
      <point x="324" y="530"/>
      <point x="308" y="530" type="qcurve"/>
      <point x="290" y="530"/>
      <point x="280" y="540" type="qcurve"/>
      <point x="244" y="576" type="line"/>
      <point x="230" y="590"/>
      <point x="230" y="633" type="qcurve"/>
      <point x="230" y="672"/>
      <point x="257" y="699" type="qcurve"/>
      <point x="262" y="704" type="line"/>
      <point x="194" y="734"/>
      <point x="44" y="734" type="qcurve"/>
      <point x="28" y="734" type="line"/>
    </contour>
    <contour>
      <point x="359" y="691" type="qcurve"/>
      <point x="359" y="694"/>
      <point x="367" y="694" type="qcurve"/>
      <point x="386" y="694"/>
      <point x="404" y="687" type="qcurve"/>
      <point x="405" y="687"/>
      <point x="407" y="687" type="qcurve"/>
      <point x="454" y="687"/>
      <point x="494" y="656" type="qcurve"/>
      <point x="495" y="656"/>
      <point x="495" y="656" type="qcurve"/>
      <point x="524" y="619"/>
      <point x="555" y="522"/>
      <point x="555" y="476" type="qcurve"/>
      <point x="555" y="466"/>
      <point x="555" y="464" type="qcurve"/>
      <point x="553" y="451"/>
      <point x="549" y="392"/>
      <point x="541" y="353"/>
      <point x="531" y="335" type="qcurve"/>
      <point x="518" y="272"/>
      <point x="481" y="224" type="qcurve"/>
      <point x="480" y="224"/>
      <point x="480" y="224" type="qcurve"/>
      <point x="458" y="206"/>
      <point x="433" y="197" type="qcurve"/>
      <point x="420" y="192"/>
      <point x="346" y="158"/>
      <point x="288" y="141"/>
      <point x="260" y="141" type="qcurve"/>
      <point x="236" y="136"/>
      <point x="214" y="136" type="qcurve"/>
      <point x="169" y="136"/>
      <point x="134" y="159" type="qcurve"/>
      <point x="134" y="159"/>
      <point x="134" y="160" type="qcurve"/>
      <point x="95" y="214"/>
      <point x="85" y="312" type="qcurve"/>
      <point x="83" y="325"/>
      <point x="61" y="391" type="qcurve"/>
      <point x="41" y="426" type="line"/>
      <point x="8" y="460" type="line"/>
      <point x="-24" y="428" type="line"/>
      <point x="-5" y="393" type="line"/>
      <point x="-5" y="393"/>
      <point x="6" y="360"/>
      <point x="18" y="319"/>
      <point x="19" y="312" type="qcurve"/>
      <point x="31" y="196"/>
      <point x="84" y="143" type="qcurve"/>
      <point x="119" y="108" type="line"/>
      <point x="157" y="70"/>
      <point x="214" y="70" type="qcurve"/>
      <point x="236" y="70"/>
      <point x="259" y="75" type="qcurve"/>
      <point x="260" y="75" type="line"/>
      <point x="287" y="75"/>
      <point x="344" y="93"/>
      <point x="419" y="126"/>
      <point x="431" y="131" type="qcurve"/>
      <point x="467" y="144"/>
      <point x="495" y="173" type="qcurve"/>
      <point x="531" y="208" type="line"/>
      <point x="581" y="259"/>
      <point x="597" y="336" type="qcurve"/>
      <point x="597" y="337"/>
      <point x="597" y="337" type="qcurve"/>
      <point x="607" y="354"/>
      <point x="615" y="392"/>
      <point x="619" y="452"/>
      <point x="621" y="464" type="qcurve"/>
      <point x="621" y="470"/>
      <point x="621" y="476" type="qcurve"/>
      <point x="621" y="528"/>
      <point x="580" y="636"/>
      <point x="545" y="672" type="qcurve"/>
      <point x="509" y="707" type="line"/>
      <point x="464" y="753"/>
      <point x="407" y="753" type="qcurve"/>
      <point x="405" y="753"/>
      <point x="404" y="753" type="qcurve"/>
      <point x="404" y="753"/>
      <point x="403" y="753" type="qcurve"/>
      <point x="386" y="760"/>
      <point x="367" y="760" type="qcurve"/>
      <point x="337" y="760"/>
      <point x="312" y="743" type="qcurve"/>
      <point x="311" y="743"/>
      <point x="311" y="743" type="qcurve"/>
      <point x="310" y="743"/>
      <point x="309" y="744" type="qcurve"/>
      <point x="287" y="764"/>
      <point x="223" y="791"/>
      <point x="141" y="802"/>
      <point x="84" y="805"/>
      <point x="44" y="805" type="qcurve"/>
      <point x="28" y="805" type="line"/>
      <point x="9" y="805" type="line"/>
      <point x="-24" y="772" type="line"/>
      <point x="9" y="739" type="line"/>
      <point x="28" y="739" type="line"/>
      <point x="44" y="739" type="line"/>
      <point x="198" y="739"/>
      <point x="268" y="707" type="qcurve"/>
      <point x="269" y="706"/>
      <point x="269" y="704" type="qcurve"/>
      <point x="269" y="703"/>
      <point x="268" y="703" type="qcurve"/>
      <point x="261" y="695" type="line"/>
      <point x="235" y="669"/>
      <point x="235" y="633" type="qcurve"/>
      <point x="235" y="632"/>
      <point x="235" y="629"/>
      <point x="235" y="628" type="qcurve"/>
      <point x="235" y="592"/>
      <point x="248" y="579" type="qcurve"/>
      <point x="283" y="544" type="line"/>
      <point x="292" y="535"/>
      <point x="308" y="535" type="qcurve"/>
      <point x="322" y="535"/>
      <point x="332" y="545" type="qcurve"/>
      <point x="367" y="581" type="line"/>
      <point x="381" y="594"/>
      <point x="381" y="616" type="qcurve"/>
      <point x="381" y="659"/>
      <point x="360" y="690" type="qcurve"/>
      <point x="359" y="691"/>
    </contour>
    <contour>
      <point x="301" y="633" type="qcurve"/>
      <point x="301" y="647"/>
      <point x="304" y="659" type="qcurve"/>
      <point x="305" y="661"/>
      <point x="309" y="661"/>
      <point x="309" y="659" type="qcurve"/>
      <point x="315" y="639"/>
      <point x="315" y="616" type="qcurve"/>
      <point x="315" y="601"/>
      <point x="311" y="601" type="qcurve"/>
      <point x="310" y="601"/>
      <point x="308" y="601" type="qcurve"/>
      <point x="303" y="601"/>
      <point x="303" y="603" type="qcurve"/>
      <point x="301" y="614"/>
    </contour>
    <contour>
      <point x="306" y="633" type="qcurve"/>
      <point x="306" y="616"/>
      <point x="307" y="606" type="qcurve"/>
      <point x="308" y="606"/>
      <point x="308" y="606" type="qcurve"/>
      <point x="309" y="606"/>
      <point x="309" y="606" type="qcurve"/>
      <point x="310" y="611"/>
      <point x="310" y="616" type="qcurve"/>
      <point x="310" y="633"/>
      <point x="307" y="648" type="qcurve"/>
      <point x="306" y="641"/>
    </contour>
  </outline>
</glyph>
<glyph name="uni0987" format="2">
  <advance width="422"/>
  <unicode hex="0987"/>
  <outline>
    <contour>
      <point x="193" y="991" type="qcurve"/>
      <point x="205" y="991"/>
      <point x="250" y="1000"/>
      <point x="262" y="1000" type="qcurve"/>
      <point x="280" y="1000"/>
      <point x="288" y="992" type="qcurve"/>
      <point x="324" y="957" type="line"/>
      <point x="330" y="950"/>
      <point x="330" y="940" type="qcurve"/>
      <point x="330" y="925"/>
      <point x="317" y="896"/>
      <point x="305" y="880"/>
      <point x="293" y="866" type="qcurve"/>
      <point x="266" y="834"/>
      <point x="266" y="816" type="qcurve"/>
      <point x="266" y="812"/>
      <point x="275" y="800" type="qcurve"/>
      <point x="280" y="798" type="line"/>
      <point x="288" y="798"/>
      <point x="310" y="806" type="qcurve"/>
      <point x="327" y="813"/>
      <point x="336" y="814" type="qcurve"/>
      <point x="343" y="815"/>
      <point x="373" y="816"/>
      <point x="409" y="818"/>
      <point x="417" y="818" type="qcurve"/>
      <point x="422" y="823" type="line"/>
      <point x="423" y="824"/>
      <point x="424" y="824" type="qcurve"/>
      <point x="435" y="822"/>
      <point x="437" y="820" type="qcurve"/>
      <point x="472" y="785" type="line"/>
      <point x="473" y="784"/>
      <point x="473" y="782"/>
      <point x="472" y="781" type="qcurve"/>
      <point x="437" y="745" type="line"/>
      <point x="435" y="744"/>
      <point x="422" y="743" type="qcurve"/>
      <point x="415" y="742"/>
      <point x="347" y="740"/>
      <point x="336" y="738" type="qcurve"/>
      <point x="328" y="737"/>
      <point x="291" y="723"/>
      <point x="280" y="722" type="qcurve"/>
      <point x="272" y="722"/>
      <point x="254" y="740" type="qcurve"/>
      <point x="219" y="775" type="line"/>
      <point x="190" y="804"/>
      <point x="190" y="816" type="qcurve"/>
      <point x="190" y="836"/>
      <point x="219" y="869" type="qcurve"/>
      <point x="247" y="902"/>
      <point x="252" y="924" type="qcurve"/>
      <point x="245" y="923"/>
      <point x="205" y="915"/>
      <point x="193" y="915" type="qcurve"/>
      <point x="141" y="915"/>
      <point x="106" y="950" type="qcurve"/>
      <point x="70" y="985" type="line"/>
      <point x="41" y="1015"/>
      <point x="41" y="1057" type="qcurve"/>
      <point x="41" y="1067"/>
      <point x="45" y="1090" type="qcurve"/>
      <point x="51" y="1128"/>
      <point x="51" y="1146" type="qcurve"/>
      <point x="51" y="1155"/>
      <point x="50" y="1164" type="qcurve"/>
      <point x="50" y="1165"/>
      <point x="51" y="1166" type="qcurve"/>
      <point x="86" y="1201" type="line"/>
      <point x="87" y="1202"/>
      <point x="89" y="1202"/>
      <point x="90" y="1201" type="qcurve"/>
      <point x="125" y="1166" type="line"/>
      <point x="126" y="1165"/>
      <point x="126" y="1164" type="qcurve"/>
      <point x="127" y="1155"/>
      <point x="127" y="1146" type="qcurve"/>
      <point x="127" y="1129"/>
      <point x="118" y="1076" type="qcurve"/>
      <point x="116" y="1066"/>
      <point x="116" y="1057" type="qcurve"/>
      <point x="116" y="1031"/>
      <point x="129" y="1009" type="qcurve"/>
      <point x="158" y="991"/>
    </contour>
    <contour>
      <point x="193" y="920" type="qcurve"/>
      <point x="205" y="920"/>
      <point x="246" y="928"/>
      <point x="255" y="929" type="qcurve"/>
      <point x="258" y="929"/>
      <point x="258" y="926" type="qcurve"/>
      <point x="253" y="902"/>
      <point x="223" y="866" type="qcurve"/>
      <point x="195" y="834"/>
      <point x="195" y="816" type="qcurve"/>
      <point x="195" y="806"/>
      <point x="222" y="779" type="qcurve"/>
      <point x="258" y="743" type="line"/>
      <point x="274" y="727"/>
      <point x="280" y="727" type="qcurve"/>
      <point x="290" y="728"/>
      <point x="327" y="742"/>
      <point x="336" y="743" type="qcurve"/>
      <point x="347" y="745"/>
      <point x="428" y="747"/>
      <point x="433" y="749" type="qcurve"/>
      <point x="467" y="783" type="line"/>
      <point x="433" y="817" type="line"/>
      <point x="431" y="818"/>
      <point x="425" y="819" type="qcurve"/>
      <point x="420" y="814" type="line"/>
      <point x="419" y="813"/>
      <point x="418" y="813" type="qcurve"/>
      <point x="414" y="813"/>
      <point x="346" y="810"/>
      <point x="336" y="809" type="qcurve"/>
      <point x="328" y="808"/>
      <point x="290" y="793"/>
      <point x="280" y="793" type="qcurve"/>
      <point x="277" y="793"/>
      <point x="272" y="796" type="qcurve"/>
      <point x="271" y="796"/>
      <point x="271" y="797" type="qcurve"/>
      <point x="261" y="810"/>
      <point x="261" y="816" type="qcurve"/>
      <point x="261" y="836"/>
      <point x="290" y="869" type="qcurve"/>
      <point x="301" y="883"/>
      <point x="313" y="898"/>
      <point x="325" y="926"/>
      <point x="325" y="940" type="qcurve"/>
      <point x="325" y="948"/>
      <point x="320" y="953" type="qcurve"/>
      <point x="285" y="988" type="line"/>
      <point x="278" y="995"/>
      <point x="262" y="995" type="qcurve"/>
      <point x="250" y="995"/>
      <point x="205" y="986"/>
      <point x="193" y="986" type="qcurve"/>
      <point x="156" y="986"/>
      <point x="126" y="1005" type="qcurve"/>
      <point x="111" y="1029"/>
      <point x="111" y="1057" type="qcurve"/>
      <point x="111" y="1067"/>
      <point x="115" y="1088" type="qcurve"/>
      <point x="122" y="1128"/>
      <point x="122" y="1146" type="qcurve"/>
      <point x="122" y="1155"/>
      <point x="121" y="1163" type="qcurve"/>
      <point x="88" y="1196" type="line"/>
      <point x="55" y="1163" type="line"/>
      <point x="56" y="1155"/>
      <point x="56" y="1146" type="qcurve"/>
      <point x="56" y="1127"/>
      <point x="49" y="1087" type="qcurve"/>
      <point x="46" y="1067"/>
      <point x="46" y="1057" type="qcurve"/>
      <point x="46" y="1017"/>
      <point x="74" y="989" type="qcurve"/>
      <point x="109" y="954" type="line"/>
      <point x="143" y="920"/>
    </contour>
    <contour>
      <point x="9" y="743" type="qcurve"/>
      <point x="7" y="743"/>
      <point x="1" y="742"/>
      <point x="0" y="742" type="qcurve"/>
      <point x="-1" y="742"/>
      <point x="-2" y="743" type="qcurve"/>
      <point x="-37" y="778" type="line"/>
      <point x="-38" y="779"/>
      <point x="-38" y="781"/>
      <point x="-37" y="782" type="qcurve"/>
      <point x="-2" y="817" type="line"/>
      <point x="0" y="819"/>
      <point x="9" y="819" type="qcurve"/>
      <point x="13" y="819"/>
      <point x="17" y="818" type="qcurve"/>
      <point x="33" y="814"/>
      <point x="73" y="813" type="qcurve"/>
      <point x="100" y="812"/>
      <point x="128" y="809"/>
      <point x="168" y="797"/>
      <point x="179" y="786" type="qcurve"/>
      <point x="214" y="751" type="line"/>
      <point x="222" y="743"/>
      <point x="227" y="732" type="qcurve"/>
      <point x="252" y="733"/>
      <point x="260" y="734" type="qcurve"/>
      <point x="264" y="734"/>
      <point x="268" y="734" type="qcurve"/>
      <point x="306" y="734"/>
      <point x="335" y="706" type="qcurve"/>
      <point x="370" y="670" type="line"/>
      <point x="402" y="639"/>
      <point x="406" y="592" type="qcurve"/>
      <point x="406" y="586"/>
      <point x="406" y="580" type="qcurve"/>
      <point x="406" y="562"/>
      <point x="397" y="528"/>
      <point x="375" y="494"/>
      <point x="359" y="473"/>
      <point x="327" y="437"/>
      <point x="321" y="430" type="qcurve"/>
      <point x="315" y="423"/>
      <point x="309" y="417" type="qcurve"/>
      <point x="274" y="381" type="line"/>
      <point x="257" y="365"/>
      <point x="231" y="348" type="qcurve"/>
      <point x="243" y="322"/>
      <point x="253" y="275" type="qcurve"/>
      <point x="268" y="201"/>
      <point x="283" y="173" type="qcurve"/>
      <point x="291" y="170"/>
      <point x="300" y="170" type="qcurve"/>
      <point x="307" y="170"/>
      <point x="318" y="172"/>
      <point x="331" y="177"/>
      <point x="335" y="178" type="qcurve"/>
      <point x="375" y="194" type="line"/>
      <point x="376" y="194"/>
      <point x="376" y="194" type="qcurve"/>
      <point x="377" y="194"/>
      <point x="378" y="193" type="qcurve"/>
      <point x="413" y="158" type="line"/>
      <point x="414" y="157"/>
      <point x="414" y="155"/>
      <point x="413" y="154" type="qcurve"/>
      <point x="378" y="119" type="line"/>
      <point x="377" y="119"/>
      <point x="377" y="118" type="qcurve"/>
      <point x="337" y="102" type="line"/>
      <point x="332" y="101"/>
      <point x="319" y="97"/>
      <point x="307" y="94"/>
      <point x="300" y="94" type="qcurve"/>
      <point x="277" y="94"/>
      <point x="260" y="111" type="qcurve"/>
      <point x="225" y="146" type="line"/>
      <point x="212" y="159"/>
      <point x="192" y="208"/>
      <point x="184" y="243"/>
      <point x="177" y="274" type="qcurve"/>
      <point x="171" y="303"/>
      <point x="168" y="314" type="qcurve"/>
      <point x="152" y="310"/>
      <point x="128" y="310" type="qcurve"/>
      <point x="114" y="310"/>
      <point x="106" y="319" type="qcurve"/>
      <point x="70" y="354" type="line"/>
      <point x="58" y="366"/>
      <point x="58" y="396" type="qcurve"/>
      <point x="58" y="414"/>
      <point x="66" y="422" type="qcurve"/>
      <point x="101" y="457" type="line"/>
      <point x="106" y="462"/>
      <point x="113" y="462" type="qcurve"/>
      <point x="115" y="462"/>
      <point x="116" y="462" type="qcurve"/>
      <point x="140" y="459"/>
      <point x="161" y="438" type="qcurve"/>
      <point x="163" y="437"/>
      <point x="189" y="410"/>
      <point x="196" y="403" type="qcurve"/>
      <point x="234" y="425"/>
      <point x="251" y="439" type="qcurve"/>
      <point x="257" y="445"/>
      <point x="267" y="457" type="qcurve"/>
      <point x="289" y="482"/>
      <point x="310" y="509"/>
      <point x="331" y="556"/>
      <point x="331" y="580" type="qcurve"/>
      <point x="331" y="616"/>
      <point x="312" y="646" type="qcurve"/>
      <point x="292" y="659"/>
      <point x="268" y="659" type="qcurve"/>
      <point x="265" y="659"/>
      <point x="256" y="658"/>
      <point x="247" y="657"/>
      <point x="244" y="657" type="qcurve"/>
      <point x="243" y="637"/>
      <point x="232" y="626" type="qcurve"/>
      <point x="197" y="590" type="line"/>
      <point x="185" y="578"/>
      <point x="160" y="578" type="qcurve"/>
      <point x="157" y="578" type="line"/>
      <point x="157" y="578"/>
      <point x="156" y="578"/>
      <point x="155" y="578" type="qcurve"/>
      <point x="128" y="578"/>
      <point x="120" y="585" type="qcurve"/>
      <point x="85" y="621" type="line"/>
      <point x="82" y="624"/>
      <point x="82" y="627" type="qcurve"/>
      <point x="82" y="628"/>
      <point x="82" y="628" type="qcurve"/>
      <point x="84" y="655"/>
      <point x="100" y="671" type="qcurve"/>
      <point x="136" y="706" type="line"/>
      <point x="144" y="715"/>
      <point x="155" y="720" type="qcurve"/>
      <point x="154" y="724"/>
      <point x="153" y="726" type="qcurve"/>
      <point x="131" y="735"/>
      <point x="73" y="737" type="qcurve"/>
      <point x="32" y="738"/>
      <point x="15" y="742" type="qcurve"/>
      <point x="12" y="743"/>
    </contour>
    <contour>
      <point x="268" y="664" type="qcurve"/>
      <point x="293" y="664"/>
      <point x="315" y="650" type="qcurve"/>
      <point x="316" y="650"/>
      <point x="316" y="650" type="qcurve"/>
      <point x="332" y="624"/>
      <point x="335" y="592" type="qcurve"/>
      <point x="336" y="586"/>
      <point x="336" y="580" type="qcurve"/>
      <point x="336" y="563"/>
      <point x="328" y="531"/>
      <point x="305" y="495"/>
      <point x="295" y="481"/>
      <point x="257" y="438"/>
      <point x="255" y="436" type="qcurve"/>
      <point x="255" y="435" type="line"/>
      <point x="237" y="421"/>
      <point x="197" y="398" type="qcurve"/>
      <point x="196" y="397"/>
      <point x="196" y="397" type="qcurve"/>
      <point x="195" y="397"/>
      <point x="193" y="399"/>
      <point x="157" y="435" type="qcurve"/>
      <point x="138" y="454"/>
      <point x="116" y="457" type="qcurve"/>
      <point x="114" y="457"/>
      <point x="113" y="457" type="qcurve"/>
      <point x="108" y="457"/>
      <point x="105" y="454" type="qcurve"/>
      <point x="69" y="418" type="line"/>
      <point x="63" y="412"/>
      <point x="63" y="396" type="qcurve"/>
      <point x="63" y="368"/>
      <point x="74" y="357" type="qcurve"/>
      <point x="109" y="322" type="line"/>
      <point x="116" y="315"/>
      <point x="128" y="315" type="qcurve"/>
      <point x="153" y="315"/>
      <point x="169" y="320" type="qcurve"/>
      <point x="169" y="320"/>
      <point x="170" y="320" type="qcurve"/>
      <point x="171" y="320"/>
      <point x="172" y="318" type="qcurve"/>
      <point x="175" y="306"/>
      <point x="182" y="275" type="qcurve"/>
      <point x="202" y="176"/>
      <point x="229" y="150" type="qcurve"/>
      <point x="264" y="115" type="line"/>
      <point x="280" y="99"/>
      <point x="300" y="99" type="qcurve"/>
      <point x="307" y="99"/>
      <point x="318" y="102"/>
      <point x="331" y="106"/>
      <point x="335" y="107" type="qcurve"/>
      <point x="375" y="123" type="line"/>
      <point x="408" y="156" type="line"/>
      <point x="375" y="188" type="line"/>
      <point x="337" y="173" type="line"/>
      <point x="332" y="172"/>
      <point x="319" y="167"/>
      <point x="307" y="165"/>
      <point x="300" y="165" type="qcurve"/>
      <point x="290" y="165"/>
      <point x="280" y="168" type="qcurve"/>
      <point x="280" y="169"/>
      <point x="279" y="170" type="qcurve"/>
      <point x="263" y="199"/>
      <point x="248" y="274" type="qcurve"/>
      <point x="238" y="321"/>
      <point x="226" y="348" type="qcurve"/>
      <point x="226" y="348"/>
      <point x="226" y="349" type="qcurve"/>
      <point x="226" y="350"/>
      <point x="227" y="351" type="qcurve"/>
      <point x="253" y="368"/>
      <point x="270" y="385" type="qcurve"/>
      <point x="305" y="420" type="line"/>
      <point x="312" y="427"/>
      <point x="317" y="434" type="qcurve"/>
      <point x="324" y="442"/>
      <point x="338" y="457" type="qcurve"/>
      <point x="359" y="482"/>
      <point x="381" y="509"/>
      <point x="401" y="556"/>
      <point x="401" y="580" type="qcurve"/>
      <point x="401" y="586"/>
      <point x="401" y="592" type="qcurve"/>
      <point x="397" y="637"/>
      <point x="367" y="667" type="qcurve"/>
      <point x="331" y="702" type="line"/>
      <point x="304" y="729"/>
      <point x="268" y="729" type="qcurve"/>
      <point x="264" y="729"/>
      <point x="260" y="729" type="qcurve"/>
      <point x="239" y="727"/>
      <point x="225" y="727" type="qcurve"/>
      <point x="224" y="727"/>
      <point x="223" y="728" type="qcurve"/>
      <point x="219" y="739"/>
      <point x="211" y="747" type="qcurve"/>
      <point x="175" y="782" type="line"/>
      <point x="160" y="797"/>
      <point x="112" y="806"/>
      <point x="73" y="808" type="qcurve"/>
      <point x="32" y="809"/>
      <point x="15" y="813" type="qcurve"/>
      <point x="12" y="814"/>
      <point x="9" y="814" type="qcurve"/>
      <point x="6" y="814"/>
      <point x="1" y="813" type="qcurve"/>
      <point x="-32" y="780" type="line"/>
      <point x="1" y="747" type="line"/>
      <point x="5" y="748"/>
      <point x="9" y="748" type="qcurve"/>
      <point x="13" y="748"/>
      <point x="17" y="747" type="qcurve"/>
      <point x="33" y="743"/>
      <point x="73" y="742" type="qcurve"/>
      <point x="133" y="740"/>
      <point x="156" y="730" type="qcurve"/>
      <point x="158" y="729"/>
      <point x="161" y="719" type="qcurve"/>
      <point x="161" y="719"/>
      <point x="161" y="718" type="qcurve"/>
      <point x="161" y="717"/>
      <point x="159" y="716" type="qcurve"/>
      <point x="147" y="711"/>
      <point x="139" y="703" type="qcurve"/>
      <point x="104" y="668" type="line"/>
      <point x="89" y="653"/>
      <point x="87" y="628" type="qcurve"/>
      <point x="87" y="628"/>
      <point x="87" y="627" type="qcurve"/>
      <point x="87" y="626"/>
      <point x="88" y="624" type="qcurve"/>
      <point x="124" y="589" type="line"/>
      <point x="130" y="583"/>
      <point x="157" y="583" type="qcurve"/>
      <point x="160" y="583" type="line"/>
      <point x="183" y="583"/>
      <point x="193" y="594" type="qcurve"/>
      <point x="229" y="629" type="line"/>
      <point x="239" y="639"/>
      <point x="239" y="659" type="qcurve"/>
      <point x="239" y="662"/>
      <point x="241" y="662" type="qcurve"/>
      <point x="244" y="662"/>
      <point x="263" y="664"/>
    </contour>
    <contour>
      <point x="132" y="387" type="qcurve"/>
      <point x="137" y="387"/>
      <point x="137" y="383" type="qcurve"/>
      <point x="137" y="381"/>
      <point x="132" y="381" type="qcurve"/>
      <point x="129" y="381"/>
      <point x="129" y="384" type="qcurve"/>
      <point x="129" y="387"/>
    </contour>
  </outline>
</glyph>
<glyph name="uni0989" format="2">
  <advance width="644"/>
  <unicode hex="0989"/>
  <outline>
    <contour>
      <point x="380" y="916" type="qcurve"/>
      <point x="354" y="911"/>
      <point x="224" y="850"/>
      <point x="182" y="850" type="qcurve"/>
      <point x="182" y="850"/>
      <point x="181" y="850" type="qcurve"/>
      <point x="146" y="858"/>
      <point x="113" y="891" type="qcurve"/>
      <point x="78" y="927" type="line"/>
      <point x="53" y="951"/>
      <point x="44" y="975" type="qcurve"/>
      <point x="44" y="976"/>
      <point x="44" y="976" type="qcurve"/>
      <point x="44" y="977"/>
      <point x="45" y="978" type="qcurve"/>
      <point x="80" y="1013" type="line"/>
      <point x="81" y="1014"/>
      <point x="83" y="1014"/>
      <point x="84" y="1013" type="qcurve"/>
      <point x="119" y="978" type="line"/>
      <point x="120" y="977"/>
      <point x="120" y="977" type="qcurve"/>
      <point x="125" y="964"/>
      <point x="136" y="949" type="qcurve"/>
      <point x="159" y="931"/>
      <point x="182" y="926" type="qcurve"/>
      <point x="225" y="926"/>
      <point x="297" y="961" type="qcurve"/>
      <point x="367" y="994"/>
      <point x="406" y="994" type="qcurve"/>
      <point x="414" y="994"/>
      <point x="417" y="990" type="qcurve"/>
      <point x="453" y="955" type="line"/>
      <point x="456" y="951"/>
      <point x="456" y="944" type="qcurve"/>
      <point x="456" y="942"/>
      <point x="456" y="937"/>
      <point x="456" y="936" type="qcurve"/>
      <point x="456" y="931"/>
      <point x="456" y="926" type="qcurve"/>
      <point x="456" y="896"/>
      <point x="442" y="882" type="qcurve"/>
      <point x="426" y="866" type="line"/>
      <point x="417" y="851"/>
      <point x="397" y="814" type="qcurve"/>
      <point x="590" y="818" type="line"/>
      <point x="646" y="822" type="line"/>
      <point x="647" y="822"/>
      <point x="648" y="821" type="qcurve"/>
      <point x="683" y="786" type="line"/>
      <point x="684" y="785"/>
      <point x="684" y="783"/>
      <point x="683" y="782" type="qcurve"/>
      <point x="648" y="747" type="line"/>
      <point x="647" y="746"/>
      <point x="646" y="746" type="qcurve"/>
      <point x="590" y="742" type="line"/>
      <point x="362" y="738" type="line"/>
      <point x="361" y="738"/>
      <point x="360" y="739" type="qcurve"/>
      <point x="359" y="740"/>
      <point x="350" y="746"/>
      <point x="348" y="748" type="qcurve"/>
      <point x="312" y="783" type="line"/>
      <point x="308" y="788"/>
      <point x="308" y="792" type="qcurve"/>
      <point x="308" y="793"/>
      <point x="308" y="793" type="qcurve"/>
      <point x="354" y="875"/>
      <point x="357" y="878" type="qcurve"/>
      <point x="375" y="896" type="line"/>
      <point x="379" y="904"/>
    </contour>
    <contour>
      <point x="182" y="855" type="qcurve"/>
      <point x="224" y="855"/>
      <point x="354" y="917"/>
      <point x="382" y="921" type="qcurve"/>
      <point x="382" y="921"/>
      <point x="383" y="921" type="qcurve"/>
      <point x="385" y="921"/>
      <point x="385" y="919" type="qcurve"/>
      <point x="385" y="906"/>
      <point x="380" y="894" type="qcurve"/>
      <point x="379" y="893"/>
      <point x="379" y="893" type="qcurve"/>
      <point x="360" y="874" type="line"/>
      <point x="359" y="873"/>
      <point x="313" y="791" type="qcurve"/>
      <point x="313" y="789"/>
      <point x="316" y="787" type="qcurve"/>
      <point x="351" y="752" type="line"/>
      <point x="353" y="750"/>
      <point x="361" y="744"/>
      <point x="363" y="743" type="qcurve"/>
      <point x="590" y="747" type="line"/>
      <point x="645" y="751" type="line"/>
      <point x="678" y="784" type="line"/>
      <point x="645" y="817" type="line"/>
      <point x="590" y="813" type="line"/>
      <point x="393" y="809" type="line"/>
      <point x="390" y="809"/>
      <point x="390" y="812" type="qcurve"/>
      <point x="390" y="813"/>
      <point x="390" y="813" type="qcurve"/>
      <point x="413" y="853"/>
      <point x="422" y="868" type="qcurve"/>
      <point x="422" y="869"/>
      <point x="422" y="869" type="qcurve"/>
      <point x="439" y="885" type="line"/>
      <point x="451" y="898"/>
      <point x="451" y="926" type="qcurve"/>
      <point x="451" y="928"/>
      <point x="451" y="934"/>
      <point x="451" y="936" type="qcurve"/>
      <point x="451" y="937"/>
      <point x="451" y="942"/>
      <point x="451" y="944" type="qcurve"/>
      <point x="451" y="949"/>
      <point x="449" y="951" type="qcurve"/>
      <point x="414" y="987" type="line"/>
      <point x="412" y="989"/>
      <point x="406" y="989" type="qcurve"/>
      <point x="368" y="989"/>
      <point x="299" y="956" type="qcurve"/>
      <point x="275" y="944"/>
      <point x="248" y="933"/>
      <point x="202" y="921"/>
      <point x="182" y="921" type="qcurve"/>
      <point x="182" y="921"/>
      <point x="181" y="921" type="qcurve"/>
      <point x="157" y="927"/>
      <point x="132" y="945" type="qcurve"/>
      <point x="132" y="946"/>
      <point x="132" y="946" type="qcurve"/>
      <point x="120" y="961"/>
      <point x="115" y="975" type="qcurve"/>
      <point x="82" y="1008" type="line"/>
      <point x="50" y="975" type="line"/>
      <point x="58" y="953"/>
      <point x="81" y="930" type="qcurve"/>
      <point x="117" y="895" type="line"/>
      <point x="148" y="863"/>
    </contour>
    <contour>
      <point x="275" y="491" type="qcurve"/>
      <point x="275" y="494"/>
      <point x="276" y="505"/>
      <point x="276" y="507" type="qcurve"/>
      <point x="276" y="530"/>
      <point x="287" y="576"/>
      <point x="305" y="631"/>
      <point x="308" y="645" type="qcurve"/>
      <point x="312" y="660"/>
      <point x="312" y="673" type="qcurve"/>
      <point x="312" y="692"/>
      <point x="304" y="708" type="qcurve"/>
      <point x="261" y="732"/>
      <point x="154" y="738" type="qcurve"/>
      <point x="146" y="739"/>
      <point x="136" y="739" type="qcurve"/>
      <point x="120" y="739"/>
      <point x="54" y="733"/>
      <point x="38" y="733" type="qcurve"/>
      <point x="25" y="733"/>
      <point x="14" y="734" type="qcurve"/>
      <point x="6" y="734" type="line"/>
      <point x="5" y="734"/>
      <point x="4" y="735" type="qcurve"/>
      <point x="-31" y="770" type="line"/>
      <point x="-32" y="771"/>
      <point x="-32" y="773"/>
      <point x="-31" y="774" type="qcurve"/>
      <point x="4" y="809" type="line"/>
      <point x="5" y="810"/>
      <point x="6" y="810" type="qcurve"/>
      <point x="14" y="810" type="line"/>
      <point x="25" y="808"/>
      <point x="38" y="808" type="qcurve"/>
      <point x="54" y="808"/>
      <point x="120" y="815"/>
      <point x="136" y="815" type="qcurve"/>
      <point x="146" y="815"/>
      <point x="154" y="814" type="qcurve"/>
      <point x="193" y="812"/>
      <point x="245" y="805"/>
      <point x="311" y="784"/>
      <point x="329" y="766" type="qcurve"/>
      <point x="365" y="731" type="line"/>
      <point x="388" y="708"/>
      <point x="388" y="673" type="qcurve"/>
      <point x="388" y="659"/>
      <point x="384" y="643" type="qcurve"/>
      <point x="381" y="633"/>
      <point x="356" y="553"/>
      <point x="354" y="529" type="qcurve"/>
      <point x="357" y="532"/>
      <point x="362" y="533" type="qcurve"/>
      <point x="367" y="534"/>
      <point x="374" y="539" type="qcurve"/>
      <point x="406" y="571" type="line"/>
      <point x="429" y="594"/>
      <point x="450" y="594" type="qcurve"/>
      <point x="450" y="594"/>
      <point x="451" y="594" type="qcurve"/>
      <point x="462" y="591"/>
      <point x="472" y="581" type="qcurve"/>
      <point x="507" y="546" type="line"/>
      <point x="516" y="537"/>
      <point x="527" y="518" type="qcurve"/>
      <point x="532" y="513" type="line"/>
      <point x="538" y="507"/>
      <point x="549" y="492"/>
      <point x="557" y="480"/>
      <point x="564" y="462"/>
      <point x="568" y="452"/>
      <point x="571" y="429"/>
      <point x="573" y="421"/>
      <point x="575" y="395"/>
      <point x="575" y="388"/>
      <point x="576" y="358"/>
      <point x="576" y="355" type="qcurve"/>
      <point x="576" y="348"/>
      <point x="576" y="341" type="qcurve"/>
      <point x="576" y="263"/>
      <point x="548" y="214" type="qcurve"/>
      <point x="526" y="133"/>
      <point x="498" y="105" type="qcurve"/>
      <point x="463" y="70" type="line"/>
      <point x="442" y="49"/>
      <point x="415" y="49" type="qcurve"/>
      <point x="406" y="49"/>
      <point x="374" y="53" type="qcurve"/>
      <point x="337" y="57"/>
      <point x="318" y="57" type="qcurve"/>
      <point x="294" y="57"/>
      <point x="272" y="79" type="qcurve"/>
      <point x="236" y="114" type="line"/>
      <point x="212" y="139"/>
      <point x="179" y="214" type="qcurve"/>
      <point x="161" y="255"/>
      <point x="153" y="266" type="qcurve"/>
      <point x="152" y="266"/>
      <point x="152" y="266" type="qcurve"/>
      <point x="112" y="410" type="line"/>
      <point x="112" y="410"/>
      <point x="112" y="411" type="qcurve"/>
      <point x="108" y="439" type="line"/>
      <point x="108" y="440"/>
      <point x="109" y="441" type="qcurve"/>
      <point x="144" y="476" type="line"/>
      <point x="145" y="477"/>
      <point x="147" y="477"/>
      <point x="148" y="476" type="qcurve"/>
      <point x="183" y="441" type="line"/>
      <point x="184" y="440"/>
      <point x="184" y="439" type="qcurve"/>
      <point x="188" y="412" type="line"/>
      <point x="228" y="268" type="line"/>
      <point x="236" y="257"/>
      <point x="254" y="216" type="qcurve"/>
      <point x="278" y="162"/>
      <point x="293" y="139" type="qcurve"/>
      <point x="305" y="133"/>
      <point x="318" y="133" type="qcurve"/>
      <point x="336" y="133"/>
      <point x="401" y="125"/>
      <point x="410" y="125" type="qcurve"/>
      <point x="412" y="125"/>
      <point x="415" y="125" type="qcurve"/>
      <point x="429" y="125"/>
      <point x="441" y="131" type="qcurve"/>
      <point x="457" y="158"/>
      <point x="472" y="216" type="qcurve"/>
      <point x="500" y="264"/>
      <point x="500" y="341" type="qcurve"/>
      <point x="500" y="347"/>
      <point x="500" y="368" type="qcurve"/>
      <point x="499" y="401"/>
      <point x="495" y="437"/>
      <point x="478" y="487"/>
      <point x="462" y="505" type="qcurve"/>
      <point x="453" y="514" type="line"/>
      <point x="453" y="514"/>
      <point x="451" y="518" type="qcurve"/>
      <point x="450" y="518"/>
      <point x="450" y="518" type="qcurve"/>
      <point x="436" y="518"/>
      <point x="421" y="507" type="qcurve"/>
      <point x="388" y="474" type="line"/>
      <point x="373" y="459"/>
      <point x="362" y="457" type="qcurve"/>
      <point x="359" y="457"/>
      <point x="355" y="454" type="qcurve"/>
      <point x="346" y="444" type="line"/>
      <point x="338" y="437"/>
      <point x="331" y="437" type="qcurve"/>
      <point x="328" y="437"/>
      <point x="326" y="437" type="qcurve"/>
      <point x="319" y="437"/>
      <point x="315" y="441" type="qcurve"/>
      <point x="280" y="476" type="line"/>
      <point x="275" y="481"/>
    </contour>
    <contour>
      <point x="38" y="738" type="qcurve"/>
      <point x="54" y="738"/>
      <point x="120" y="744"/>
      <point x="136" y="744" type="qcurve"/>
      <point x="146" y="744"/>
      <point x="154" y="743" type="qcurve"/>
      <point x="263" y="737"/>
      <point x="307" y="712" type="qcurve"/>
      <point x="308" y="711"/>
      <point x="308" y="711" type="qcurve"/>
      <point x="317" y="694"/>
      <point x="317" y="673" type="qcurve"/>
      <point x="317" y="659"/>
      <point x="313" y="643" type="qcurve"/>
      <point x="310" y="629"/>
      <point x="292" y="576"/>
      <point x="281" y="529"/>
      <point x="281" y="507" type="qcurve"/>
      <point x="281" y="504"/>
      <point x="280" y="494"/>
      <point x="280" y="491" type="qcurve"/>
      <point x="280" y="483"/>
      <point x="283" y="480" type="qcurve"/>
      <point x="319" y="445" type="line"/>
      <point x="321" y="442"/>
      <point x="326" y="442" type="qcurve"/>
      <point x="327" y="442"/>
      <point x="330" y="442"/>
      <point x="331" y="442" type="qcurve"/>
      <point x="336" y="442"/>
      <point x="342" y="448" type="qcurve"/>
      <point x="352" y="458" type="line"/>
      <point x="356" y="461"/>
      <point x="362" y="462" type="qcurve"/>
      <point x="371" y="464"/>
      <point x="384" y="477" type="qcurve"/>
      <point x="418" y="510" type="line"/>
      <point x="418" y="510"/>
      <point x="418" y="511" type="qcurve"/>
      <point x="434" y="523"/>
      <point x="450" y="523" type="qcurve"/>
      <point x="453" y="523"/>
      <point x="457" y="518" type="qcurve"/>
      <point x="465" y="509" type="line"/>
      <point x="483" y="489"/>
      <point x="501" y="435"/>
      <point x="504" y="401"/>
      <point x="505" y="363" type="qcurve"/>
      <point x="505" y="349"/>
      <point x="505" y="341" type="qcurve"/>
      <point x="505" y="263"/>
      <point x="477" y="214" type="qcurve"/>
      <point x="461" y="155"/>
      <point x="445" y="127" type="qcurve"/>
      <point x="444" y="127"/>
      <point x="444" y="126" type="qcurve"/>
      <point x="430" y="120"/>
      <point x="415" y="120" type="qcurve"/>
      <point x="406" y="120"/>
      <point x="374" y="124" type="qcurve"/>
      <point x="337" y="128"/>
      <point x="318" y="128" type="qcurve"/>
      <point x="304" y="128"/>
      <point x="290" y="135" type="qcurve"/>
      <point x="290" y="136"/>
      <point x="289" y="136" type="qcurve"/>
      <point x="274" y="159"/>
      <point x="249" y="214" type="qcurve"/>
      <point x="231" y="255"/>
      <point x="223" y="266" type="qcurve"/>
      <point x="183" y="410" type="line"/>
      <point x="183" y="410"/>
      <point x="183" y="411" type="qcurve"/>
      <point x="179" y="438" type="line"/>
      <point x="146" y="471" type="line"/>
      <point x="113" y="438" type="line"/>
      <point x="117" y="412" type="line"/>
      <point x="157" y="268" type="line"/>
      <point x="165" y="257"/>
      <point x="183" y="216" type="qcurve"/>
      <point x="216" y="142"/>
      <point x="240" y="118" type="qcurve"/>
      <point x="275" y="82" type="line"/>
      <point x="296" y="62"/>
      <point x="318" y="62" type="qcurve"/>
      <point x="336" y="62"/>
      <point x="401" y="55"/>
      <point x="410" y="54" type="qcurve"/>
      <point x="412" y="54"/>
      <point x="415" y="54" type="qcurve"/>
      <point x="440" y="54"/>
      <point x="459" y="74" type="qcurve"/>
      <point x="495" y="109" type="line"/>
      <point x="522" y="136"/>
      <point x="543" y="216" type="qcurve"/>
      <point x="571" y="264"/>
      <point x="571" y="341" type="qcurve"/>
      <point x="571" y="348"/>
      <point x="570" y="368" type="qcurve"/>
      <point x="569" y="404"/>
      <point x="566" y="441"/>
      <point x="547" y="491"/>
      <point x="528" y="510" type="qcurve"/>
      <point x="523" y="515" type="line"/>
      <point x="512" y="533"/>
      <point x="504" y="542" type="qcurve"/>
      <point x="468" y="577" type="line"/>
      <point x="459" y="587"/>
      <point x="450" y="589" type="qcurve"/>
      <point x="431" y="589"/>
      <point x="409" y="567" type="qcurve"/>
      <point x="378" y="535" type="line"/>
      <point x="377" y="535"/>
      <point x="377" y="535" type="qcurve"/>
      <point x="370" y="529"/>
      <point x="362" y="528" type="qcurve"/>
      <point x="358" y="527"/>
      <point x="352" y="522" type="qcurve"/>
      <point x="351" y="521"/>
      <point x="350" y="521" type="qcurve"/>
      <point x="348" y="521"/>
      <point x="348" y="523" type="qcurve"/>
      <point x="348" y="523"/>
      <point x="348" y="524" type="qcurve"/>
      <point x="350" y="549"/>
      <point x="377" y="637"/>
      <point x="379" y="645" type="qcurve"/>
      <point x="383" y="660"/>
      <point x="383" y="673" type="qcurve"/>
      <point x="383" y="706"/>
      <point x="361" y="727" type="qcurve"/>
      <point x="326" y="762" type="line"/>
      <point x="287" y="801"/>
      <point x="154" y="809" type="qcurve"/>
      <point x="146" y="810"/>
      <point x="136" y="810" type="qcurve"/>
      <point x="120" y="810"/>
      <point x="54" y="803"/>
      <point x="38" y="803" type="qcurve"/>
      <point x="25" y="803"/>
      <point x="14" y="805" type="qcurve"/>
      <point x="7" y="805" type="line"/>
      <point x="-26" y="772" type="line"/>
      <point x="7" y="739" type="line"/>
      <point x="14" y="739" type="line"/>
      <point x="25" y="738"/>
    </contour>
  </outline>
</glyph>
<glyph name="uni098F" format="2">
  <advance width="362"/>
  <unicode hex="098F"/>
  <outline>
    <contour>
      <point x="113" y="704" type="qcurve"/>
      <point x="113" y="705"/>
      <point x="113" y="709"/>
      <point x="113" y="710" type="qcurve"/>
      <point x="113" y="724"/>
      <point x="118" y="738" type="qcurve"/>
      <point x="102" y="740"/>
      <point x="83" y="740" type="qcurve"/>
      <point x="1" y="736" type="line"/>
      <point x="0" y="736"/>
      <point x="-1" y="737" type="qcurve"/>
      <point x="-36" y="772" type="line"/>
      <point x="-37" y="773"/>
      <point x="-37" y="775"/>
      <point x="-36" y="776" type="qcurve"/>
      <point x="-1" y="811" type="line"/>
      <point x="0" y="812"/>
      <point x="1" y="812" type="qcurve"/>
      <point x="83" y="816" type="line"/>
      <point x="142" y="816"/>
      <point x="167" y="794" type="qcurve"/>
      <point x="183" y="810"/>
      <point x="205" y="810" type="qcurve"/>
      <point x="213" y="810"/>
      <point x="235" y="792"/>
      <point x="262" y="765"/>
      <point x="267" y="761" type="qcurve"/>
      <point x="302" y="726" type="line"/>
      <point x="303" y="725"/>
      <point x="303" y="725" type="qcurve"/>
      <point x="323" y="649" type="line"/>
      <point x="323" y="649"/>
      <point x="323" y="648" type="qcurve"/>
      <point x="329" y="576" type="line"/>
      <point x="329" y="576"/>
      <point x="329" y="576" type="qcurve"/>
      <point x="323" y="522" type="line"/>
      <point x="323" y="522"/>
      <point x="323" y="521" type="qcurve"/>
      <point x="311" y="479" type="line"/>
      <point x="290" y="403"/>
      <point x="290" y="309" type="qcurve"/>
      <point x="290" y="263"/>
      <point x="295" y="212" type="qcurve"/>
      <point x="296" y="197"/>
      <point x="311" y="163" type="qcurve"/>
      <point x="327" y="126"/>
      <point x="327" y="110" type="qcurve"/>
      <point x="327" y="109"/>
      <point x="326" y="108" type="qcurve"/>
      <point x="291" y="73" type="line"/>
      <point x="290" y="72"/>
      <point x="288" y="72"/>
      <point x="287" y="73" type="qcurve"/>
      <point x="252" y="108" type="line"/>
      <point x="251" y="109"/>
      <point x="251" y="110" type="qcurve"/>
      <point x="251" y="111"/>
      <point x="251" y="112" type="qcurve"/>
      <point x="237" y="120"/>
      <point x="231" y="120" type="qcurve"/>
      <point x="212" y="120"/>
      <point x="196" y="119"/>
      <point x="171" y="111"/>
      <point x="163" y="103" type="qcurve"/>
      <point x="162" y="103"/>
      <point x="162" y="102" type="qcurve"/>
      <point x="155" y="100"/>
      <point x="125" y="79"/>
      <point x="116" y="76" type="qcurve"/>
      <point x="107" y="74"/>
      <point x="92" y="65" type="qcurve"/>
      <point x="69" y="52"/>
      <point x="57" y="52" type="qcurve"/>
      <point x="41" y="52"/>
      <point x="31" y="62" type="qcurve"/>
      <point x="-4" y="97" type="line"/>
      <point x="-11" y="104"/>
      <point x="-19" y="123" type="qcurve"/>
      <point x="-24" y="138"/>
      <point x="-28" y="142" type="qcurve"/>
      <point x="-29" y="143"/>
      <point x="-29" y="145"/>
      <point x="-28" y="146" type="qcurve"/>
      <point x="13" y="187" type="line"/>
      <point x="14" y="188"/>
      <point x="16" y="188"/>
      <point x="17" y="187" type="qcurve"/>
      <point x="52" y="152" type="line"/>
      <point x="53" y="151"/>
      <point x="53" y="149"/>
      <point x="52" y="148" type="qcurve"/>
      <point x="48" y="144" type="line"/>
      <point x="51" y="139"/>
      <point x="56" y="128" type="qcurve"/>
      <point x="56" y="128"/>
      <point x="57" y="128" type="qcurve"/>
      <point x="68" y="128"/>
      <point x="89" y="140" type="qcurve"/>
      <point x="106" y="149"/>
      <point x="114" y="152" type="qcurve"/>
      <point x="123" y="154"/>
      <point x="153" y="175"/>
      <point x="160" y="177" type="qcurve"/>
      <point x="177" y="194"/>
      <point x="222" y="196" type="qcurve"/>
      <point x="220" y="204"/>
      <point x="219" y="212" type="qcurve"/>
      <point x="214" y="263"/>
      <point x="214" y="309" type="qcurve"/>
      <point x="214" y="403"/>
      <point x="235" y="481" type="qcurve"/>
      <point x="247" y="522" type="line"/>
      <point x="253" y="576" type="line"/>
      <point x="247" y="648" type="line"/>
      <point x="228" y="720" type="line"/>
      <point x="220" y="727"/>
      <point x="215" y="730" type="qcurve"/>
      <point x="215" y="713"/>
      <point x="205" y="703" type="qcurve"/>
      <point x="170" y="668" type="line"/>
      <point x="164" y="662"/>
      <point x="157" y="662" type="qcurve"/>
      <point x="151" y="662"/>
      <point x="150" y="664" type="qcurve"/>
      <point x="114" y="699" type="line"/>
      <point x="113" y="701"/>
    </contour>
    <contour>
      <point x="210" y="730" type="qcurve"/>
      <point x="210" y="731"/>
      <point x="210" y="734"/>
      <point x="210" y="735" type="qcurve"/>
      <point x="210" y="737"/>
      <point x="212" y="737" type="qcurve"/>
      <point x="213" y="737"/>
      <point x="213" y="737" type="qcurve"/>
      <point x="221" y="733"/>
      <point x="232" y="723" type="qcurve"/>
      <point x="233" y="723"/>
      <point x="233" y="722" type="qcurve"/>
      <point x="252" y="649" type="line"/>
      <point x="252" y="648" type="line"/>
      <point x="258" y="576" type="line"/>
      <point x="258" y="576"/>
      <point x="258" y="576" type="qcurve"/>
      <point x="252" y="522" type="line"/>
      <point x="252" y="522"/>
      <point x="252" y="521" type="qcurve"/>
      <point x="240" y="479" type="line"/>
      <point x="219" y="403"/>
      <point x="219" y="309" type="qcurve"/>
      <point x="219" y="263"/>
      <point x="224" y="212" type="qcurve"/>
      <point x="225" y="204"/>
      <point x="228" y="194" type="qcurve"/>
      <point x="228" y="194"/>
      <point x="228" y="193" type="qcurve"/>
      <point x="228" y="191"/>
      <point x="226" y="191" type="qcurve"/>
      <point x="179" y="190"/>
      <point x="163" y="174" type="qcurve"/>
      <point x="162" y="173"/>
      <point x="162" y="173" type="qcurve"/>
      <point x="155" y="170"/>
      <point x="125" y="149"/>
      <point x="116" y="147" type="qcurve"/>
      <point x="107" y="145"/>
      <point x="92" y="136" type="qcurve"/>
      <point x="69" y="123"/>
      <point x="57" y="123" type="qcurve"/>
      <point x="52" y="123"/>
      <point x="52" y="125" type="qcurve"/>
      <point x="47" y="138"/>
      <point x="42" y="142" type="qcurve"/>
      <point x="42" y="143"/>
      <point x="42" y="145"/>
      <point x="43" y="146" type="qcurve"/>
      <point x="47" y="150" type="line"/>
      <point x="15" y="182" type="line"/>
      <point x="-23" y="144" type="line"/>
      <point x="-19" y="138"/>
      <point x="-7" y="107"/>
      <point x="-1" y="101" type="qcurve"/>
      <point x="35" y="66" type="line"/>
      <point x="43" y="57"/>
      <point x="57" y="57" type="qcurve"/>
      <point x="68" y="57"/>
      <point x="89" y="69" type="qcurve"/>
      <point x="106" y="79"/>
      <point x="114" y="81" type="qcurve"/>
      <point x="123" y="83"/>
      <point x="153" y="104"/>
      <point x="160" y="107" type="qcurve"/>
      <point x="168" y="115"/>
      <point x="196" y="124"/>
      <point x="211" y="125"/>
      <point x="231" y="125" type="qcurve"/>
      <point x="239" y="125"/>
      <point x="254" y="115" type="qcurve"/>
      <point x="256" y="115"/>
      <point x="256" y="111" type="qcurve"/>
      <point x="289" y="78" type="line"/>
      <point x="322" y="111" type="line"/>
      <point x="322" y="126"/>
      <point x="306" y="161" type="qcurve"/>
      <point x="292" y="195"/>
      <point x="290" y="212" type="qcurve"/>
      <point x="285" y="263"/>
      <point x="285" y="309" type="qcurve"/>
      <point x="285" y="403"/>
      <point x="306" y="481" type="qcurve"/>
      <point x="318" y="522" type="line"/>
      <point x="324" y="576" type="line"/>
      <point x="318" y="648" type="line"/>
      <point x="298" y="723" type="line"/>
      <point x="263" y="757" type="line"/>
      <point x="259" y="761"/>
      <point x="232" y="787"/>
      <point x="211" y="805"/>
      <point x="205" y="805" type="qcurve"/>
      <point x="185" y="805"/>
      <point x="171" y="791" type="qcurve"/>
      <point x="168" y="788"/>
      <point x="166" y="788"/>
      <point x="165" y="789" type="qcurve"/>
      <point x="143" y="811"/>
      <point x="83" y="811" type="qcurve"/>
      <point x="2" y="807" type="line"/>
      <point x="-31" y="774" type="line"/>
      <point x="2" y="741" type="line"/>
      <point x="83" y="745" type="line"/>
      <point x="104" y="745"/>
      <point x="122" y="742" type="qcurve"/>
      <point x="124" y="742"/>
      <point x="124" y="739" type="qcurve"/>
      <point x="124" y="739"/>
      <point x="124" y="738" type="qcurve"/>
      <point x="118" y="725"/>
      <point x="118" y="710" type="qcurve"/>
      <point x="118" y="709"/>
      <point x="118" y="705"/>
      <point x="118" y="704" type="qcurve"/>
      <point x="118" y="703"/>
      <point x="118" y="703" type="qcurve"/>
      <point x="153" y="668" type="line"/>
      <point x="154" y="667"/>
      <point x="157" y="667" type="qcurve"/>
      <point x="162" y="667"/>
      <point x="166" y="671" type="qcurve"/>
      <point x="202" y="707" type="line"/>
      <point x="210" y="715"/>
    </contour>
  </outline>
</glyph>
<glyph name="uni0995" format="2">
  <advance width="692"/>
  <unicode hex="0995"/>
  <outline>
    <contour>
      <point x="175" y="734" type="qcurve"/>
      <point x="170" y="734"/>
      <point x="151" y="734"/>
      <point x="146" y="734" type="qcurve"/>
      <point x="127" y="734"/>
      <point x="51" y="739"/>
      <point x="32" y="739" type="qcurve"/>
      <point x="31" y="739"/>
      <point x="28" y="739"/>
      <point x="27" y="739" type="qcurve"/>
      <point x="15" y="739"/>
      <point x="9" y="738" type="qcurve"/>
      <point x="2" y="737"/>
      <point x="-1" y="737" type="qcurve"/>
      <point x="-2" y="737"/>
      <point x="-2" y="737" type="qcurve"/>
      <point x="-5" y="737"/>
      <point x="-6" y="738" type="qcurve"/>
      <point x="-42" y="774" type="line"/>
      <point x="-43" y="775"/>
      <point x="-43" y="778"/>
      <point x="-41" y="779" type="qcurve"/>
      <point x="-6" y="814" type="line"/>
      <point x="-4" y="816"/>
      <point x="-2" y="816"/>
      <point x="1" y="813" type="qcurve"/>
      <point x="3" y="813"/>
      <point x="9" y="814"/>
      <point x="11" y="814" type="qcurve"/>
      <point x="21" y="814"/>
      <point x="32" y="814" type="qcurve"/>
      <point x="51" y="814"/>
      <point x="127" y="810"/>
      <point x="146" y="810" type="qcurve"/>
      <point x="151" y="810"/>
      <point x="170" y="810"/>
      <point x="175" y="810" type="qcurve"/>
      <point x="204" y="810"/>
      <point x="322" y="801"/>
      <point x="351" y="801" type="qcurve"/>
      <point x="366" y="801"/>
      <point x="379" y="802" type="qcurve"/>
      <point x="419" y="804"/>
      <point x="468" y="808" type="qcurve"/>
      <point x="479" y="812"/>
      <point x="489" y="812" type="qcurve"/>
      <point x="493" y="812"/>
      <point x="494" y="812" type="qcurve"/>
      <point x="494" y="812"/>
      <point x="495" y="812" type="qcurve"/>
      <point x="496" y="812"/>
      <point x="501" y="807" type="qcurve"/>
      <point x="533" y="819"/>
      <point x="580" y="819" type="qcurve"/>
      <point x="582" y="819"/>
      <point x="589" y="819"/>
      <point x="591" y="819" type="qcurve"/>
      <point x="603" y="819"/>
      <point x="668" y="820"/>
      <point x="679" y="820" type="qcurve"/>
      <point x="690" y="820"/>
      <point x="695" y="820" type="qcurve"/>
      <point x="696" y="820"/>
      <point x="697" y="819" type="qcurve"/>
      <point x="732" y="784" type="line"/>
      <point x="733" y="783"/>
      <point x="733" y="781"/>
      <point x="732" y="780" type="qcurve"/>
      <point x="697" y="745" type="line"/>
      <point x="696" y="744"/>
      <point x="695" y="744" type="qcurve"/>
      <point x="693" y="744"/>
      <point x="683" y="744"/>
      <point x="679" y="744" type="qcurve"/>
      <point x="668" y="744"/>
      <point x="603" y="743"/>
      <point x="591" y="743" type="qcurve"/>
      <point x="589" y="743"/>
      <point x="582" y="743"/>
      <point x="580" y="743" type="qcurve"/>
      <point x="519" y="743"/>
      <point x="484" y="722" type="qcurve"/>
      <point x="475" y="708"/>
      <point x="465" y="668"/>
      <point x="461" y="638"/>
      <point x="458" y="582"/>
      <point x="457" y="570" type="qcurve"/>
      <point x="466" y="576"/>
      <point x="502" y="588"/>
      <point x="529" y="594"/>
      <point x="532" y="594" type="qcurve"/>
      <point x="531" y="594"/>
      <point x="531" y="594" type="qcurve"/>
      <point x="560" y="594"/>
      <point x="579" y="575" type="qcurve"/>
      <point x="615" y="539" type="line"/>
      <point x="649" y="505"/>
      <point x="649" y="420" type="qcurve"/>
      <point x="649" y="382"/>
      <point x="629" y="362" type="qcurve"/>
      <point x="594" y="327" type="line"/>
      <point x="577" y="310"/>
      <point x="549" y="310" type="qcurve"/>
      <point x="517" y="310"/>
      <point x="448" y="338"/>
      <point x="424" y="361" type="qcurve"/>
      <point x="393" y="393" type="line"/>
      <point x="366" y="331"/>
      <point x="354" y="265" type="qcurve"/>
      <point x="383" y="216"/>
      <point x="401" y="159" type="qcurve"/>
      <point x="403" y="151"/>
      <point x="403" y="141" type="qcurve"/>
      <point x="403" y="113"/>
      <point x="390" y="100" type="qcurve"/>
      <point x="355" y="65" type="line"/>
      <point x="350" y="60"/>
      <point x="344" y="60" type="qcurve"/>
      <point x="338" y="60"/>
      <point x="333" y="66" type="qcurve"/>
      <point x="297" y="101" type="line"/>
      <point x="291" y="108"/>
      <point x="285" y="121" type="qcurve"/>
      <point x="273" y="150"/>
      <point x="271" y="168" type="qcurve"/>
      <point x="270" y="178"/>
      <point x="270" y="190" type="qcurve"/>
      <point x="270" y="223"/>
      <point x="278" y="264" type="qcurve"/>
      <point x="256" y="300"/>
      <point x="228" y="331" type="qcurve"/>
      <point x="188" y="367"/>
      <point x="145" y="390" type="qcurve"/>
      <point x="92" y="358"/>
      <point x="39" y="358" type="qcurve"/>
      <point x="31" y="358"/>
      <point x="24" y="365" type="qcurve"/>
      <point x="-12" y="401" type="line"/>
      <point x="-20" y="409"/>
      <point x="-31" y="438"/>
      <point x="-31" y="448" type="qcurve"/>
      <point x="-31" y="450"/>
      <point x="-29" y="451" type="qcurve"/>
      <point x="6" y="487" type="line"/>
      <point x="11" y="492"/>
      <point x="40" y="492" type="qcurve"/>
      <point x="82" y="492"/>
      <point x="94" y="488" type="qcurve"/>
      <point x="121" y="479"/>
      <point x="144" y="466" type="qcurve"/>
      <point x="169" y="482"/>
      <point x="194" y="504" type="qcurve"/>
      <point x="228" y="542"/>
      <point x="290" y="626" type="qcurve"/>
      <point x="343" y="699"/>
      <point x="369" y="726" type="qcurve"/>
      <point x="360" y="725"/>
      <point x="351" y="725" type="qcurve"/>
      <point x="322" y="725"/>
      <point x="204" y="734"/>
    </contour>
    <contour>
      <point x="32" y="744" type="qcurve"/>
      <point x="51" y="744"/>
      <point x="127" y="739"/>
      <point x="146" y="739" type="qcurve"/>
      <point x="151" y="739"/>
      <point x="170" y="739"/>
      <point x="175" y="739" type="qcurve"/>
      <point x="204" y="739"/>
      <point x="322" y="730"/>
      <point x="351" y="730" type="qcurve"/>
      <point x="355" y="730"/>
      <point x="371" y="731"/>
      <point x="375" y="731" type="qcurve"/>
      <point x="377" y="731"/>
      <point x="377" y="728" type="qcurve"/>
      <point x="377" y="727"/>
      <point x="376" y="727" type="qcurve"/>
      <point x="350" y="699"/>
      <point x="294" y="623" type="qcurve"/>
      <point x="232" y="539"/>
      <point x="197" y="501" type="qcurve"/>
      <point x="171" y="477"/>
      <point x="146" y="461" type="qcurve"/>
      <point x="145" y="461"/>
      <point x="144" y="461"/>
      <point x="143" y="461" type="qcurve"/>
      <point x="120" y="474"/>
      <point x="92" y="483" type="qcurve"/>
      <point x="81" y="487"/>
      <point x="40" y="487" type="qcurve"/>
      <point x="13" y="487"/>
      <point x="9" y="483" type="qcurve"/>
      <point x="-26" y="448" type="line"/>
      <point x="-26" y="439"/>
      <point x="-16" y="412"/>
      <point x="-8" y="404" type="qcurve"/>
      <point x="27" y="369" type="line"/>
      <point x="33" y="363"/>
      <point x="39" y="363" type="qcurve"/>
      <point x="91" y="363"/>
      <point x="143" y="395" type="qcurve"/>
      <point x="144" y="395"/>
      <point x="145" y="395"/>
      <point x="146" y="395" type="qcurve"/>
      <point x="191" y="371"/>
      <point x="231" y="335" type="qcurve"/>
      <point x="232" y="335"/>
      <point x="232" y="335" type="qcurve"/>
      <point x="260" y="303"/>
      <point x="282" y="265" type="qcurve"/>
      <point x="283" y="265"/>
      <point x="283" y="264" type="qcurve"/>
      <point x="275" y="223"/>
      <point x="275" y="190" type="qcurve"/>
      <point x="275" y="178"/>
      <point x="276" y="168" type="qcurve"/>
      <point x="278" y="152"/>
      <point x="290" y="123" type="qcurve"/>
      <point x="295" y="110"/>
      <point x="301" y="105" type="qcurve"/>
      <point x="336" y="69" type="line"/>
      <point x="341" y="65"/>
      <point x="344" y="65" type="qcurve"/>
      <point x="348" y="65"/>
      <point x="352" y="69" type="qcurve"/>
      <point x="387" y="104" type="line"/>
      <point x="398" y="115"/>
      <point x="398" y="141" type="qcurve"/>
      <point x="398" y="150"/>
      <point x="396" y="157" type="qcurve"/>
      <point x="378" y="214"/>
      <point x="349" y="263" type="qcurve"/>
      <point x="348" y="263"/>
      <point x="348" y="264" type="qcurve"/>
      <point x="348" y="265" type="line"/>
      <point x="361" y="334"/>
      <point x="390" y="398" type="qcurve"/>
      <point x="390" y="399"/>
      <point x="392" y="399" type="qcurve"/>
      <point x="393" y="399"/>
      <point x="394" y="399" type="qcurve"/>
      <point x="428" y="364" type="line"/>
      <point x="450" y="342"/>
      <point x="518" y="315"/>
      <point x="549" y="315" type="qcurve"/>
      <point x="575" y="315"/>
      <point x="590" y="330" type="qcurve"/>
      <point x="626" y="366" type="line"/>
      <point x="644" y="384"/>
      <point x="644" y="420" type="qcurve"/>
      <point x="644" y="503"/>
      <point x="611" y="536" type="qcurve"/>
      <point x="576" y="571" type="line"/>
      <point x="558" y="589"/>
      <point x="531" y="589" type="qcurve"/>
      <point x="492" y="589"/>
      <point x="455" y="563" type="qcurve"/>
      <point x="454" y="562"/>
      <point x="454" y="562" type="qcurve"/>
      <point x="451" y="562"/>
      <point x="451" y="565" type="qcurve"/>
      <point x="453" y="580"/>
      <point x="456" y="635"/>
      <point x="459" y="668"/>
      <point x="470" y="710"/>
      <point x="480" y="725" type="qcurve"/>
      <point x="480" y="726"/>
      <point x="480" y="726" type="qcurve"/>
      <point x="517" y="748"/>
      <point x="580" y="748" type="qcurve"/>
      <point x="582" y="748"/>
      <point x="589" y="748"/>
      <point x="591" y="748" type="qcurve"/>
      <point x="603" y="748"/>
      <point x="668" y="749"/>
      <point x="679" y="749" type="qcurve"/>
      <point x="689" y="749"/>
      <point x="694" y="749" type="qcurve"/>
      <point x="727" y="782" type="line"/>
      <point x="694" y="815" type="line"/>
      <point x="689" y="815"/>
      <point x="679" y="815" type="qcurve"/>
      <point x="668" y="815"/>
      <point x="603" y="814"/>
      <point x="591" y="814" type="qcurve"/>
      <point x="589" y="814"/>
      <point x="582" y="814"/>
      <point x="580" y="814" type="qcurve"/>
      <point x="533" y="814"/>
      <point x="501" y="802" type="qcurve"/>
      <point x="501" y="801"/>
      <point x="500" y="801" type="qcurve"/>
      <point x="499" y="801"/>
      <point x="499" y="802" type="qcurve"/>
      <point x="494" y="807" type="line"/>
      <point x="492" y="807"/>
      <point x="489" y="807" type="qcurve"/>
      <point x="479" y="807"/>
      <point x="469" y="803" type="qcurve"/>
      <point x="420" y="799"/>
      <point x="379" y="797" type="qcurve"/>
      <point x="366" y="796"/>
      <point x="351" y="796" type="qcurve"/>
      <point x="322" y="796"/>
      <point x="204" y="805"/>
      <point x="175" y="805" type="qcurve"/>
      <point x="170" y="805"/>
      <point x="151" y="805"/>
      <point x="146" y="805" type="qcurve"/>
      <point x="127" y="805"/>
      <point x="51" y="809"/>
      <point x="32" y="809" type="qcurve"/>
      <point x="15" y="809"/>
      <point x="7" y="808" type="qcurve"/>
      <point x="2" y="808"/>
      <point x="0" y="808" type="qcurve"/>
      <point x="-1" y="808"/>
      <point x="-3" y="810" type="qcurve"/>
      <point x="-37" y="776" type="line"/>
      <point x="-3" y="742" type="line"/>
      <point x="-2" y="742"/>
      <point x="-1" y="742" type="qcurve"/>
      <point x="2" y="742"/>
      <point x="15" y="744"/>
      <point x="27" y="744" type="qcurve"/>
      <point x="28" y="744"/>
      <point x="31" y="744"/>
    </contour>
    <contour>
      <point x="391" y="665" type="qcurve"/>
      <point x="394" y="665"/>
      <point x="394" y="663" type="qcurve"/>
      <point x="392" y="652"/>
      <point x="384" y="536"/>
      <point x="374" y="511" type="qcurve"/>
      <point x="369" y="498"/>
      <point x="367" y="473" type="qcurve"/>
      <point x="367" y="473"/>
      <point x="366" y="472" type="qcurve"/>
      <point x="326" y="416"/>
      <point x="300" y="335" type="qcurve"/>
      <point x="300" y="333"/>
      <point x="298" y="333" type="qcurve"/>
      <point x="297" y="333"/>
      <point x="296" y="334" type="qcurve"/>
      <point x="289" y="342"/>
      <point x="246" y="385" type="qcurve"/>
      <point x="222" y="409"/>
      <point x="194" y="430" type="qcurve"/>
      <point x="193" y="430"/>
      <point x="193" y="433"/>
      <point x="193" y="433" type="qcurve"/>
      <point x="202" y="441"/>
      <point x="246" y="485" type="qcurve"/>
      <point x="265" y="504"/>
      <point x="306" y="553"/>
      <point x="333" y="588"/>
      <point x="379" y="651"/>
      <point x="389" y="664" type="qcurve"/>
      <point x="390" y="665"/>
    </contour>
    <contour>
      <point x="387" y="654" type="qcurve"/>
      <point x="382" y="646"/>
      <point x="331" y="577"/>
      <point x="309" y="549"/>
      <point x="268" y="500"/>
      <point x="250" y="482" type="qcurve"/>
      <point x="207" y="439"/>
      <point x="199" y="432" type="qcurve"/>
      <point x="226" y="412"/>
      <point x="250" y="388" type="qcurve"/>
      <point x="291" y="347"/>
      <point x="297" y="340" type="qcurve"/>
      <point x="323" y="420"/>
      <point x="362" y="475" type="qcurve"/>
      <point x="364" y="499"/>
      <point x="369" y="513" type="qcurve"/>
      <point x="376" y="530"/>
      <point x="382" y="577"/>
      <point x="386" y="638"/>
    </contour>
    <contour>
      <point x="432" y="458" type="qcurve"/>
      <point x="432" y="461"/>
      <point x="433" y="474" type="qcurve"/>
      <point x="433" y="475"/>
      <point x="433" y="475" type="qcurve"/>
      <point x="439" y="483"/>
      <point x="445" y="490" type="qcurve"/>
      <point x="445" y="491" type="line"/>
      <point x="460" y="503"/>
      <point x="524" y="524"/>
      <point x="532" y="524" type="qcurve"/>
      <point x="533" y="524"/>
      <point x="533" y="523" type="qcurve"/>
      <point x="547" y="523"/>
      <point x="559" y="518" type="qcurve"/>
      <point x="560" y="518"/>
      <point x="560" y="517" type="qcurve"/>
      <point x="578" y="481"/>
      <point x="578" y="420" type="qcurve"/>
      <point x="578" y="401"/>
      <point x="573" y="386" type="qcurve"/>
      <point x="572" y="384"/>
      <point x="571" y="384" type="qcurve"/>
      <point x="561" y="381"/>
      <point x="549" y="381" type="qcurve"/>
      <point x="494" y="381"/>
      <point x="445" y="414" type="qcurve"/>
      <point x="445" y="415"/>
      <point x="444" y="415" type="qcurve"/>
      <point x="432" y="436"/>
    </contour>
    <contour>
      <point x="437" y="458" type="qcurve"/>
      <point x="437" y="437"/>
      <point x="448" y="418" type="qcurve"/>
      <point x="462" y="409"/>
      <point x="506" y="395"/>
      <point x="549" y="386"/>
      <point x="549" y="386" type="qcurve"/>
      <point x="560" y="386"/>
      <point x="569" y="388" type="qcurve"/>
      <point x="573" y="402"/>
      <point x="573" y="420" type="qcurve"/>
      <point x="573" y="479"/>
      <point x="556" y="514" type="qcurve"/>
      <point x="545" y="518"/>
      <point x="531" y="518" type="qcurve"/>
      <point x="530" y="518"/>
      <point x="530" y="518" type="qcurve"/>
      <point x="515" y="515"/>
      <point x="461" y="497"/>
      <point x="449" y="487" type="qcurve"/>
      <point x="443" y="480"/>
      <point x="438" y="473" type="qcurve"/>
      <point x="437" y="461"/>
    </contour>
  </outline>
</glyph>
<glyph name="uni099D" format="2">
  <advance width="727"/>
  <unicode hex="099D"/>
  <outline>
    <contour>
      <point x="529" y="168" type="qcurve"/>
      <point x="529" y="162"/>
      <point x="527" y="140"/>
      <point x="527" y="135" type="qcurve"/>
      <point x="527" y="130"/>
      <point x="528" y="112"/>
      <point x="528" y="107" type="qcurve"/>
      <point x="528" y="96"/>
      <point x="522" y="90" type="qcurve"/>
      <point x="486" y="55" type="line"/>
      <point x="484" y="52"/>
      <point x="481" y="52" type="qcurve"/>
      <point x="479" y="52"/>
      <point x="477" y="54" type="qcurve"/>
      <point x="442" y="89" type="line"/>
      <point x="441" y="90"/>
      <point x="441" y="91" type="qcurve"/>
      <point x="432" y="103"/>
      <point x="421" y="140"/>
      <point x="419" y="160"/>
      <point x="416" y="218"/>
      <point x="416" y="224" type="qcurve"/>
      <point x="415" y="238"/>
      <point x="415" y="251" type="qcurve"/>
      <point x="415" y="261"/>
      <point x="416" y="271" type="qcurve"/>
      <point x="414" y="274"/>
      <point x="411" y="277" type="qcurve"/>
      <point x="389" y="295"/>
      <point x="363" y="309" type="qcurve"/>
      <point x="362" y="310"/>
      <point x="362" y="310" type="qcurve"/>
      <point x="327" y="345" type="line"/>
      <point x="326" y="346"/>
      <point x="326" y="348"/>
      <point x="327" y="349" type="qcurve"/>
      <point x="362" y="384" type="line"/>
      <point x="363" y="385"/>
      <point x="364" y="385" type="qcurve"/>
      <point x="365" y="385"/>
      <point x="365" y="385" type="qcurve"/>
      <point x="397" y="367"/>
      <point x="424" y="344" type="qcurve"/>
      <point x="437" y="417"/>
      <point x="476" y="525" type="qcurve"/>
      <point x="514" y="627"/>
      <point x="583" y="782" type="qcurve"/>
      <point x="584" y="782"/>
      <point x="584" y="783" type="qcurve"/>
      <point x="619" y="818" type="line"/>
      <point x="620" y="819"/>
      <point x="621" y="819" type="qcurve"/>
      <point x="727" y="819" type="line"/>
      <point x="728" y="819"/>
      <point x="729" y="818" type="qcurve"/>
      <point x="764" y="783" type="line"/>
      <point x="765" y="782"/>
      <point x="765" y="780"/>
      <point x="764" y="779" type="qcurve"/>
      <point x="729" y="744" type="line"/>
      <point x="728" y="743"/>
      <point x="727" y="743" type="qcurve"/>
      <point x="642" y="743" type="line"/>
      <point x="586" y="617"/>
      <point x="552" y="523" type="qcurve"/>
      <point x="496" y="372"/>
      <point x="492" y="273" type="qcurve"/>
      <point x="529" y="223"/>
    </contour>
    <contour>
      <point x="523" y="107" type="qcurve"/>
      <point x="523" y="112"/>
      <point x="522" y="130"/>
      <point x="522" y="135" type="qcurve"/>
      <point x="522" y="140"/>
      <point x="524" y="162"/>
      <point x="524" y="168" type="qcurve"/>
      <point x="524" y="222"/>
      <point x="487" y="271" type="qcurve"/>
      <point x="486" y="271"/>
      <point x="486" y="272" type="qcurve"/>
      <point x="491" y="373"/>
      <point x="547" y="525" type="qcurve"/>
      <point x="582" y="619"/>
      <point x="638" y="747" type="qcurve"/>
      <point x="639" y="748"/>
      <point x="641" y="748" type="qcurve"/>
      <point x="726" y="748" type="line"/>
      <point x="759" y="781" type="line"/>
      <point x="726" y="814" type="line"/>
      <point x="622" y="814" type="line"/>
      <point x="588" y="780" type="line"/>
      <point x="519" y="625"/>
      <point x="481" y="523" type="qcurve"/>
      <point x="440" y="413"/>
      <point x="428" y="338" type="qcurve"/>
      <point x="427" y="336"/>
      <point x="425" y="336" type="qcurve"/>
      <point x="424" y="336"/>
      <point x="424" y="337" type="qcurve"/>
      <point x="397" y="361"/>
      <point x="364" y="379" type="qcurve"/>
      <point x="332" y="347" type="line"/>
      <point x="366" y="314" type="line"/>
      <point x="392" y="299"/>
      <point x="415" y="281" type="qcurve"/>
      <point x="415" y="280" type="line"/>
      <point x="418" y="277"/>
      <point x="420" y="274" type="qcurve"/>
      <point x="421" y="273"/>
      <point x="421" y="272" type="qcurve"/>
      <point x="421" y="269"/>
      <point x="420" y="255"/>
      <point x="420" y="251" type="qcurve"/>
      <point x="420" y="243"/>
      <point x="421" y="225"/>
      <point x="422" y="204"/>
      <point x="422" y="198" type="qcurve"/>
      <point x="423" y="172"/>
      <point x="426" y="144"/>
      <point x="436" y="106"/>
      <point x="445" y="93" type="qcurve"/>
      <point x="480" y="58" type="line"/>
      <point x="481" y="57"/>
      <point x="481" y="57" type="qcurve"/>
      <point x="482" y="57"/>
      <point x="483" y="58" type="qcurve"/>
      <point x="518" y="94" type="line"/>
      <point x="523" y="98"/>
    </contour>
    <contour>
      <point x="4" y="333" type="qcurve"/>
      <point x="2" y="333"/>
      <point x="-1" y="332"/>
      <point x="-2" y="332" type="qcurve"/>
      <point x="-4" y="332"/>
      <point x="-4" y="333" type="qcurve"/>
      <point x="-40" y="369" type="line"/>
      <point x="-40" y="369"/>
      <point x="-40" y="371"/>
      <point x="-40" y="373"/>
      <point x="-40" y="374" type="qcurve"/>
      <point x="-40" y="396"/>
      <point x="-20" y="416" type="qcurve"/>
      <point x="15" y="451" type="line"/>
      <point x="31" y="467"/>
      <point x="80" y="487"/>
      <point x="101" y="487" type="qcurve"/>
      <point x="107" y="487"/>
      <point x="114" y="486" type="qcurve"/>
      <point x="253" y="599"/>
      <point x="409" y="745" type="qcurve"/>
      <point x="376" y="750" type="line"/>
      <point x="280" y="756" type="line"/>
      <point x="130" y="762" type="line"/>
      <point x="4" y="744" type="line"/>
      <point x="3" y="744"/>
      <point x="2" y="745" type="qcurve"/>
      <point x="-33" y="780" type="line"/>
      <point x="-34" y="781"/>
      <point x="-34" y="783"/>
      <point x="-33" y="784" type="qcurve"/>
      <point x="2" y="819" type="line"/>
      <point x="3" y="820"/>
      <point x="4" y="820" type="qcurve"/>
      <point x="130" y="838" type="line"/>
      <point x="280" y="832" type="line"/>
      <point x="376" y="826" type="line"/>
      <point x="475" y="811" type="line"/>
      <point x="476" y="811"/>
      <point x="477" y="810" type="qcurve"/>
      <point x="493" y="794" type="line"/>
      <point x="558" y="814" type="line"/>
      <point x="559" y="814"/>
      <point x="559" y="814" type="qcurve"/>
      <point x="560" y="814"/>
      <point x="561" y="813" type="qcurve"/>
      <point x="596" y="778" type="line"/>
      <point x="597" y="777"/>
      <point x="597" y="775"/>
      <point x="596" y="774" type="qcurve"/>
      <point x="561" y="739" type="line"/>
      <point x="560" y="738"/>
      <point x="560" y="738" type="qcurve"/>
      <point x="478" y="713" type="line"/>
      <point x="472" y="701"/>
      <point x="455" y="651"/>
      <point x="453" y="646" type="qcurve"/>
      <point x="404" y="522"/>
      <point x="404" y="402" type="qcurve"/>
      <point x="404" y="379"/>
      <point x="408" y="322" type="qcurve"/>
      <point x="413" y="257"/>
      <point x="414" y="225" type="qcurve"/>
      <point x="415" y="221"/>
      <point x="426" y="179" type="qcurve"/>
      <point x="430" y="163"/>
      <point x="430" y="155" type="qcurve"/>
      <point x="430" y="152"/>
      <point x="428" y="141"/>
      <point x="428" y="138" type="qcurve"/>
      <point x="428" y="131"/>
      <point x="430" y="121" type="qcurve"/>
      <point x="434" y="107"/>
      <point x="434" y="105" type="qcurve"/>
      <point x="434" y="104"/>
      <point x="433" y="103" type="qcurve"/>
      <point x="398" y="68" type="line"/>
      <point x="397" y="67"/>
      <point x="395" y="67"/>
      <point x="394" y="68" type="qcurve"/>
      <point x="359" y="103" type="line"/>
      <point x="358" y="104"/>
      <point x="356" y="111"/>
      <point x="354" y="122"/>
      <point x="353" y="125" type="qcurve"/>
      <point x="338" y="181"/>
      <point x="338" y="212" type="qcurve"/>
      <point x="338" y="218"/>
      <point x="338" y="225" type="qcurve"/>
      <point x="320" y="278"/>
      <point x="281" y="324" type="qcurve"/>
      <point x="245" y="354"/>
      <point x="204" y="372" type="qcurve"/>
      <point x="196" y="376"/>
      <point x="159" y="395"/>
      <point x="129" y="408"/>
      <point x="115" y="410" type="qcurve"/>
      <point x="21" y="333"/>
    </contour>
    <contour>
      <point x="423" y="138" type="qcurve"/>
      <point x="423" y="141"/>
      <point x="425" y="152"/>
      <point x="425" y="155" type="qcurve"/>
      <point x="425" y="161"/>
      <point x="417" y="192" type="qcurve"/>
      <point x="412" y="214"/>
      <point x="409" y="224" type="qcurve"/>
      <point x="409" y="225"/>
      <point x="409" y="225" type="qcurve"/>
      <point x="408" y="258"/>
      <point x="402" y="331" type="qcurve"/>
      <point x="399" y="378"/>
      <point x="399" y="402" type="qcurve"/>
      <point x="399" y="523"/>
      <point x="448" y="648" type="qcurve"/>
      <point x="450" y="653"/>
      <point x="467" y="703"/>
      <point x="474" y="716" type="qcurve"/>
      <point x="474" y="717"/>
      <point x="475" y="717" type="qcurve"/>
      <point x="558" y="743" type="line"/>
      <point x="591" y="776" type="line"/>
      <point x="558" y="809" type="line"/>
      <point x="493" y="788" type="line"/>
      <point x="492" y="788"/>
      <point x="491" y="789" type="qcurve"/>
      <point x="474" y="806" type="line"/>
      <point x="376" y="821" type="line"/>
      <point x="280" y="827" type="line"/>
      <point x="130" y="833" type="line"/>
      <point x="5" y="815" type="line"/>
      <point x="-28" y="782" type="line"/>
      <point x="5" y="749" type="line"/>
      <point x="130" y="767" type="line"/>
      <point x="280" y="761" type="line"/>
      <point x="376" y="755" type="line"/>
      <point x="376" y="755"/>
      <point x="415" y="749" type="qcurve"/>
      <point x="417" y="749"/>
      <point x="417" y="747" type="qcurve"/>
      <point x="417" y="746"/>
      <point x="416" y="745" type="qcurve"/>
      <point x="259" y="597"/>
      <point x="116" y="481" type="qcurve"/>
      <point x="116" y="481"/>
      <point x="115" y="481" type="qcurve"/>
      <point x="114" y="481"/>
      <point x="114" y="481" type="qcurve"/>
      <point x="107" y="482"/>
      <point x="101" y="482" type="qcurve"/>
      <point x="81" y="482"/>
      <point x="34" y="463"/>
      <point x="18" y="447" type="qcurve"/>
      <point x="-17" y="412" type="line"/>
      <point x="-35" y="394"/>
      <point x="-35" y="374" type="qcurve"/>
      <point x="-35" y="373"/>
      <point x="-35" y="371" type="qcurve"/>
      <point x="-2" y="338" type="line"/>
      <point x="2" y="338"/>
      <point x="4" y="338" type="qcurve"/>
      <point x="19" y="338"/>
      <point x="113" y="415" type="qcurve"/>
      <point x="114" y="415"/>
      <point x="115" y="415" type="qcurve"/>
      <point x="130" y="413"/>
      <point x="160" y="400"/>
      <point x="198" y="381"/>
      <point x="206" y="377" type="qcurve"/>
      <point x="248" y="359"/>
      <point x="284" y="327" type="qcurve"/>
      <point x="324" y="280"/>
      <point x="343" y="226" type="qcurve"/>
      <point x="343" y="225"/>
      <point x="343" y="225" type="qcurve"/>
      <point x="343" y="218"/>
      <point x="343" y="212" type="qcurve"/>
      <point x="343" y="182"/>
      <point x="359" y="121" type="qcurve"/>
      <point x="361" y="111"/>
      <point x="363" y="106" type="qcurve"/>
      <point x="396" y="73" type="line"/>
      <point x="429" y="106" type="line"/>
      <point x="427" y="111"/>
      <point x="425" y="120" type="qcurve"/>
      <point x="423" y="127"/>
    </contour>
    <contour>
      <point x="333" y="402" type="qcurve"/>
      <point x="333" y="381"/>
      <point x="335" y="347" type="qcurve"/>
      <point x="335" y="344"/>
      <point x="333" y="344" type="qcurve"/>
      <point x="332" y="344"/>
      <point x="331" y="345" type="qcurve"/>
      <point x="299" y="377" type="line"/>
      <point x="256" y="420"/>
      <point x="204" y="443" type="qcurve"/>
      <point x="195" y="447"/>
      <point x="172" y="459" type="qcurve"/>
      <point x="171" y="460"/>
      <point x="171" y="461" type="qcurve"/>
      <point x="171" y="462"/>
      <point x="171" y="463" type="qcurve"/>
      <point x="272" y="548"/>
      <point x="376" y="644" type="qcurve"/>
      <point x="377" y="645"/>
      <point x="378" y="645" type="qcurve"/>
      <point x="380" y="645"/>
      <point x="380" y="642" type="qcurve"/>
      <point x="380" y="642"/>
      <point x="380" y="641" type="qcurve"/>
      <point x="333" y="519"/>
    </contour>
    <contour>
      <point x="328" y="402" type="qcurve"/>
      <point x="328" y="515"/>
      <point x="372" y="633" type="qcurve"/>
      <point x="272" y="542"/>
      <point x="177" y="462" type="qcurve"/>
      <point x="197" y="452"/>
      <point x="206" y="448" type="qcurve"/>
      <point x="259" y="424"/>
      <point x="302" y="381" type="qcurve"/>
      <point x="330" y="353" type="line"/>
      <point x="328" y="382"/>
    </contour>
  </outline>
</glyph>
